<mxfile host="Electron" modified="2024-04-28T14:00:58.974Z" agent="Mozilla/5.0 (Windows NT 10.0; Win64; x64) AppleWebKit/537.36 (KHTML, like Gecko) draw.io/24.2.5 Chrome/120.0.6099.109 Electron/28.1.0 Safari/537.36" etag="pf_W4ORI7pD3tiQXqkHj" version="24.2.5" type="device">
  <diagram id="C5RBs43oDa-KdzZeNtuy" name="Page-1">
    <mxGraphModel dx="1932" dy="662" grid="1" gridSize="1" guides="1" tooltips="1" connect="1" arrows="1" fold="1" page="1" pageScale="1" pageWidth="827" pageHeight="1169" math="0" shadow="0">
      <root>
        <mxCell id="WIyWlLk6GJQsqaUBKTNV-0" />
        <mxCell id="WIyWlLk6GJQsqaUBKTNV-1" parent="WIyWlLk6GJQsqaUBKTNV-0" />
        <mxCell id="zkfFHV4jXpPFQw0GAbJ--0" value="设备树中的i2c控制器节点" style="swimlane;fontStyle=3;align=center;verticalAlign=top;childLayout=stackLayout;horizontal=1;startSize=26;horizontalStack=0;resizeParent=1;resizeLast=0;collapsible=1;marginBottom=0;rounded=0;shadow=0;strokeWidth=1;fillColor=#d5e8d4;strokeColor=#82b366;" parent="WIyWlLk6GJQsqaUBKTNV-1" vertex="1">
          <mxGeometry x="58" y="140" width="180" height="104" as="geometry">
            <mxRectangle x="220" y="120" width="160" height="26" as="alternateBounds" />
          </mxGeometry>
        </mxCell>
        <mxCell id="zkfFHV4jXpPFQw0GAbJ--1" value="向上注册一个platform_device" style="text;align=left;verticalAlign=top;spacingLeft=4;spacingRight=4;overflow=hidden;rotatable=0;points=[[0,0.5],[1,0.5]];portConstraint=eastwest;fillColor=#d5e8d4;strokeColor=#82b366;" parent="zkfFHV4jXpPFQw0GAbJ--0" vertex="1">
          <mxGeometry y="26" width="180" height="26" as="geometry" />
        </mxCell>
        <mxCell id="zkfFHV4jXpPFQw0GAbJ--2" value="compatible = &quot;xxx&quot;" style="text;align=left;verticalAlign=top;spacingLeft=4;spacingRight=4;overflow=hidden;rotatable=0;points=[[0,0.5],[1,0.5]];portConstraint=eastwest;rounded=0;shadow=0;html=0;fillColor=#f8cecc;strokeColor=#b85450;" parent="zkfFHV4jXpPFQw0GAbJ--0" vertex="1">
          <mxGeometry y="52" width="180" height="26" as="geometry" />
        </mxCell>
        <mxCell id="zkfFHV4jXpPFQw0GAbJ--3" value="reg = &lt;i2c控制器的寄存器信息&gt;" style="text;align=left;verticalAlign=top;spacingLeft=4;spacingRight=4;overflow=hidden;rotatable=0;points=[[0,0.5],[1,0.5]];portConstraint=eastwest;rounded=0;shadow=0;html=0;fillColor=#f8cecc;strokeColor=#b85450;" parent="zkfFHV4jXpPFQw0GAbJ--0" vertex="1">
          <mxGeometry y="78" width="180" height="26" as="geometry" />
        </mxCell>
        <mxCell id="zkfFHV4jXpPFQw0GAbJ--13" value="probe " style="swimlane;fontStyle=0;align=center;verticalAlign=top;childLayout=stackLayout;horizontal=1;startSize=26;horizontalStack=0;resizeParent=1;resizeLast=0;collapsible=1;marginBottom=0;rounded=0;shadow=0;strokeWidth=1;fillColor=#d80073;strokeColor=#A50040;fontColor=#ffffff;" parent="WIyWlLk6GJQsqaUBKTNV-1" vertex="1">
          <mxGeometry x="273" y="158" width="240" height="216" as="geometry">
            <mxRectangle x="340" y="380" width="170" height="26" as="alternateBounds" />
          </mxGeometry>
        </mxCell>
        <mxCell id="zkfFHV4jXpPFQw0GAbJ--14" value="① 分配 adapter，即实例化一个 i2c 控制器" style="text;align=left;verticalAlign=top;spacingLeft=4;spacingRight=4;overflow=hidden;rotatable=0;points=[[0,0.5],[1,0.5]];portConstraint=eastwest;fillColor=#e1d5e7;strokeColor=#9673a6;" parent="zkfFHV4jXpPFQw0GAbJ--13" vertex="1">
          <mxGeometry y="26" width="240" height="24" as="geometry" />
        </mxCell>
        <mxCell id="zkfFHV4jXpPFQw0GAbJ--15" value="" style="line;html=1;strokeWidth=1;align=left;verticalAlign=middle;spacingTop=-1;spacingLeft=3;spacingRight=3;rotatable=0;labelPosition=right;points=[];portConstraint=eastwest;" parent="zkfFHV4jXpPFQw0GAbJ--13" vertex="1">
          <mxGeometry y="50" width="240" height="8" as="geometry" />
        </mxCell>
        <mxCell id="x74ONLKLbEEUaDy3nGKP-9" value="② 设置 adapter，获取设备树中 i2c 控制器&#xa;的硬件信息资源，用来配置 i2c 控制器。&#xa;为 adapter 设置传输函数：master_xfer" style="text;align=left;verticalAlign=top;spacingLeft=4;spacingRight=4;overflow=hidden;rotatable=0;points=[[0,0.5],[1,0.5]];portConstraint=eastwest;fillColor=#e1d5e7;strokeColor=#9673a6;" parent="zkfFHV4jXpPFQw0GAbJ--13" vertex="1">
          <mxGeometry y="58" width="240" height="52" as="geometry" />
        </mxCell>
        <mxCell id="x74ONLKLbEEUaDy3nGKP-11" value="" style="line;html=1;strokeWidth=1;align=left;verticalAlign=middle;spacingTop=-1;spacingLeft=3;spacingRight=3;rotatable=0;labelPosition=right;points=[];portConstraint=eastwest;" parent="zkfFHV4jXpPFQw0GAbJ--13" vertex="1">
          <mxGeometry y="110" width="240" height="8" as="geometry" />
        </mxCell>
        <mxCell id="x74ONLKLbEEUaDy3nGKP-10" value="③ 注册 adapter，调用 i2c_add_adapter&#xa;将构建的 adapter 放入 adapters 链表，并&#xa;从 i2c_driver 链表取出各个 i2c_driver  匹配&#xa;detect方法。用设备树方法时 i2c_driver 中&#xa;detect 和 address_list 成员不设置，就不会&#xa;匹配detect方法，只实例化一个i2c_adapter  " style="text;align=left;verticalAlign=top;spacingLeft=4;spacingRight=4;overflow=hidden;rotatable=0;points=[[0,0.5],[1,0.5]];portConstraint=eastwest;fillColor=#e1d5e7;strokeColor=#9673a6;" parent="zkfFHV4jXpPFQw0GAbJ--13" vertex="1">
          <mxGeometry y="118" width="240" height="98" as="geometry" />
        </mxCell>
        <mxCell id="zkfFHV4jXpPFQw0GAbJ--17" value="driver/i2c/busses/i2c-mv64xxx.c" style="swimlane;fontStyle=1;align=center;verticalAlign=top;childLayout=stackLayout;horizontal=1;startSize=26;horizontalStack=0;resizeParent=1;resizeLast=0;collapsible=1;marginBottom=0;rounded=0;shadow=0;strokeWidth=1;fillColor=#d5e8d4;strokeColor=#82b366;" parent="WIyWlLk6GJQsqaUBKTNV-1" vertex="1">
          <mxGeometry x="549" y="140" width="190" height="104" as="geometry">
            <mxRectangle x="550" y="140" width="160" height="26" as="alternateBounds" />
          </mxGeometry>
        </mxCell>
        <mxCell id="zkfFHV4jXpPFQw0GAbJ--18" value="向上注册一个platform_driver" style="text;align=left;verticalAlign=top;spacingLeft=4;spacingRight=4;overflow=hidden;rotatable=0;points=[[0,0.5],[1,0.5]];portConstraint=eastwest;fillColor=#d5e8d4;strokeColor=#82b366;" parent="zkfFHV4jXpPFQw0GAbJ--17" vertex="1">
          <mxGeometry y="26" width="190" height="26" as="geometry" />
        </mxCell>
        <mxCell id="zkfFHV4jXpPFQw0GAbJ--19" value=".of_match_table = &quot;xxx&quot;" style="text;align=left;verticalAlign=top;spacingLeft=4;spacingRight=4;overflow=hidden;rotatable=0;points=[[0,0.5],[1,0.5]];portConstraint=eastwest;rounded=0;shadow=0;html=0;fillColor=#f8cecc;strokeColor=#b85450;" parent="zkfFHV4jXpPFQw0GAbJ--17" vertex="1">
          <mxGeometry y="52" width="190" height="26" as="geometry" />
        </mxCell>
        <mxCell id="zkfFHV4jXpPFQw0GAbJ--20" value=".probe = xxx_fn() " style="text;align=left;verticalAlign=top;spacingLeft=4;spacingRight=4;overflow=hidden;rotatable=0;points=[[0,0.5],[1,0.5]];portConstraint=eastwest;rounded=0;shadow=0;html=0;fillColor=#f8cecc;strokeColor=#b85450;" parent="zkfFHV4jXpPFQw0GAbJ--17" vertex="1">
          <mxGeometry y="78" width="190" height="26" as="geometry" />
        </mxCell>
        <mxCell id="x74ONLKLbEEUaDy3nGKP-0" value="&lt;b&gt;I2C驱动框架：以4.14内核的全志h3为例，设备树方法&lt;/b&gt;" style="text;html=1;align=center;verticalAlign=middle;resizable=0;points=[];autosize=1;strokeColor=none;fillColor=none;" parent="WIyWlLk6GJQsqaUBKTNV-1" vertex="1">
          <mxGeometry x="243" y="62" width="303" height="27" as="geometry" />
        </mxCell>
        <mxCell id="x74ONLKLbEEUaDy3nGKP-1" value="platform_bus" style="rounded=1;whiteSpace=wrap;html=1;fillColor=#60a917;strokeColor=#2D7600;fontColor=#ffffff;fontStyle=1;fontSize=14;" parent="WIyWlLk6GJQsqaUBKTNV-1" vertex="1">
          <mxGeometry x="330" y="90" width="126" height="30" as="geometry" />
        </mxCell>
        <mxCell id="x74ONLKLbEEUaDy3nGKP-2" value="" style="endArrow=classic;html=1;rounded=0;entryX=0.011;entryY=0.603;entryDx=0;entryDy=0;entryPerimeter=0;" parent="WIyWlLk6GJQsqaUBKTNV-1" target="x74ONLKLbEEUaDy3nGKP-1" edge="1">
          <mxGeometry width="50" height="50" relative="1" as="geometry">
            <mxPoint x="170" y="140" as="sourcePoint" />
            <mxPoint x="354.00000000000006" y="118.18000000000006" as="targetPoint" />
          </mxGeometry>
        </mxCell>
        <mxCell id="x74ONLKLbEEUaDy3nGKP-3" value="" style="endArrow=classic;html=1;rounded=0;exitX=0.539;exitY=0.009;exitDx=0;exitDy=0;exitPerimeter=0;entryX=0.999;entryY=0.624;entryDx=0;entryDy=0;entryPerimeter=0;" parent="WIyWlLk6GJQsqaUBKTNV-1" target="x74ONLKLbEEUaDy3nGKP-1" edge="1">
          <mxGeometry width="50" height="50" relative="1" as="geometry">
            <mxPoint x="622.4100000000001" y="139.99999999999994" as="sourcePoint" />
            <mxPoint x="460" y="110" as="targetPoint" />
          </mxGeometry>
        </mxCell>
        <mxCell id="x74ONLKLbEEUaDy3nGKP-5" value="" style="endArrow=classic;startArrow=classic;html=1;rounded=0;exitX=1.002;exitY=0.111;exitDx=0;exitDy=0;entryX=-0.012;entryY=0.105;entryDx=0;entryDy=0;entryPerimeter=0;exitPerimeter=0;" parent="WIyWlLk6GJQsqaUBKTNV-1" source="zkfFHV4jXpPFQw0GAbJ--0" target="zkfFHV4jXpPFQw0GAbJ--17" edge="1">
          <mxGeometry width="50" height="50" relative="1" as="geometry">
            <mxPoint x="250" y="150.5" as="sourcePoint" />
            <mxPoint x="520" y="151.5" as="targetPoint" />
          </mxGeometry>
        </mxCell>
        <mxCell id="x74ONLKLbEEUaDy3nGKP-7" value="平台总线设备驱动匹配" style="text;html=1;align=center;verticalAlign=middle;resizable=0;points=[];autosize=1;strokeColor=none;fillColor=none;" parent="WIyWlLk6GJQsqaUBKTNV-1" vertex="1">
          <mxGeometry x="323" y="127" width="140" height="30" as="geometry" />
        </mxCell>
        <mxCell id="x74ONLKLbEEUaDy3nGKP-22" value="IIC 核心层" style="rounded=1;whiteSpace=wrap;html=1;fillColor=#60a917;strokeColor=#2D7600;fontColor=#ffffff;fontStyle=1;fontSize=14;" parent="WIyWlLk6GJQsqaUBKTNV-1" vertex="1">
          <mxGeometry x="335" y="391" width="126" height="30" as="geometry" />
        </mxCell>
        <mxCell id="x74ONLKLbEEUaDy3nGKP-23" value="设备树中i2c控制器节点下的i2c设备节点" style="swimlane;fontStyle=3;align=center;verticalAlign=top;childLayout=stackLayout;horizontal=1;startSize=26;horizontalStack=0;resizeParent=1;resizeLast=0;collapsible=1;marginBottom=0;rounded=0;shadow=0;strokeWidth=1;fillColor=#d5e8d4;strokeColor=#82b366;" parent="WIyWlLk6GJQsqaUBKTNV-1" vertex="1">
          <mxGeometry x="16.999999999999996" y="258" width="232" height="117" as="geometry">
            <mxRectangle x="220" y="120" width="160" height="26" as="alternateBounds" />
          </mxGeometry>
        </mxCell>
        <mxCell id="x74ONLKLbEEUaDy3nGKP-24" value="1. 挂在哪个i2c控制器节点下，便使用该&#xa; i2c控制器节点实例化的 adapter进行通信" style="text;align=left;verticalAlign=top;spacingLeft=4;spacingRight=4;overflow=hidden;rotatable=0;points=[[0,0.5],[1,0.5]];portConstraint=eastwest;fillColor=#dae8fc;strokeColor=#6c8ebf;" parent="x74ONLKLbEEUaDy3nGKP-23" vertex="1">
          <mxGeometry y="26" width="232" height="39" as="geometry" />
        </mxCell>
        <mxCell id="x74ONLKLbEEUaDy3nGKP-25" value="2. 用 i2c设备节点的地址访问，收到 ACK&#xa;回应，则解析设备树中 i2c 设备节点信息，&#xa;注册 i2c_client，同时注册platform_device" style="text;align=left;verticalAlign=top;spacingLeft=4;spacingRight=4;overflow=hidden;rotatable=0;points=[[0,0.5],[1,0.5]];portConstraint=eastwest;rounded=0;shadow=0;html=0;fillColor=#dae8fc;strokeColor=#6c8ebf;" parent="x74ONLKLbEEUaDy3nGKP-23" vertex="1">
          <mxGeometry y="65" width="232" height="52" as="geometry" />
        </mxCell>
        <mxCell id="x74ONLKLbEEUaDy3nGKP-27" value="" style="line;html=1;strokeWidth=1;align=left;verticalAlign=middle;spacingTop=-1;spacingLeft=3;spacingRight=3;rotatable=0;labelPosition=right;points=[];portConstraint=eastwest;" parent="x74ONLKLbEEUaDy3nGKP-23" vertex="1">
          <mxGeometry y="117" width="232" as="geometry" />
        </mxCell>
        <mxCell id="x74ONLKLbEEUaDy3nGKP-28" value="i2c_add_driver：注册i2c设备驱动" style="swimlane;fontStyle=3;align=center;verticalAlign=top;childLayout=stackLayout;horizontal=1;startSize=26;horizontalStack=0;resizeParent=1;resizeLast=0;collapsible=1;marginBottom=0;rounded=0;shadow=0;strokeWidth=1;fillColor=#d5e8d4;strokeColor=#82b366;" parent="WIyWlLk6GJQsqaUBKTNV-1" vertex="1">
          <mxGeometry x="538.16" y="258" width="241" height="108" as="geometry">
            <mxRectangle x="220" y="120" width="160" height="26" as="alternateBounds" />
          </mxGeometry>
        </mxCell>
        <mxCell id="x74ONLKLbEEUaDy3nGKP-29" value="1. 将 i2c 设备驱动放入 i2c_dirver 链表。因&#xa; i2c_driver的detect与address_list成员为空，&#xa;所以注册i2c_driver时不会使用detect方法。&#xa;" style="text;align=left;verticalAlign=top;spacingLeft=4;spacingRight=4;overflow=hidden;rotatable=0;points=[[0,0.5],[1,0.5]];portConstraint=eastwest;fillColor=#dae8fc;strokeColor=#6c8ebf;" parent="x74ONLKLbEEUaDy3nGKP-28" vertex="1">
          <mxGeometry y="26" width="241" height="54" as="geometry" />
        </mxCell>
        <mxCell id="x74ONLKLbEEUaDy3nGKP-30" value="2. 注册i2c_driver同时会注册platform_driver" style="text;align=left;verticalAlign=top;spacingLeft=4;spacingRight=4;overflow=hidden;rotatable=0;points=[[0,0.5],[1,0.5]];portConstraint=eastwest;rounded=0;shadow=0;html=0;fillColor=#dae8fc;strokeColor=#6c8ebf;" parent="x74ONLKLbEEUaDy3nGKP-28" vertex="1">
          <mxGeometry y="80" width="241" height="28" as="geometry" />
        </mxCell>
        <mxCell id="x74ONLKLbEEUaDy3nGKP-31" value="" style="line;html=1;strokeWidth=1;align=left;verticalAlign=middle;spacingTop=-1;spacingLeft=3;spacingRight=3;rotatable=0;labelPosition=right;points=[];portConstraint=eastwest;" parent="x74ONLKLbEEUaDy3nGKP-28" vertex="1">
          <mxGeometry y="108" width="241" as="geometry" />
        </mxCell>
        <mxCell id="zkfFHV4jXpPFQw0GAbJ--4" value="" style="line;html=1;strokeWidth=1;align=left;verticalAlign=middle;spacingTop=-1;spacingLeft=3;spacingRight=3;rotatable=0;labelPosition=right;points=[];portConstraint=eastwest;" parent="WIyWlLk6GJQsqaUBKTNV-1" vertex="1">
          <mxGeometry x="60" y="244" width="180" as="geometry" />
        </mxCell>
        <mxCell id="x74ONLKLbEEUaDy3nGKP-43" value="" style="endArrow=classic;html=1;rounded=0;exitX=1;exitY=0.25;exitDx=0;exitDy=0;entryX=0;entryY=0.5;entryDx=0;entryDy=0;fillColor=#b1ddf0;strokeColor=#10739e;strokeWidth=2;" parent="WIyWlLk6GJQsqaUBKTNV-1" source="x74ONLKLbEEUaDy3nGKP-23" target="x74ONLKLbEEUaDy3nGKP-22" edge="1">
          <mxGeometry width="50" height="50" relative="1" as="geometry">
            <mxPoint x="147.84" y="449" as="sourcePoint" />
            <mxPoint x="332" y="382" as="targetPoint" />
            <Array as="points">
              <mxPoint x="266" y="371" />
            </Array>
          </mxGeometry>
        </mxCell>
        <mxCell id="x74ONLKLbEEUaDy3nGKP-45" value="" style="endArrow=classic;html=1;rounded=0;exitX=0.003;exitY=0.183;exitDx=0;exitDy=0;exitPerimeter=0;entryX=1;entryY=0.5;entryDx=0;entryDy=0;fillColor=#b1ddf0;strokeColor=#10739e;strokeWidth=2;" parent="WIyWlLk6GJQsqaUBKTNV-1" source="x74ONLKLbEEUaDy3nGKP-28" target="x74ONLKLbEEUaDy3nGKP-22" edge="1">
          <mxGeometry width="50" height="50" relative="1" as="geometry">
            <mxPoint x="614.59" y="448.99999999999994" as="sourcePoint" />
            <mxPoint x="456.18" y="419" as="targetPoint" />
            <Array as="points">
              <mxPoint x="524" y="368" />
            </Array>
          </mxGeometry>
        </mxCell>
        <mxCell id="x74ONLKLbEEUaDy3nGKP-46" value="i2c_driver与i2c_client匹配后调用probe" style="swimlane;fontStyle=0;align=center;verticalAlign=top;childLayout=stackLayout;horizontal=1;startSize=26;horizontalStack=0;resizeParent=1;resizeLast=0;collapsible=1;marginBottom=0;rounded=0;shadow=0;strokeWidth=1;fillColor=#d80073;strokeColor=#A50040;fontColor=#ffffff;" parent="WIyWlLk6GJQsqaUBKTNV-1" vertex="1">
          <mxGeometry x="277" y="431" width="250" height="78" as="geometry">
            <mxRectangle x="340" y="380" width="170" height="26" as="alternateBounds" />
          </mxGeometry>
        </mxCell>
        <mxCell id="x74ONLKLbEEUaDy3nGKP-48" value="" style="line;html=1;strokeWidth=1;align=left;verticalAlign=middle;spacingTop=-1;spacingLeft=3;spacingRight=3;rotatable=0;labelPosition=right;points=[];portConstraint=eastwest;" parent="x74ONLKLbEEUaDy3nGKP-46" vertex="1">
          <mxGeometry y="26" width="250" height="8" as="geometry" />
        </mxCell>
        <mxCell id="x74ONLKLbEEUaDy3nGKP-49" value="在probe函数中对i2c设备进行初始化等操作&#xa;同时也可以注册字符设备驱动、input驱动。" style="text;align=left;verticalAlign=top;spacingLeft=4;spacingRight=4;overflow=hidden;rotatable=0;points=[[0,0.5],[1,0.5]];portConstraint=eastwest;fillColor=#e1d5e7;strokeColor=#9673a6;" parent="x74ONLKLbEEUaDy3nGKP-46" vertex="1">
          <mxGeometry y="34" width="250" height="42" as="geometry" />
        </mxCell>
        <mxCell id="x74ONLKLbEEUaDy3nGKP-56" value="" style="line;html=1;strokeWidth=1;align=left;verticalAlign=middle;spacingTop=-1;spacingLeft=3;spacingRight=3;rotatable=0;labelPosition=right;points=[];portConstraint=eastwest;" parent="x74ONLKLbEEUaDy3nGKP-46" vertex="1">
          <mxGeometry y="76" width="250" height="2" as="geometry" />
        </mxCell>
        <mxCell id="gd7y4TCB3l7EOIuw51wQ-0" value="" style="shape=image;verticalLabelPosition=bottom;labelBackgroundColor=default;verticalAlign=top;aspect=fixed;imageAspect=0;image=data:image/png,iVBORw0KGgoAAAANSUhEUgAAAnsAAAD7CAYAAAASG1JmAAAgAElEQVR4Aeydd1xT1///f38z1LZ2+7G1ZSpIbhL2lr33niKCIigqssEJqNU6akVBAZEN+vl820+X/bS2tXZb62gdta66Wq3aqkgC+vo9EjIuIQkBUSG+fTzyICYn557zPs977/Occ8+9/4+jYwB6UQyIAWKAGCAGiAFigBjQTgb+HzWsdjYstSu1KzFADBADxAAxQAyIGCDZo5FNGtklBogBYoAYIAaIAS1mYMiyx3OqRuS31xCeEQRmFAXI0mIB2vedxc3OHty/L8A3WbajqvzUS6NeGjFADBADxAAxQAwMhoH+sjc+CG5v/IjobzsR/+UJhMyJAU9XMaiG4Ed9ivhf7iHujZng9pM9Q/B4+fDdehQx391F4sEbiG57F57OQxArXR7sUnYh4pO/kfjTP4hp2wV3K94QeyDmyG6+CeHP9ZjHcYDbJBs4PWM0xLwUY0L/Hwx4lJZ4IQaIAWKAGCAGHg0DCrJnDNuFJ5Dw2Udws/GAbcR/EHPoV/jwjPsLkS4H1rwAWD2tpKD67nCvv4CItW9imk8yHP2WwH/XP0j67iO4TjDsn1c/WZTmaQTL6E8Qf+QPhC5cAEePBfCu+QOJX3+CaZOGIGm6dijb24VrNcmwVLlN6bbpL+2ExAAxQAwQA8QAMTD6GVCQPXO4bLqLxM3ZvaN1E0sQdvA8fG1N5II2oRChh4CkY72vxLfmKp8GHcP6jY4BGPs6xBz5A/7OpvK8dExh6VwG/5pjiPm+C4mHOxH/2QkEpwb0ptEPgPd/hYjfkCUfXXxxHoK+ESJqvj8rHw0bQs8e5Z914Wp1Iskeye7g+aGYUcyIAWKAGCAGRiEDCrJnDOu0A0j4bDecJjjCqeI04hvLYK3Pkil9BpamnrCeEgPvNiFUyl6fYBiCF/IB4g5+Dw8j6YicESyD/g8xR+4iels13EPT4eicCKfQErhacXtheqUUYYe6EBxhCav4TxH75VdwN7PBtG1dSKgrBr/f9DKrnH22L/lczwEVn3fhj6oEkj1l8aHP6CBGDBADxAAxQAxoHQMKsmcAzrMp8N/bg4TvryNm21rYv2QM3iQPWD3Xd6SOo2cPt3rNZI8xzkXwZ52IKogGTwrR2Gj4ftyD+JpiWLFlUvq96C+zCVGHr8Lf1Ry2OSeRePQ8fO2mwnHldST+3wbYqPodOw/We57hAuy5chc/5k1Tcp3hAKLIyoeGtClWxAAxQAwQA8QAMTBaGOgre7p8OBQdRdzuDxD87k1Er5kLqzFWmLa9ExFZPn1NV0PZ41osRsjeO4hemw2rMXIwGOMKRBwWIDTGsm++bKmSyZ4pOKIRxUk8MDqmQ5A9U8yuuoi73ffR+f16xDwjL8doaSgqJ7UZMUAMEAPEADFADAyFgT6yx9huQ7RoQYblZHBey0bg/+4g+o06BH9+Gf4uk/tKma7dACN7huBavYGwr24jctksWCqMwjFGZQg/LEBIlJqVtbJpXFYaXf6QpnGt/+WMiIga/HL7EnYHc/rWhS2Y9J5iQwwQA8QAMUAMEANaxABL9oxgNfN7JP74Xzg/1WvOXGYVwr+7h6TPGuEg+UxmlLo8uFYLkLBD+bVzzMS5CBJN3S5PBV9PiYmPjYHfJz2Iq8rvJ4KybegHihdoxK3LlF+f90IWgr4e6gINF6zZ34ULG6PA16JGlMWL6kQHJ2KAGCAGiAFigBhQYIAlewZgHOoQffgiAoMcwNExAs+yHKFf9iDpyBn4u7FG18SZGMNOdB3dwZ/hH5sGR98cuPv7SgJsCvuis0j8/B1M4/vCxpz1el2y+ELHCFYRHyHuqGiBxja4h6TCwTlRnI+br7ckHyNYxnyK+COXEZqdDUe3bHhtu9x765XXpAs9lIikQiVlMkSrcWkHUMUGfU5sEAPEADFADGgpA31kj6NrAduEDkR8chWxe04javde+IbHwGX1RSR+tAMO4xXE6sVYeFWdQvzBbiR89zvCC6b33iJFzxkeTULZ7Vmkt2kR/U3Yli+/jYrOZFi5r4J//UnE/iBA0lEh4vedQlh+inwkT3pT5b23kHDoFmLbdsPdWlE8FcqlqrFI9mhHVsUGfU5sEAPEADFADGgpA31lT0srKRvZ07XFik+7cKMuhW69ou1tTfWjgzYxQAwQA8QAMSBm4MmSPZ3JSKu+AuHJFuTw6HFpMgmmnYEOiMQAMUAMEAPEgNYy8ITJngG4hmmo++Q0bnT24P59Ab7JGsLzemmH0NodggRYw0siaB+gfYAYIAaIgVHDwBMne3Qyp5M5MUAMEAPEADFADDxJDJDsUc9k1PRMnqQdk+pKJyJigBggBoiB4WKAZI9kj2SPGCAGiAFigBggBrSYAZI9LW7c4eoR9OYzFeFey/CmjzfdkJqYoZMCMUAMEAPEwChiQHtk71lnJISmImai4YMBOFz5jCQIdPmYmbIT2/3cwdVzR978nVhrzwUzmDLq8pGW0oi26JBHI3vDUebB1I/SPth+Q/Gj+BEDxAAxMGIZ0BrZ4zlV4WzXadQ6GT9QsIcrn+EdVXvQ6xYsMD2pHlU+LuDquWBhVj1W21iMbNnTGYYy04HngfaFkcXwg+4D9HtqT2KAGHhyGSDZUxAC7ZS9yYiNrsNGZ2swujaYk16LZRzTwYnAox7Z0xmGMiu0LR3ontwDHbU9tT0xQAw8yQyMeNljngvAkqr9+O3KbQi7hei88SfOf7sNGc9LwB0bi+bzPej/7x6u106XPSmDeSUTuw5fws073bgn7MS1E/vRlu4PO91B5KPvh82HhLhanSjLl/NUJvbcFeLAImdwJXIxYJkfuYQYIcB3PZZxRYI3BXHRG7DIUOHZwnpchE4rxMb5dWgrqsX2mYXINOXK6sTpJ3uGsDFMx4b8WmzwmAZrad3HB6EoYysaCpvQUbITO7LKUGjlACvp90+HobywCVu95PHi6JgiImw72jNnwUdPekDSoMyiPHWtMHfrcdy8cRLtEdaDG6185O0grRv9fZIPulR34p8YIAYeNQMjXPZMkLThHLqv7MPWxHjE24cg0ScdxRkp8NeXwmKGaWYeCE9oxUXBBexO8EUwxxPBHA8ETDKXn/zHuiEtPhUzXIIR4zodS6uP4LbwNOpcpSNcGuSjkexpUmZp2R/dX96z1nAeK7qe0RBWL1jDfgx721MQ5LcRbQXrsdgxEKGmQZgVsQEtxW8h13hK7whgH9kzhL1pBjbm1WCduxts2dKkZ40Qxg9BBs7wMfDB9KC1aCrZhBwD6fQ6B8mJ9WhLmw43qWiLp5abUBfk1ed6QPVllpR/bCTqfxPJfg8ubIzq8/tHvTPR9thM0XvigRggBoiBkcLACJc9M2S3/I3uYzuQPlEqC8rhGfT06/jZeO+mED/lT5OPXukYQG0+Gsme5mVWB4G4HN39xytFn9w7U4PkscrjoC5PVd8xz8VgdWEjNrraymOhZ4c56Y1oSYyGg3gETbJAIyYSPpYFqCqoxApbB/kIJ1v42O/HBmJJfiM2OFtJxNsQjjbL0VK8Eukv9i6mYV5OxsZi0dSyRCzZvx/wvRHcPEpRVbEYKa8qjFYO+Nvhi6Gq2NLnFGNigBggBoiBx83ACJc9A1hZ5OK/x+/g3q3z+KG5EiuCPGAvm+qTA6RW0nQMwH0lGqtrvsSJM1fx982/cPnk77gh6MYvS7zlgjMssqd5mdU2/nhbBFsHIMqm/yuSsYOtdFRsGISGN3khdpS8jRwDtiwZwc/3bbTnLESIaBRVMrLXkV+LxtIdWONg3Sdu0row492QFlKGzdnb0JC/HbVZldhZ3IRN0+xko6zMMxGoKGjAOidLMDqGcLBehpaCUsQ//YArqYchFtJ60F/5vkWxoFgQA8QAMTC6GRjxsicGbKwVIiOWoKb1B1y+041rX2zEjAl9xYDntBVnVK3G1XNB+d5bEJ7Zg7fiYxFj6Y9Y75XYd12oRPbU5KPvg00HhbhelyIf0VJyzZ6mZVa/8xiBq28M3pj+L64+W8oeHECR7NWrlL0FfWSvLXUhclKq0Z63CtnGU2UCJ66LriVSp+9AW3YpMhkP+Ex0gI9xMlblNfaRPY6OOWIit6M1PQVuemaIja5FU3wE7EnWBrdohuJF8SIGiAFigBjQgIHRIXusilhZlOHbW0IcKnDrM7LEs9qAE4I/0e4vvQaPJUFPpeO/f3fjl6U+8t+MS0DbJUF/2VOXj641ln7cBeEXy+AtHV1UJXsalFmd7I3YaVzRffb0rRAX9hZaCt7EIlPWLVz0/bGkoAmb3OSjeBx9TxQubFCQPQPwjOZiW/Em5JiGYEluHcr5rHxYsVMXI+l31pPjkJeciIDxrDYfZB7SvOgvxZAYIAaIAWJA2xgY4bJnhhkFzdiWnYn0aSGIcYjGvIXv4IzgFj5Ps+k7qvTcbLx3rQfXP9uMgqAEpIctxMo4P/BEJ319d6zZ3wnB8f9gVXg0YmwDEedVgc//6j+yx1GXj44RfLP343b3ZexbMR8ZXrFIj67GIQF7Ne4gyqxOSB7hNK5ohW6Q31u9CzScghA2JQSzIzeqWaAhmtblIjp0E1rzV2HOaxLB1rXGrBn1aMvKR5q5O3xedYSvcTIq+o3siX5vjVmp9WiYvwWNecWIG+oU7hh/VB7uxn304Pz6cFqgoY4p+o5GAIgBYoAYeCIZGNmyp2uJtCXv49Cpv9Ap7ME94R1cP/UjPlqRCu9+CxSM4Ru9HV+f/At3hT0QXD+HA2uS4Si5ts3SNA1Vuw/h9z9vQyAUovPmNVw+dgAdSY7y0T7xTqA+H84YB2SU78HxS3fQ3dMDwa2/cOHwftSGiK4/E0nMYMo8gnpPelyEuRVj04IdaCvegZr0ImRN5slj02c1rqTc+naYlVKH9nkLES6RNd6L/siOXoNti3agtaQRLaLr9jJXo4jH6yvnOoawNs9FXWkz6kJ85NPigz0Q6Tmi5J2ruHf/Hm7smDH0fAa7XUr/RB4wta23T/UZQcdgOqbQMeUhMjCyZe8hVpwOco//IMdMSMaGgvXInvQg1yAawdmtEkdvXUBHIIcOFrTPEAPEADFADBADCgyQ7CkEhCTw4UogM84KPq85wsc0GoWza7E91B92Q20DXUssaryIztvnsTc3FPbDuEKZOHi4HFB8Kb7EADFADDw6Bkj2hioa9Lsh9Zx4xpmoKmxEa34l1gVHwLPfdPxg4DeCm1UUwiYqWZRD7TOk9qGD72D4o7TECzFADIwOBkj2SApICogBYoAYIAaIAWJAixkg2dPixqUe1+jocVE7UTsRA8QAMUAMPEwGSPZI9qg3RwwQA8QAMUAMEANazADJnhY37sPsJVDe1AslBogBYoAYIAZGBwMkeyR71JsjBogBYoAYIAaIAS1mgGRPixuXelyjo8dF7UTtRAwQA8QAMfAwGSDZI9mj3hwxQAwQA8QAMUAMaDEDJHta3LgPs5dAeVMvlBggBogBYoAYGB0MkOyR7FFvjhggBogBYoAYIAa0mAGSPS1uXOpxjY4eF7UTtRMxQAwQA8TAw2SAZI9kj3pzxAAxQAwQA8QAMaDFDJDsaXHjPsxeAuVNvVBigBggBogBYmB0MECyR7JHvTligBggBogBYoAY0GIGSPa0uHGpxzU6elzUTtROxAAxQAwQAw+TAZI9kj3qzREDxAAxQAwQA8SAFjNAsqfFjfswewmUN/VCiQFigBggBoiB0cEAyR7JHvXmiAFigBggBogBYkCLGSDZ0+LGpR7X6OhxUTtROxEDxAAxQAw8TAZI9kj2qDdHDBADxAAxQAwQA1rMAMmeFjfuw+wlUN7UCyUGiAFigBggBkYHAyR7JHvUmyMGiAFigBggBogBLWaAZE+LG3dYe1y6ZnDLmIeU+dPApZjRQZEYIAaIAWKAGBg1DGiP7I2fjHh/BtETRseQqsYi9qwl3EID4DrR8PFCpWeJiH0dKNsdBh7t4I+3LVjxt7RYgPZ9Z3Gzswf37wvwTZYtGNb3GnNGvxkxbUptpmXHcNq3aN8aAQxojezxbO3x2+/e2G6r4kAxfgoKV7rj1LEAdJ7zx9n3nfGGs7HSUSrrKTzs/ioQ5yoswFfRSJqkGY6DNuM0D4VdVUhyMnq8OwzJHvhMOJI/rMTi2+1Y8UclstYGw35cf954UyOQdqIVxW95KOVLygWPn4isS7tQ9mM6nPT75yNNp/qvObKbb0L4cz3mcRzgNskGTs88Zk5U7C+q6zCUetNvKJ7EADFADAyGgSdD9nSNMXezL7p+ccOWiKmIdmCwZrsPOk+5o3yyfMSM97IZcotccfJUIAQXA3FeiexpkmYwDTBQWpK9kbFDM0YRmHOxFQVt0+Hj4ABnz2ikHm5C3mr5tDbzL2cEli9F/t+7UN69S63scafGIvPCTpRcaB267OnaoWxvF67VJMOSJOvxdoYo/hR/YoAYGMEMjHzZG2OC9BwX/PSDPzovBOLOST/8+sE0VHoZ905XjbVA48FA9PwRpPAKxNWNnN6T4PM8fHw6EAfnTZaPtDzLwe6jgfh1sblsWjIi3xPn3nPGm/5c7PhKuexpkkYscLomyFrjhb9OeqM10GTwU2tjPZFyfhcq8G+F124sqfWT12MMD96LFyPnXDPK7jah+NtSxPrz5NvTd0TcoQ4srvaR/+apUGTc7cCCRZbydDrGsPNNwcyP30bJzXaUCVqx9EIlMnOdetNIRvbKr21H4R+tWNHVgtIjKxAfymflYQDmOSeEVK1GwZUWlHV3YPmNehR9mw3v59nSNsC2dAzAvDQN4RtLkX2wGiXXWrCiexdW/F2HuTmsaUo9C7gvyMO8wzVY1tmGJafXIT3XHda6rG0NlEZ3KnxWliPnWA2W/COqdwtKD61AQrilPF46pvDcUoOyw3Pg+pQ8b37iMiy/nAdv8WdGcFm+AcVfFSE6LBTJJzpUyh7zgieSDtVjQakbfLfUYsVQR/b07FH+WReuVieS7I3gg+xAHTr6Xr5PUSwoFsTAw2FghMueEaaXeaPzrDfey+ZhlqsFZkU64NCFQHw/x1RyMjbCNNPJCIt0wvkLvuiINEOw+WTxK+AVQ7GIMJMs8fXvgfgiSSKIohODrgmW7w5EZzMfTtITha5Br7iMMUe1CtnjaJJGlN/Yqaj7TiShgThXPlXldLBqsE1hY2YL54R8FAtqMDPBAY4cW/HLYdJkiWCZwXPjFpTdehvpi4Lh7R+KqOZKLO/aiuleZr29LI1kzxC28aUoEbah6MNsRCQHwdvHB77J8QhyNu/dlnQa93AeQiJ94RUYjrj3alB2azXCTaWjo0Zw37ANZVdWIT7RG272rnDzCUJwhh8cZNOUGmxLJHucmVgkaEVOVTwCQrzh4e4Jz9BQeFmYSHqPk+FWsQnLr61HSlYA3B094Fe4FEV3mzB3tlRiNUgjrdf3CxAY7APPkEjEfVCL8ttrEWkumRJ9ygczLrdjYb41GF1zuGUXYsHJeiy704HyrjcQbiCpv24vb5wxrkg8rkL29BgEtNaguCUUtnpG8Kx8ENlzQMXnXfijKoFkT7oP018aXSEGiAFioB8DI1r2mFf4+Px0IH7ON5PL0jguPjzPlr1eC1Z7zd4YM1R+EYi/P7BD6iTRCdkQdq9PRdWeQHR2WMGNPRIkgkSd7EkhGjCNIdxcrLCl2ArTH2BxhbppXOb1OMy93YGcEjuJ/InKbo+YHzqwfE8cbET10kT2xnlg+uldWPZxPOxlUqbQu5BKEWuBBmOUhPmCdsydZSHZvin8WppQdmwhvCaquHZMk23JZK8BM4OM+0ErEmTm1Rhk3WrCnOnSbYvKa4bAXc1Y8UUS7PQ0S8NRVi/DRMzvase8TEZcL7F4dtUgxcsE1vGLsfjuVsxMdYNrxlIs7XoTkaxLAcTyrlL2DGE7fTlKT+XB+2WRID6Y7PEMF2DPlbv4MU8+lay686DQnlKO6a9SviiOxAsxQAxoEwMjWvYsPR3xxwUf1DlKR44MwBmK7OkYwM7KCu/v94fwSiC6LgRCcNofNy4E4sZWBlaKJ7wBRU5DIVTMdwj/Vyd73IB8LBZWI9mFLVZGcFtXjbLLefASLR7QQPYYsxnI6SNtSnZyJVLEGReAtL86sKhUPrXKs4jGrOOtKL+1HQuasxAWZAu+njw/jbalgexx/fOw+N5ulAvasaJL/irr2Y3yX7PhNsYAmqRRJnuccX6YeU1Ur16J5vrkorRrI2IspiLonVas2BMrFmlx/oOQPWZCENJ/r8OsOKmgDlX2TDG76iLudt9H5/frEfOMPL7adHCiulC7EgPEADEwPAyMbNnzcca1Cz7Yxl5hq0b2TqlbjSsWLUPYv2oKf0MTOJpb48DvAfg6TTodzAroiJK9uShQsRpXM9lzQOzBDiypY13np3DNHjMlBQsF7chKk0zZKpNSpbLni5l/dCB3ib18ZFH027EWcIlIRGLrOpTc2YXFX2TAY0KvsGu0LU1kTyy625AaJ5/elk5zO03hiK/D7I2P+jTKZa9vvXhhRVgmkropNoj6qh2La3zFlxAMVvYsp6/Aivu7UKYop/d2oezWSoS+xurUKGsD1mfW/3JGREQNfrl9CbuDOTQ6xYoNnRxYxzKKC+0bxAAxoGOAES17XFMb/HghEN9lsIRMlexxbXHsgh9aPTU4YY6bgiU7/SA47Izsl5QcGIdF9kTTuJaofNBpXKvZyBPUY4Z//+lMjaZxdTkI/bgdZV8ki6c2xSdCBdnjjPNEytldWPJ+DOwGMY3LGddXipSdZLkWKci+1YGcApteIdRkWxrIHvNaHObd7kD+KlfZAhvF7WuSRhPZ4/rlYXHXJsTyOAh+vw3Ld4WKLysYrOwxz/Nk1132iqkDglvqUfbzfPgwfFiqir2qg7WeC9bs78KFjVHyyxxUpaXP6YBPDBADxMATy8CIlj2OngkKdvhBeNITrekMZvlysXyxGy5c6n/NHudZLt49Hoir/7FDvo8F0vz5qAg3k4mAzaQpiHVhkD/HHh/v84fgpAeqprEWbIh2gqdMEGBhhjAeDx3fB+LSFj4iOVMQLL7OTyKFmqQR5cVaoHF2SAs0JNt7Lhizru3Cks8yERTkDa+wSETEOUpG0qbAc+NWlN3ajPS8UHgHhSGqRWGBho4h7LNXY1l3HeauiICPlye8orORI2CvxjWEXeoyLO5pQ9FH2YhI8oeXjw+8o6IQHiUZtdNoZM8UHgV5SMgOhdc0V7g6eMBvYSkKBM3ISuu9/o0jul5yoG1pIHscnclwX7MZK4T1WLAlBYGhPvAMCELQgkT4mEiFX4M0GtSLMU9FTlcj0sMmw37+G1h+rRzhFibgiUYX2dO4T3PgwHOAs3U4Zp7ehdKmaLjwHeD0unRBjWLHYqjTuJJ8aDXuE3vgVuzY0P8V9y36PzFBDLAZGNmyJzrpv2CO5W954OzJQHSd88dv//UUy16f0T5Jb8U3xAH7v/bD7QtB6Dzpg++XcOAoWXwRt9QHd0774dyn7nhniSWSJ0mFQA4Ez9oOJy/2v4XLlTctZKsdNUkjDrDk1ivXh3rrFVkPzAj20fMx72QDVgh3oez6NixY4wtL6aKSMTz4LFuK3AstKOtqRsmBJYgN7Hs7FI7o9izly5F3qRVlPbuw4lYDig+vRlKI9NoxUQxMYB+Uipl7K1H6TzvKezqw7PJWzF/r13srEw2kiKNrAc8lS5FzqgHLhbtQLmzFklPrMXtFAOzGyuM84LY0kj0DcPQs4DZvEeYdqcOyrl0o72xCyU/LEGHNuoZxoDSa1GusK5JOdqC40gu8p+wQ2lqFZd27UNa9G2XXViBEshqXsc9EQXf/W+X0ue2NrF1F8SDZYx+M6D17H6H3xAMxQAwMHwMjXvYUG5traIXvfw/AhxGsE3qfE+jwBUdx2/T/JzW2RnAq2oAVN1YibIqIO0NwX+bB7nVz8AY79TqcrOraYsWnXbhRlyLrjBCjTyqjVG9inxggBlQzMMJlzxDR0dZYHMrBdMepmOHPx7bdfug66oIFL6uuFDU4xWbYGRjvitivm7H8WDHCPSzB1zcC718MrFk3WR72bQ4ohpORVn0FwpMtyOHR49IeffxpP6OYEwPEwOhgYGTLnp4pctd74uzxQHRdEk3N+uKXFkeUWipcazfgSXF0NAbtNCO7nZgXXRHe8BaWCHajXHTbl57tmO7+eEeYuYZpqPvkNG509uD+fQG+yZLfBod4Gtk8UftQ+xADxMCjYmBkyx5JHF2APgIZYJ7lwN7MCnYvD+ExeCOwPo/qYEPboRMbMUAMEAOPhwGSPTr5klASA8QAMUAMEAPEgBYzQLKnxY1LPajH04OiuFPciQFigBggBkYSAyR7JHua9eZ0LRCbthmN83pvKDySIKay0EGVGCAGiAFigBhQzQDJ3pMie886IyE0FTET+99fULqD2HtX48T1azhYEtT/iQx6Tli1TwjB7rmwVhEz5pVC7O+C7J+6tNJtjoi/unzMTNmJ7X7u4Oq5I2/+Tqy15/Z9BJyKOj/W8o/lw8/MDz7PqG7TR1a+0RrDkdiuVCbNOqAUJ4oTMaAxAyR7TwgsPKcqnO06jVqn/o9d6xUCQ7ilfYrb9+/hesNM2CrGRQPZ4+jz4MP1RbhlAqq+61Yrho9MQhTrofT/FpieVI8qHxdw9VywMKseq23YN5xW3Vt6nPXgvj4HVcWbsPB1FSuCx9ohwb8MVbn1aC2qxbbUPMwymqpUYvkvh6IkSyK8SmNkAPVpRmcMH2f70bZH5n5F7ULtoo0MkOypOLFpW2MPLHsG4Ohy4G8fAO/xSnZ2TWRPGkvxY7zUjwKOrPhORmx0HTY6W4PRtcGc9Fos45hq3GN6XHVRL3tTERlehfZFZchm3OBj4IdZUW+jraAcM1+WyyH3GUfEeZRgS0ET2kuaekc3pe0o+atJGtHj60ZjDB9X29F2lRxjFLijGFGMiIHhY4Bkb9AHGKrD9/oAACAASURBVFN4+ZZh18fHcPlmF7oFnfj7wgl8lhsgew4vZ4wDZi9+F0fO/QPB3b9x8dt38Ja/g+x7nl0ZPv/5D9zuvIO/jn2OXVs+xLErt/DP2W+wI8QWXFGZdPnIWP05fjl1Fbe7etDdeR3n9u3CWi/J95JyM69kYtfhS7h5pxv3hJ24dmI/2tL9YSd9nNrYWDSf75FNrcrf3MP12uniJy9oNP0qkb2esz/hu2PXcFdwF9dPfImmFB/YKMZwINnTs0TSgmZ8ffgi/um8i5unf8C7uVFwkZZZMb+H/n8jBPiuxzKuSPCmIC56AxYZsoRoUiIq5lSjuage9ZnLURRYgrdzdqAxuwI5Zr3P/GWeDkN5YRO2ejn3tp+4zKaICNuO9sxZ8NEbxE6rx0WoayE2ZteiraQJrflV2DpzCbInS0bl9DyQP78Juxa3KLyasTPEp5ezcaEoK2jEBpHASuM3zhclOY3Y6i0toxG83N/A9tQ8zDYPxqKsRiWyp0kaUd3Ux1B20Na1wtytx3Hzxkm0R7DKJi0j/R3xnQxZW1JbUVsRA6OGAZK9QcFqBI/4/8Ml4V38/mE1VianY5ZPIuYml6DAWXqNFwepG3+F4NYxvLMoA7P8M7G2+QQ6u06hwYsjBsMqbDf+7voBW71CMX/zCXR3HkBVYDQKd5yG4NQ2JIqeIyuRK+G31VjgG4vU4BxUvnsOgs7jqPOYKgdsrBvS4lMxwyUYMa7TsbT6CG4LT6POVToyZYZpZh4IT2jFRcEF7E7wRTDHE8EcDwRMMu8VAX0GXhaeCGZisPVbFSNykvLcu7gf9fPnYk5ABlbWHMGt7kv4vwiFZ/GqlT1zJFQcxZ1rP6I5KxVJjtGYX/gBzt+9iX2znViiNAg5GlQbKs+X96w1nMeKrn0zhNUL1rAfI0/HN89DQ/EqZBu7ICpgA9qLViN7sjsSQjehdW4m/MUix0FyYj3a0qbDTSqt4inhJtQFefW/BlJlmacg0G8j2go3YplzCEKNPRDKnYuNJY1Y5yiNsynsX7KBJzcH24u3oJhrD7cJNuKX67Om4jZlnovF2uIGrLJiT9tyMCO5Aa3xkaxpesNeBvScsUCp7InioEkaA6iLoUwQxkai/jdR56MHFzZGDSIu8vaQ5aUyhpSWYkQMEAPEAJsBkr3BnDDGRaPhdA/++bgYviqeicq8XoT9t4U4UuIlG8njjPHGxh+E6NxTCHddA4hlr/Mj5D1rAMuQDtzs/BiFzxnAMrAVf3V+iuIX5bLXZ5HDOH9U/iTEnQ/z5UKhWP7xs/HeTSF+yp/WR5w0msZVJ2nKpnH13LD2KwG69pbCiz1ypSYf5tU8fHHrJv433Uo+4qTDIHfXPxB8sRTe7HwU68b6v7g+3fJxSva7e2dqkCwSZlb6B3kvlr2iUsSNNQDPLBcNRYuRIHo/OQf1RUuRKH5kmiEcbZajpXgl0l/sXTDBvJyMjcWiKeEpGpeFeTYKqwoa8ba7g7z99IOwvIgte711UzuNq+eI7DmNaJo5C8HPiW7+bASr590xP60JrUkxcFCMjVrZk8RSkzSK+fb7vxHcPEpRVbEYKa/KR08fpH3ot8PHOsWSYkkMaCcDJHv9TkaqG5prVoFDAgG+nGXJEpW+6S0DWnBNeBY7XExYJ3gTJKw7g+7LzUgfpyB7Qe240fk/FL1gAEv/Zlzr3IvSlw1lI3t9ZE/HBAnrz6L7chPSxvVul/tKNFbXfIkTZ67i75t/4fLJ33FD0I1flnjLZUHHAA9F9nSMkfDmaXRfacYsSXnEBwo1sieu47176BEIIOiSv4Q999HzazUSWCNqag86420RbB2AKJv+r0jGDrbS0bVBtK+q7fWRvSmLsLNoCRLGGYBnulAse0lPS+TumQhUFDRgnZOID0M4WC9DS0Ep4iXfq8qf/bk4z5LKPtPInKHIno4BrCbFYVlmLToW916P115Yg8biZjRG+Ms7ItL4aCJymqSR5kd/Wft/32MEu73pPcWGGCAGHgUDJHuDOClxp5ThoECAL9J4amXvL5Wy19Rf9gJbcO3WHhQ+r4nsKciVngvK996C8MwevBUfixhLf8R6r8S+60IlsrcVZ9SuxhVdJ2iHss/UT+P2k0+xxPbWSwasOtkTy/A5dMT5SKaTRVPKktcUa5W3dZHlLWsvI3D1jcEb0//F1R/eEaM+sjd5IXYUlCqVPY6OOWIit6M1PQVuemaIja5FU3wE7GVlHvigxhPJZMkmLGCvsB2i7PXGzAhWz1rC9QUGNhOSsL54J9baSS85YJVHE5HTJM0g6tq/TVnloXxIFokBYoAYGDYGSPYGA9O4GDSd7cHN9/PhPUzTuOwT3oAje6Jp069Z06ZPpeO/f3fjl6U+8lG8cQlouyToL3tWG3BC8Cfa/aXX8ik5seryUPKBAIJPi8XTzeyySa8h7CN7Y32w6YAQnR8V9J1W1rXCkj0CCPYUwFVhhI15rVA8zX1yVcggxK5/WR/XNC47Jooje6LveEZzsa14E3JMQ7Aktw7l/MHdwoV5KRkbihvwpoP0+jwDqBzZeyUNm4u3odBU1e10WHHTt8H02G1oX5iPKGUjjZqInCZpNNifrCfHIS85EQHKVn1r8Ht2G9B7VhtT7IbtxEhcEVfaxgDJ3qAOkEbwSf0IV3vu4vePtmFlUirSfRKREZWDsihvydSYBVI3noLg1nG8m5eJjKC5eLPlZP8FGpJr9thAKZO9e5e+Qv2CecgKysDK2qN9F0Tou2PN/k4Ijv8Hq8KjEWMbiDivCnz+V/+RPc5zs/HetR5c/2wzCoISkB62ECvj/BSm84wRs+okuu/8jPaMNMyJzEFFjG9vGumCke+2YaFvLNLCclH17ll03T2Jei8LhYOsCZI2nEfPrUNoTE1FRuRClEVK4zMVyWuO4a7wTxzYUob80ESkBaSjcMESzDEZxIjcY5rGZbeXMtnj6FpjVmo9GuZvQWNeMeKUiZU65nQZJMRsR0f+GhTaByB0ShBmeC1HbWn/a/Y4YwOxJLcJO6fPRvwUT4SYh2MmI7/Wz/I5O/ga+SLeMRNlc2rRnrca843ZCzYMwBljAdd/2cPzlRAUz2tCXUQEvCfawe253oUe4vpqkkZdndjfjfFH5eFu3EcPzq8PpwUa7NjQe4XjCAkH+3hD74mHB2GAZG/QB9jJ8A1ahX/vPYk//xHgXo8Qty+fwndrU+AsHcUa44CMZe/jlwu3Iey6hcsH3sPbgY4ysWIv0GA3njLZ6zl7GD/+egMC4V3cOPklmhVudWJpmoaq3Yfw+5+3IRAK0XnzGi4fO4COJEf5aJ+4jsbwjd6Or0/+hbvCHgiun8OBNclwlJZZEgdmQizefv8UbnR2Q3Djd/y0bnpvGtGtYN74EifOXUenoAc9nTdw/stdeNPHTlYvdl24r81AzSdncPNubz4H35TkI9qOniUS5jVg/5EruNUlyusmLv30EVZaazBCNej2evADBHsal11HpbKnYwhr81zUlTajLsRHfGsb9m80ec885YwZoauwLb8B7UU1qJqxVix7bzooXj5gBBeLLLwxdztaSprQlrcZ67y9JbfCMYKfzya0FmzH9tllWOIdjcDn+seXO2k2tpb0v4XLjiD5AiNN0mhSL3EaPUeUvHMV9+7fw40dM4YUH4239RhYobI9+P5GMaQYEgPDzwDJ3kg9IShb/TpSy0rl6jMiwUxIxoaC9cieNIiRSjUxZF6Ix7riHVjOaL6qd+QeLI3g7FaJo7cuoCOw91ZEI7esw3/ApbpSTIkBYuBxMECyp+Yk+zgaRLZNkr0+AiWLywhtL2acFXxec4SPaTQKZ9die6g/7IZUVhP48JKQzPFGoOE0BJlHYUFyNdpzChE9Ep6BO6Q6SQ7uupZY1HgRnbfPY29uKOwVRpVHehtT+egkTQwQA6OVAZK9Bzl5PczfkuyNKtnjGWeiqrARrfmVWBccAU/F+/yJFzcoe+qFdAq1CVXeLuDq8hAXvAbbcneivbQJbflb8XZCNpJfNVO5Anz0HHyM4GYVhbCJahYJPcx9ivIeVfvU6OGaBIjaauQzQLJHJwA6ATwSBkzhMMEB3q86qng5wO1ZkiA6aYz8kwa1EbURMTD6GCDZeyQn+tEHBu3M1GbEADFADBADxIB2MECyR7JHI3vEADFADBADxAAxoMUMkOxpceNqVY9M1wbRHnMxe7LCfeKo/egATQwQA8QAMUAMqGWAZI8AUQvIiBFGFY8MGzHlI45GB0fUTtROxAAx8AQyQLL3BDb60AXJHH4OediQXYu2ojpsn5mLtNfNB79KVNceWbMVV6Y2oJyn5j5yJHt0gKZ9lRggBogBYmBIDJDsETgagmMIJ6sl2FlSjdWeYQibEobspGq05y5B0vOGGuYhudBVzxU5cxuw0csLXhPt4Sl+2cFpnJp8SPYGF2PimuJFDBADxAAxIGGAZG+QOwPzUjhWbHwH3xw8gyvXbkPQ3Y2uvy9jf46H/PFkepZIWtCMrw9fxD+dd3Hz9A94NzcKLuybyI6xx6zSd3D4zE0IhN3ounEFp7/5BFsD+IMfKRtkHTQb2TOBw+uhSOM5SJ6N64jsOY3YGRUMW8n2mKdDsDyvEZUevc9jZZ4LwbIFDdgW6g97aZrxASidvxNb/TxgLS2nvg9KcneijKvmViNjbRHvtwJVuTvRJn5k2BpsL2E9H1aXj0j7KIS8NHngeOlaYe7W47h54yTaI6wHTi8tJ/2lAyUxQAwQA8SAFjBAsjfIRuRy3sBRQSeOVBVjUUgCUtxjkBaahXSLyZIdwhwJFUdx59qPaM5KRZJjNOYXfoDzd29i32wniRBaIGXDSQju/IoPCuditlccZifU4IhQiAOLnOXSOMiyaSZx6peRM2P5CLKejWXp1WgtrsHmkBA46RqAeS4Wa4sbUGE5Fa62S1GXU460f3GQnNiA1uQYidwZwsZkHrYWbccqW2twdRnERVWjZdYs+LFvMjwuHBVF27GUZw37ccZK5GsqosK2oD1/LYocAhFqFoKZfmWoK2XJ3jhPZM+oQmtJLbYmZCPNzBY2bJlmx25sJOp/6wHQgwsbo8Bnf0fv6UBODBADxAAxoOUMkOwNsoF7Ze86/h2kfFSKeTUPX9y6if9Nt2JJDIPcXf9A8MVSeOsZgJmUj323hDi23F8uHk9lYs/dwckez6kKZ7uh9N+9MzVIZguW2noawnqCD2b6LUFlXiOasytQ4hYG/+dMZAcA7quzUFm8DUWmpvDx2oj2kkosMpyMsNAatGWkwVNPKpEm8HZdheaCtSgOWI76gpXImCjPRySkzEuxKJ+7BXX5O9GxuBENmUuRw1j3jiCKvn8hHmuLGrDOyVIeQ6XTuEawnRiAWQHLsFVU7nnlKHIJgvczis+kNYKbRymqKhYj5VXF76Tlpr/D0VmgPIgjYoAYIAZGHgMke2olqH+DDSR7lv7NuHbvHnoEAgi65C9hz330/FqNhDEGEKcRnkf9NJYEDUH2OONtEWwdgCib/q9Ixg62qka6FOrMTEjBxuJmtM0rxRwzG1gr+Z1c9ozB0TWD0/Pm4OoYK5E9A3B0LTEjqU4schtd7dSMVBrC8nkXJASuRVPxZuSb9C7Q4E3Owc6St5HzOkvMlMqevH1EI5KBtjl4u6AZHQvnI0Rf/h0deCgWxAAxQAwQA08yAyR7CuIzEAwDyl5AC64Jz6EjzgfBHM++rynW4uvWLIPacUN4GjVOxrKRM85QZE/HCFx9Y/DG9H9x9VmiNEAdmXHOSAlcjqqCJjTPLUORazB8nmWVTTTaJpvGZa++naowjdt7MGFejEBZzk405O/sP4WrrCx6blg0rwn1wV7i0T3e5IXYUfI2Fhmw6qBS9oxgM8EPM/0WozK3ES0LVmGxqxcclQjrQG1L39PJgBggBogBYkAbGSDZUyYfaj4bSPaY1wqx/7YQJ1eFyBckKOTHNavAT4Iu/LCQdX3eEGRv+KZxJZI2zhqhdpkoz6hBe3E1NkXPQYqJJSxF5deTLNCIDGIt0AjGslz5Ag3xDjLGEXNS67AzMRbuL0egfFEDqgK9Zb9RuhPpu/eRPebZaKwubMTb7pLFIaLtK8qeHgM/XipKU7agpWQHtiUvxGyOA+xk08l9D1jWk+OQl5yIgPF9P1daHoX2ojQUM2KAGCAGiIHRzADJ3iBP7APJHkdnKpLXHMNd4Z84sKUM+aGJSAtIR+GCJZhjIhmp0rND4X+u4d6NQ2jPnoXZwZlYsfpzXO4Z3DV7wzWN2x/gyXAyikB25Bpsi4+BozhGhnCyXoqdJVVY5R6KsMmhmJtYJb71SvIL0lumTEag73q0LshHzHjRZ4awZwpRV7IFxWbSJ1+YwM9mFmZZ+iPU2APB5hGYG7MJLSXyaVyOzhQE+W5Ea1ElKjwiEGniiRCLTGwsZi3QGOuLosz1qPCLR/jLZvJr+5S15xh/VB7uxn304Pz6cPl1ksrS0mfy0WaKBcWCGCAGiAGtYIBkb5AgDyx7olEwSyTMa8D+I1dwq6sHPZ03cemnj7DSWj41yrwYghV13+P3GwJ0d17H2f1HxLL3w0JHNde4PfqeFaMrFTnRtkU3Vc7Fxvk70Fq8A7Uz85BmIJ/W5b8+G5uLtqDEXCp2ouv3GCTG1aBtbhYCxQtGpiLUvRQbs7ahqbgJbQXbUDWjEFnmlrIFGmL51GMQ7JKPdXNr0FrShPbCGtRklGHhFGnehuoFj92ueo4oeecq7t2/hxs7ZvSOVLK/p/dacTDr32l59PsLlYFiTgwQAyORAZK9EXKi55osw4Gu29gTb0En3mFvEyM4u1Xi6K0L6AjkUHyHPb50cB+JB3cqE3FJDBADUgZI9h7LiW8KYpLLsSQmGSnTIpEalo+aT/9A95V3sPBf7JE0AlUK6pD/6lpiUeNFdN4+j725obCnhRsku49ln6d9ecj7MLUX7bPEwAMzQLL3OCDSc0Te9p/w+7VOdPf0QHDjEo5/uAOLbRnNpyYfR7lH5TaN4GYVhbCJyu+LSCcgkhBigBggBogBbWeAZG9UCgztmNq+Y1L9iHFigBggBoiB4WKAZI9k74GHh4cLRsqHDmzEADFADBADxMDwM0CyR7JHskcMEAPEADFADBADWswAyZ4WNy71joa/d0QxpZgSA8QAMUAMjDYGSPZI9qg3RwwQA8QAMUAMEANazADJnhY37mjreVB5qbdMDBADxAAxQAwMPwMkeyR71JsjBogBYoAYIAaIAS1mgGRPixuXekfD3zuimFJMiQFigBggBkYbAyR7JHvUmyMGiAFigBggBogBLWaAZE+LG3e09TyovNRbJgaIAWKAGCAGhp8Bkj2SPerNEQPEADFADBADxIAWM0Cyp8WNS72j4e8dUUwppsQAMUAMEAOjjQGSPZI96s0RA8QAMUAMEAPEgBYzQLKnxY072noeVF7qLRMDxAAxQAwQA8PPAMkeyR715ogBYoAYIAaIAWJAixkg2dPixqXe0fD3jiimFFNigBggBoiB0cYAyR7JHvXmiAFigBggBogBYkCLGSDZ0+LGHW09Dyov9ZaJAWKAGCAGiIHhZ4Bkj2SPenPEADFADBADxAAxoMUMkOxpceNS72j4e0cUU4opMUAMEAPEwGhjgGSPZI96c8QAMUAMEAPEADGgxQyQ7Glx4462ngeVl3rLxAAxQAwQA8TA8DNAsjcE2bP3rsaJ69dwsCQI/CH8Xgbys85ICE1FzERD7epRaWu9NGnrJ7juPKdqRH57DeEZQWA0iRWl0a79ntqT2pMYGLEMkOwNGk5DuKV9itv37+F6w0zYDvr3cmPnOVXhbNdp1DoZj1hAZGI6iHpqa700icWoq/v4ILi98SOiv+1E/JcnEDInBjxdOaOa1Lk3jSH4UZ8i/pd7iHtjJriD4EXzbQylXPQbii8xQAwQAyR7Qzkp6XLgbx8A7/EPBtCoEwMNY6Wt9dLkgDm66m4M24UnkPDZR3Cz8YBtxH8Qc+hX+PCG2PnQ5cCaFwCrpx9sv9AkzpSGYkwMEAPEgOYMkOxpKDAiqJhXCrG/C7J/gt1zYa34e10+MlZ+ikPHLuL6P13oFtzGH4c+RnW4s3zKd2wsms/3yPKRv7mH67XTYSnNU88SSQua8fXhi/in8y5unv4B7+ZGwYU18sK8FI4VG9/BNwfP4Mq12xB0d6Pr78vYn+MhG10ZMI2+HzYfEuJqdaJ8209lYs9dIQ4scu7NR1Sv1Z/jl1NXcburB92d13Fu3y6s9bKVbYejab2k9VP1V5NtidsjE7sOX8LNO924J+zEtRP70ZbuD7tBxoczUJyHs01V1fmRfG4Ch9dDkcZzAE+8PXO4bLqLxM3ZvW04sQRhB8/D19ZEPtKsy4fjos8RuecqEg71IPHgdUQ37oKHo608zYRChB4Cko71vhLfmqt8GlffAY6Z7yLi03+Q+NPfiGl7B56uDvJ8dPmItI9CyEuTlf+eHSNdK8zdehw3b5xEe4T1wOnZv6X38phTLCgWxMATwQDJ3mBA12fgZeGJYCYGW78VQqns6Tlh1T4hur+vRV5wItJCFqLyg0vouf0dVptLR0zMMM3MA+EJrbgouIDdCb4I5ngimOOBgEnmkhOXORIqjuLOtR/RnJWKJMdozC/8AOfv3sS+2U4yweJy3sBRQSeOVBVjUUgCUtxjkBaahXSLyTKAB0yjiexJ6iX8thoLfGORGpyDynfPQdB5HHUeUyXb0qReGvRENNqWAThj3ZAWn4oZLsGIcZ2OpdVHcFt4GnWupprXXUeDOA9bm2pQ98HwqGFaZiwfQdazsSy9Gq3FNdgcEgInsRAbwzrtABI+2w2nCY5wqjiN+MYyWOuzyqnnBPdGIRLbquHsHAsHjxx4VZ5D4sHj8LGXtLs+A0tTT1hPiYF3mxDKZY8Dh+JfkXjgGAJTM+DomgmPtSeQcOgUfB05ve01zhPZM6rQWlKLrQnZSDOzhQ1L3Pv04sdGov43UYepBxc2Rsk7UhrGpE9e9BvZ/kJxYbFPXBAXWsQAyd5QGlPPHuWfqZc9tghyDRfjuy4Bvsq06TMCoW7Kj3k1D1/cuon/Tbdi/YZB7q5/IPhiKbz1eg9KvSJ3Hf8OkguO4gF7wDSDkD12vTjj/FH5kxB3PsyHG+ukrK5e0rJxn7GAw4tcOIpeL1j0EwyRMGuyLWl+4r/jZ+O9m0L8lD9NQYZVx0ejOEtkj12eobRpn7Kq4E4cu275WC/73b0zNUgeq+nJyBDWE3ww028JKvMa0ZxdgRK3MPg/xxq1E5Xh2RT47+1BwvfXEbNtLexfMgZvkgespOmksscerRvrD6//CJGwLR+WrHbn6NnDrV6F7L1ShNAfhYjI8JKfQPS94dkhRML2QvBl+RjBdmIAZgUsw1ZRueeVo8glCN7PGMl/J46dEdw8SlFVsRgpryp+p2mMKJ0mTFIa4oQYGP0MkOypOOmqhXuQsscZl4J/XxPi51IvmYSI8lcnRZb+zbh27x56BAIIuuQvYc999PxajYQxvfANKHI6BhgwzVBlT8cECevPovtyE9LGyXcGdfXqjasJUisv4Z7UZHouoMmTJSFK5IqjZFvcV6KxuuZLnDhzFX/f/AuXT/6OG4Ju/LLEWxbngequUZyVlWcIbaqWKSmH420RbB2AKJv+r0jGDrYyKZLHW1m+zIQUbCxuRtu8Uswxs4G1st/p8uFQdBRxuz9A8Ls3Eb1mLqzGWGHa9k5EZPn0ypUy2dMxgV3hWSTua4IDWz7VyB4zrQWxR87C15rVzqJ8Cs4gcV9z33wksRCNSAba5uDtgmZ0LJyPEPaIozRe9FdBgtVzoYwV+oxiRgxoPwMke0M5WejaoWwQI3ucccnY9Yewj4SIdi6e01acUbEa1zKgBdeE59AR5yOZ4hVN80peU6xl1woOJDOi7QyYRt8Hmw4Kcb0uRfU1e8qER8cYCW+eRveVZszqI3uq69V7UDGE49RwzPCKQ6r4FY6AF1i3n9FkW3ouKN97C8Ize/BWfCxiLP0R670S+673jfNAddcozsrKM4Q21eyAagSuvjF4Y/q/uPqaj2Ax45yRErgcVQVNaJ5bhiLXYPg8K72MoPfAxthuQ7RoQYblZHBey0bg/+4g+o06BH9+Gf4ukssAlMqeMewKTiPxy2Y4smVP107lyJ5I9uJUyp6CNOoYwWaCH2b6LUZlbiNaFqzCYlcvOCoT1qHsv/QbEkRigBh4whgg2RtKg+vyUPKBAIJPi+GueAIajBhYbcAJwZ9o9+8/Bcu8Voj9t4U4uSpEJnbKZGEgmdFI9nStsfTjLgi/WCabHuYoLtBQVi89N6z9WoCuvaXwkkwri7bHU1MvZXXo95km23oqHf/9uxu/LPWRjeJxxiWg7ZKgj1QPFB+N4qysPKpk7wHrPnzTuBKhG2eNULtMlGfUoL24Gpui5yDFxBKWOkawmvk9En/8L5yf6k3LZVYh/Lt7SPqsEQ6SzzjKZE/PDR4tAiTWl8KS1e4cXR5cqwVI2FHMmpaV9Jg1mcbVY+DHS0Vpyha0lOzAtuSFmM1xgB17G6z91XpyHPKSExHwgKvi+/HH2gZ9J2k/ignJETEwqhkg2RsSwMaIWXUS3Xd+RntGGuZE5qAixrd3heMgxIDz3Gy8d60H1z/bjIKgBKSHLcTKOD/JSsmpSF5zDHeFf+LAljLkhyYiLSAdhQuWYI6JfIRnIJkRnawGTmME3+z9uN19GftWzEeGVyzSo6txSMBajSup171LX6F+wTxkBWVgZe1R3Oq+hP+L4LOuKzSA+nppcPLQZFv67lizvxOC4//BqvBoxNgGIs6rAp//NbiRPY6OBnEetjbVoO7DNI3bX1Imw8koAtmRa7AtPgaOotXMDnWIPnwRgUGiFbFG4FmWI/TLHiQdOQN/N17vgU0ie0lffAXf6fPg5J4B94qjiD96CQE+fIWDnzHsi/16lwAAIABJREFUck4i8eDP8I9Ng6NvDtz9fSVpLOBQfAqJB44jcGYmHN3nwuPNk30XaIz1RVHmelT4xSP8ZbO+TCnup2P8UXm4G/fRg/Prw2mBhmJ86P8KbGqw71HMKGZazADJ3hAbl5kQi7ffP4Ubnd0Q3PgdP62b3jvNNBgx0DGGb/R2fH3yL9wV9kBw/RwOrEmWT1fpWSJhXgP2H7mCW1096Om8iUs/fYSV1vLpuIFFThPZMwBnjAMyyvfg+KU76O7pgeDWX7hweD9qQyx7T7qSevWcPYwff70BgfAubpz8Es0pPrDpF8MB6tUvvcKBWMNtWZqmoWr3Ifz+520IhEJ03ryGy8cOoCPJUTbap0l8RLdeURvn4WzTger+CL5ndCVT5roWsE3oQMQnVxG75zSidu+Fb3gMXFZfROJHO+AgGjGTyt4nhxH+0Q0kHrmL+A+/hF84a0SVXeYXY+FVdQrxB7uR8N3vCC+YLr9Js+jWK3PfR+Rnt5F46BZidr0HLzdH1gnGUL3gsbej54iSd67i3v17uLFjhvzyA3Yaes+KrcI+RrGh2BADTxQDJHsEvGbAKxOehxW7R7mth1UHbclX2TTuiKibEZzdKnH01gV0BEpu3TIiykVS1X9UmWJCMSEGHjcDJHt0giDZIwZUMzASZU/XEosaL6Lz9nnszQ2FveJ1s9SeqtuTYkOxIQaeSAZI9gh8zcB/lKNtj3Jb1P7q238kyp6OEdysohA2sf/Cpsfde6bt0wgOMUAMjEQGSPboZK/+ZE/xofgQA8QAMUAMEAOjmgGSPQJ4VAM8EntQVCbq2RMDxAAxQAyMJAZI9kj2SPaIAWKAGCAGiAFiQIsZINnT4sYdSb0KKgv1cokBYoAYIAaIgcfDAMneEGTP3rsaJ65fw8GSoAe7meuzzkgITUXMRNajwoZQnhG382hrvbShbagONHpBDDwcBqaUgHfqMHi+5v3zN0sAMyMZzJP8tBd18SEm+zPDjslg+FERZ5I9dkA1em8It7RPcfv+PVxvmAlbjX6j3OTFj8ZS8WzcESdwg6inttaLo2MIq5f9kO5fgnVZVWjIX44Zzw1N1Pkvh6Ikaye2+7nLbgCt2OaapFH8jfz/hnB1Wo22xS3YxX6VvIHZL0uewDLOH4Vzt6O5uAkdpU1oyduCTfHzkDzJvO/NjfW4CHUrwqYFO9BWVIfa9CJkmnJVllteBjn3fE4RWtnlYL3vKChEtL4JAv02oz2/FPHPsGNqCBtOIXaWvI1cIxNwdMwRE7IJOwoa0LG4GR3FdaibswKFDm6sW7AYwsm+vH/dFzdjR5CX5Ak18rIpK2/vZwPnwzzlj/z0TajNq0db8Q7syFqJZd5h8BzHrkPvtvgv+SIrchW25e5Ee0k96jPLUWLvInkc4sDbUl1Odl1U59MSGajQOWWQFF+L1qKdWOckuXm6bD+X5FNUjBh9dv7s95qlGYhD5ukIrCpuxs64CPkN5XWMERK0Da2JUbCTlckA6mPILtujfm8MZsEn4P+4VbnQhTWA/2s7GPYzwFn1Utu2ugy4a/eDd+wU+OfOgX/qGHj/2w1uejA4io8SNI4D9+33wT/0K/inT4C/9//ATfUHo3h7osnp4H5+ErzlIaolQ5M0mtZBZ4D4qMzHCMzM/wP//HmF11nwV0dKym4EzpwPFL4/D/7pD8E1lTyA4MU54J06C35tBhhZzEzArP4J/IYscETxCakH/5zidiT/P1YHLuv57+L20iQ+mqRRWXcWwxrzozrOJHuaBFoxjS4H/vYB8H7AXpq2SpF21ssE7laFqMrdhFUB05E41RP+k2xgr/JEyNpRWfxwn3FEnEcJthQ0ob2kSansaZJG7clBsj3u05bwmGgP/2kVaCteiUxDe3j+yxK2kjL3nmQbscHDE96vuiDQLAo5KdvQnrcMybKTkin8vNahpeBNFNn5IdDYHzPD16O5cD3mG0xWfaJg1VlUVmYcD+7/soenYnkm2sNjAlcsPMyEZGwo2on1ztZy2dTlI3V6PVpmJMJVfMLiICWpAW0pMxDwqiO8X/dE7LRSbCuqx0ZXB4mASiSkeDlmTerdpmi7nhPt4PacqTxvhTL2j+nA+TDjo7G6uBHr3D3gZ+iFaPu5WDO/Ac2zMhDIEj7uy9GoyGlC4+xczGY8e9PazcYim0dXZvfnp/SpO/NiAtYtWoLZLsvRMCsVHn2EQDORE0u1WiE0gGYctmBX6RaUmEk7Gv1lb+AYKt/n+rfrQ0in7wnuR6fBXxsr3ydEkraiBdw5CWBcKsD//E0wnAQwqxrBC2Dk6QbiUNcS3ObfwO9YDIbnDcYmAtz5jeD/egK8eZ7yfEzngfvjGfA/qgY3NAIchygwM1aCm8xK87I3mLwG8H45A/7pM8plT5M0A5VZ8Xtl8VFMo/T/Etk7tQtcvgcYC+nLHcyrZvK6v+TQ+938d8H/7b/gOniAmeoIzlhJW4tl7zz4Z74Hz0caewXZe9YOzFRJ/ux8RNs0s5ULsybx0SSN0vqy2BwKP2riTLI3UMBZ3zOvFGJ/F2T/BLvnSnrl7AbiI2Plpzh07CKu/9OFbsFt/HHoY1SHO8t71WNj0Xy+R5aP/M09XK+dLn/0k54lkhY04+vDF/FP513cPP0D3s2NggvroMy8FI4VG9/BNwfP4Mq12xB0d6Pr78vYn+MhG3kZMI2+HzYfEuJqdaJ8209lYs9d1rNxdfnIWP05fjl1Fbe7etDdeR3n9u3CWi9b2XY4GtaLeS4AS6r247crtyHsFqLzxp84/+02ZDzPiiMr7o/kYN1neyZweD0UaTwH2SgQ3yADlTkrkDZRc8HpX24jeLm/ge2peZhtHoxFWY1KZE+TNIOJkyFsLZeitXgpkp7uO9rUK3sNWG1tIZMA5vl4vFncgDdsOOLPmGfCUVHQgA3ONrI0HD07zElvQFN8JOz7xE2TcqkuD0fHDOEhW9E+fyFCJQdpvmEmqoorUWAqjbtE9mJDYSXb9hTERtehPWMmvMT7hiaiollZB5KZXtlrQDlviuzEw305HmsKGrDJzUESMwvExdSgPXshwhXaQM7Ioytz7zaN4On2JnbGhMJ2fAQq8t/Cwtfkz9wWjWIPVHfN0kjjrLrdxRwWbce66evRnDELPuLOiKLsaRBDXT4i7aMQ8tJkOasyRqTlkPzVtcLcrcdx88ZJtEewOheq0g/0OW8FeL8dBNdDzgFH3xXM8gbwPvoG/ANHwTv2M/g/fAfev5vBi3SV8SJnQKGM0m1KZa8mnfWbqeBWHQN/zzIwonjp8sFUHwX/q81gXuy7n8vzNwaz6EPw/lMNru8McD8/rUT2NEmjopzS8ir7qyw+ytL1+0wie7/uBKM4stYvrSE4sW3gn2oDVzEGItk7eRi8tr3gf1wuyUtB9mT5qclHNEL5qGI4FH7UxJlkT9bAGgCsz8DLwhPBTAy2fiuEUtmT3BC4+/ta5AUnIi1kISo/uISe299htbn0mbZmmGbmgfCEVlwUXMDuBF8EczwRzPFAgGwKzRwJFUdx59qPaM5KRZJjNOYXfoDzd29i32wnmWD1Pvu1E0eqirEoJAEp7jFIC81CuoX05Ch9Nq6aNJrInqRewm+rscA3FqnBOah89xwEncdR5zFVchDSpF4mSNpwDt1X9mFrYjzi7UOQ6JOO4owU+A9ylEx+ENOg7TRoZ2YsH0HWs7EsvRqtxTXYHBICJ7E8mCMuuhat89diQ2YVGgpqUZdZhgJrR5ZwaFoGyfNf9ZyxQKnsifLRJI3m2xuU7D0ViYqiRrzpwBOfMC2n5qOheA3mSKd+xXE0gpvrGrTlFyJK2nPWIL697aX6pC/6nnkxBm/k12Ojiy24unykJNWhIT5C0g6iOiuTPVNERtSifU46vMRTNJqIiibxGzgfZbLH0ZmC2Kg6tM1KhbuuAZinw1FR2IRNrrZqJGTgbWnGu4b56DlgXkYtyniikTQLJCfsQJWPi+y4opnIabgtMRuq271X9qpQONUXBfNq8YYdH4zCNK5GMRzniewZVWgtqcXWhGykmdnChtUx7hO/sZGo/03U4e7BhY1R8o64xhyz+TEGU7gP/O/eBvMU+3PJ+wkR4P77G/A+3w9ecUT/qdeBtqlU9qaA2fQz+P9bAWaMATgvzQbv+BnwsqexhFBJWaTPxR7jB+5nymRPJI4SWVSXZqAy9/l+gPj0SatY5uGUvR/BC4gD98ufwUuxB0dnKLKnYXyGM4Ya86M+ziR7akFTBE/yfz17lH+mXvbYIsg1XIzvugT4KpM1OqJjAHXTncyrefji1k38b7oV6wTBIHfXPxB8sRTekusOemXvOv4dpPppAgOmGYTssevFGeePyp+EuPNhPtxYB1V19RKN3mS3/I3uYzuQPlEqvyrirKZtxNvolo+Jst/dO1ODZI0lxBDWE3ww028JKvMa0ZxdgRK3MPg/J7o+TFIufS8ULWrC9rgZiDNxgdcr0xDjUYYdJduwxGIqq30GUQ+1siflTJ0QarqtAU6yxdKRPUPwn7FHbKBoyrYcM8VyZwhX51VoKyxCjOiEIo2HjgH4TBFaildj1kuqRhH6ppf/VnV5etMYwWvaGrQsKsEMq0WoKVyN2RPYI059ZY8ZYwEPi0xsKGhElY+r5KQtkRDWdYHi6xaLShGnMRei8g+cj3LZM4K35wa05y5CmL4BuP+/vSsPi+LI2/8ziOb8NsYY3XAYL6Z7mhvkErlBEJBbRARBRBQPjgHxRLwlJigqCHJDkl2zm2uzSYzRjYm3Jt6grjHZxKi7KjIcvt/TzPRMzzBHDwGDWDzPPD30VFf9jreq3/rVNWYeSvPLkT9BH94Nl6WyoS7b8mWu65mHyc7F7PnkFSGZF+3okSm7EPE98yPlZdcvSIOfcj6TQh69Q7RC0nCy6vY7R/ZyrMZhit1KVGcuwvQR6pE9YTZky7KEw+hAzAtchV1sfV64DnluwfB5gY8heTpPrwKUFa1A4hjN3ziZBV7NAiA52AKmKFytjvT468VA0B9cAPNRIShKCubiBUiyg3un49WtXn7WJHvPMaCCNkLyQwuYgiB5XpK1kLScA+3Da7f05SmEyAlJo68M7jd99uHS6LwqyJ7mnL3LNVrmRuqJyPVE9k6Adh8PKr4RkiNvgXqpj2SPk1WIfYSk4fLTdjUGPwbsTMieNgMbumck2ROPSMT7tzvwfYE3r+esn+zZBNThdnc3umQyyNpVn46ux+i6vBtxipevQSJnwkX29BDCvpI9k3GI23YNnT/VIpkXYtdP9sxha70Mf7vwEN33b+BYXSnWBHvBSfmSEdjAvuiA6XaBmGnf+xNBOcKBRz57NZ48/1KjElEirUPjwgLMn2gPOy3PsS+j9T1Dm6rhTrHIHmkpNaiNDOlDdM8c4kFD9urQnF+NBnaRxoo6NC5ajQVW8iFc9sXp5bkVjdnLEK4RdZVMXI5q6VYsGG3si1L3S1/pJzM3LEqrRnNBNUq93ZRD6fLf5WSveYWCxLCLNHLLsDU4DFOVhFRBQqRrkfqGC3zYuX3s53VGd6SHhwmlHBzZ05OPbrJXoiJ7ryejVKpJ9izhO3Uz9qelwp8fjdRTlkoufXWE011jviI7V1NZx1gyug118ZHKYXjq1QSU5JVg0VjOn0KInJA0nKy6/a4ie1YQD3PD4vQKbHayRyhvgQYtyIZcWfIrG6kPcliCt3Pq0Jy1CCEaGBZmT/U8tT7juBGSq99B4qalw21KQ5y8AbQTO/oxEeKUDaAd6b6RveutYFpb5Ys0Lh6HpDgV1PMK+ejVYK6e1SB7VqCW/QPMp0Xy6B8f40JIiJA0/Dx1fddnH13PKO8ryN6V90Hb+8jnLLLzFiknLRFSIWRvHNggBf3FD5Akuasv0FCWqScfZRpziIXYR0gafp6a343BjwE7E7KnaVwh/4scsdaIyJ54RALe/U8Hfij00SB7u9CqYzWuTWA9bndcR3OMr2KIlx3mVXwm2CnnCvYP2fPFjpMduLMvUfecPa3n1VohbksLOn+uwzw1sqdbL2VjOdwWEeGFKG84hp8eduL2VyWYM8qYKJEl6GFWkJj1/tDDuBeW4YaaGuGKxKDVKMupRV3GWuS5T4fvSxoRmOGhWJdXi7fc+ZHZ8YiNZhcKxMFVC0FU6qkLT4OG7NVgq4cHpo5yRlTgdtQvzkbki5wfLOA2hY3s5SNaIyJmQ+ejXlo8AJE91mcWcLBdhQbpWi2rneVkr2H2bPizCy5G0rDr9RI3hoTow4jhfLSTPfkwbpNi0QNLZopya1DixsePJfx8dqAxMwOBfLKnN5KmT1buN8Myi0WOSJ/HkuUaNEhZos+R/Vrs8HBURKoF5MORYUEyCyR7JhZwsV2J6gWZWDBDtRpXmA05G1jCfpQ/5vqvQOmyGtQvLsYKd2/eSl8uXX9cx4Fa+Q2YI1tBadQRg22ArrZB8z4X2WuUgrL2hHicvWrhAZd2ZBroiy2QZPDnAlqByj8M5siWP5Ds/V779O8wLu3ORj4tIY5tBHNwO6jtvNW4nC1NBhHZU8pkCKuG7UzInmBj8owtkiD/Ixlkn0t75uSoVWptpEgX2bPdjouyX9AU0LtHSP05F4cfdOBScYiS2KmVo5C7X8ieyA4r/9GOjq9WKYeHxZoLNLTpZeqJzf+Sof2LAsVcKbmNJHr00qaDrfVaHL3fgdM5nmpkWFta7l7/DePKZaZG2CHUMR3r0srRJN2NHZHzkTjORk5+TacgM70WdXEzlZEQNjK3KL0W+2f4922+z6Ahe9wwLttTdUNmahXKQ/2UWwoxPXP2NCN47CKSrWhcno0IZTSNVz/01indL33Ot+zVTrICjdLVmK0knlz+6sO4/GdU34UQFS4/fVfD+Wgje9Qr0diYU423pypW2opozI6vRNOCTAQrV+j+cWRPHsXbhqUTHeE5yl7xcUJM6E40JiUoVj0b1l05zN2vZI/FoSeWLqjAviVVaOS2XhFiQ1MK/pIkFCTuRH1+JfYkZCFV7AxHZURT3dd242OwPCEegb9nV4XhIaCPtIBZOd24aJ3eOqIup5gje2oLNDTSmNqDqrkgJzAvcZ21QUD2frd9BoLsmUP8fAjog9+DOX5RtfWK0idPIdkTYGdC9pQO1qg8eu9bIar4Ejoffo+mtGTMj1iCoig/+XCTNlKkg+yJX07F32934c6X7yAnOA4pM7KwPsZfMWw1GQmbzuNRxy84vnMtskPjkRyYgtzFhZg/ThW56heyZ2IJv8zDeND5Ew6tWYQ072ikRO7GaRlvNa5Cr+5bR1C1eCEWBKdhfcU53O+8hb+GsxOqefbTq9dEzMmpw57MdKR4hCDKORILsw6gVXYfB5P5kQ9efvy8ue/9NIyrIghceeMxxTIcmRGbsCc2Ci495VnCw6UItfllKHL3h98YD8T4bURN3nZkmfcm6r3z5PJmX2TWcGe3IHk9BNKFtdgXHg4fzS1BhKTh7KDnKmzLCx7ZMzGH7ZuLsVf6FpYo9KJemIG12TV428tFNZxq5opF82tQHRmiJIV6dVaT8QmSvV5br6i2eREmr4Lw6MlHTvbkW6/4/tkTYbbzUJSxH/Wp6Qh+jnvpmkMyZg6259Rif3IWUihvBFn6ICV6D5o0I3t6yjJKZp0EzAIujuvQsCQLoRoRUVtairo8LppqWHcl2TMgsyAc5pUhx4qLqFvA3WU96lfUq+2zZ9CGw/2Ql74NRf6xCHt1onqbpIZBth4GoPRMJx6jCze2hfWtw8bm6bYdzNUjoJ042Xl1XbPMvv4vhOyxeUsK5FuqfPAO6NAIUC6RoPeeUo/sPcdAzG4vQs+F5HArJDvSQFlrbGMiJI1QXX63fbhhXM2tV9jtUOxV26EI2XrlEjtnj5vTaAlq3t/k++px++wpdTJA9oTYR0gaZXn9gBkBdiZkr48Gp0ZF4+0Pr+BuWydkd/+NU1tny4cJjCF7Jlbwi9yLf136DY86uiC7cx3HNyWohhtMbRC3sBqHz/6M++1d6Gq7h1unPsF6O1XD0j9kj238nJG27lNcuPUQnV1dkN3/DTfPHEZFiGKzVYVeXdfO4MTlu5B1PMLdS1+jLtEX9r1sqEcvkQ2SCz/E6Su/oa2jC90dD3Hnygl8siYJPgM1DNJLPmGVi+JWVLHPi8QIdstFyaIKNEjZDXFXIWsyIzgSyb2o6bGp2JWvsdGxxma/QtJw+em+Gt5UuWeulHKBhsImIgZzEipROztGscXPOPi4b0Bd7ttYMzUC0XQUFsWVojGnGGmvcw2nMHvKZX2CZE9zgcaKejTnZCNCg+Tos6H2zZlV+fRsqjzvbezL3o8maSWqMoqx2icMPjyix+ltPyYcS2O3oiKnGk35+1G9aBs2BYWqR9L6S2adZG8y4mKq1EgUpz81Mh7bpFUosmEXHSnInl55hKURtKmyGtkzB/VcEAqX1mnIaQFDNlTrdOqr96YuyD/wK7ofd+Nu5RzV9BV9z/T6bTyo4mNgDm7oPUzaK60xdUQjrVCyxw4/SuaDrvockh+ugmm5DMk3X0BSlCzfnoWVyaYIkhbNjYP5GxQLTCNIv/6wj4LsaS7QYP//Ya9io2OBmyqrkT1ziP80G/TJa8ZH9p6oDTWwoNXuwuxMyJ5W4wkx8DOWRhuJJbYbuKGbQWXbSfC1z8SGjEo0F1RgV2xG71M2BpW8z1jdJLbvQz20hKtnKc7dv4nmIHEfnmeHAiNBf9cCRurft+eHut+IfZ4MLgTamZC9oV7h+ks/QvaeTMXtL38NQD6M+Xzsku7FRjdPOOuYB8VFiciVEM5BiwGRDZbW/Ii2BzfwxbJQ3jF7RvrMeyeYq4dAM6qRlkGr8wC0BwZ1JfZ5Mu8MgXYmZO+PqARPY5mE7D2ZijuosTEOnpJMbFtSjcblb2OL11QwPQtNatXP31Ub+qtFmQ9/s14jX6gDYQ8i8zOOZUt42s7EjNFGzrdVw+JEUNtOg/ls7cAO4aqVOQjqjmB5iH0MkmHBttTnd+F2JmSvXwyuzxnktycDemLnJ2Zn08nwtPBH2Fh2btebcB7lrNrLjtvTTnl1hudLv+elOhB+JTI/MayQ9vUZJ9YDUX9Jnn2pv4TskcaINEYEAwQDBAMEAwQDBANDGAOE7A1h5/aF/ZNnSK+RYIBggGCAYIBgYGhhgJA9QvZIb45ggGCAYIBggGCAYGAIY4CQvSHsXNIzG1o9M+JP4k+CAYIBggGCgb5ggJA9QvZIb45ggGCAYIBggGCAYGAIY4CQvSHs3L6wf/IM6TUSDBAMEAwQDBAMDC0MELJHyB7pzREMEAwQDBAMEAwQDAxhDBCyN4SdS3pmQ6tnRvxJ/EkwQDBAMEAw0BcMELJHyB7pzREMEAwQDBAMEAwQDAxhDBCyN4Sd2xf2T54hvUaCAYIBggGCAYKBoYUBQvYI2SO9OYIBggGCAYIBggGCgSGMAUL2hrBzSc9saPXMiD+JPwkGCAYIBggG+oIBQvYI2SO9OYIBggGCAYIBggGCgSGMAUL2hrBz+8L+yTOk10gwQDBAMEAwQDAwtDBAyB4he6Q3RzBAMEAwQDBAMEAwMIQxQMjeEHYu6ZkNrZ4Z8SfxJ8EAwQDBAMFAXzBAyB4he6Q3RzBAMEAwQDBAMEAwMIQxQMjeEHZuX9g/eYb0GgkGCAYIBggGCAaGFgYI2SNkj/TmCAYIBggGCAYIBggGhjAGCNkbws4lPbOh1TMj/iT+JBggGCAYIBjoCwYI2SNkj/TmCAYIBggGCAYIBggGhjAGCNkbCs59yRVxoUmIGm0xKCqrk89uXLxzGyfzg8EMBfv+ATpIpuxGxNHbCEsLBvUHlN+XniN5hkQcCAYMYGBCPiRXzkDiN6l3Wz0xDtScBFAvGsjjaWsPjNFLn32eNr0HmbyE7A0yh/SlsZRMKcO19hZUTLHq3YA8cf0s4Jn8OR487sad6rlweOLl/4EN5YvB8Nx4ApFH2xD79UWEzI+CRNQXeSzAzPwcsT90I2bjXNADasNJ8Hdeju2ZFWjM24e9c5ch+Y1JfSSYFrB91R8pAfnYuqAM1dmrMedl4zsgzEg/LIgoxp5l+9GUX4Wq9HXId3KDXY8dJiEqZAcqc6rRvKIOzdJ92Dd/DXKdPeGktLUF3KdsQOOKerzL/+RvROqrlqo6MswWM70LsGNxJRrzKlE+rwCLrG372EGhMCu2Ag15+7F1io1W+zGv+CItrAhlS6vQmFuO8tRVWG7nCnsTczDiPDTwZeV9b87JReQwFkeG9BqPqIgKNGWkw99UHXfUqDnYId2HVdSEnnymOK3rbZ8VdagM9oZEIN5oiwXYI92BrDd4NjWxhJ/PDjRmZiCwRwZDMqvk1Od3YWWp8upLOzrwz1iBWvxPMCd2aSd0M6rBXG4C9Sfj64xYRIHefBiS81fAXL8O5sp5SD57D3TKdIg1sCAW2YKu+h7M5UuQpLqo6oOa3y0gHh8Lem01JF+eAHPuXVBj+iAXm6dgvQzYR02+we7rwScfIXtDAECDi+yZQywSI8ApED5DrYeqFytWcMi6iLgvP4GnvRccwv+CqNOX4SvpIwEXiWEnCYTt8wPZaFhgim0h9ufvxoZpMzBjwgxkztqNpmWFmPV/xjbs4zDVNhdly3agOHA24idPQ8BYezj1kBThOtCvRqJoSS1qUpchlZoGfwtvRDqmYqm9s4L0ipE4qxqNiXMQOMYFPm9MQ7RHAfbkVaHEnUtjDvp5G3iNdkKARxEapeuRbuGEaa/ZwEEpzySETS9F47JiLLXxRoCFL2YHbkS1tBR5E40nu9Qrcdi6tBCpbqtRPS8JXkriKdedHjkT65bUojYtF+k2fggZH4h41wzku03tIZfUCAmmvuaEaZoyj3aC1yhaQXQN6WUBJ9uVqJcWI/kVvv8s4Mjez1uNxJfY+xboIXvS1Zg3Vl4mW+600Y7wfPlNrURVGxESSsAM+8Jmp5LFAAAgAElEQVQchvwutCxtcg6ae8Omgf6kBczmaBXBYknamnrQ8+NAuRWBObgFlDgOVHENJIGUKp3etodtc21A110F07wClMQHlH046EU1YC5fhGThNPV8LJdBcqoedEYzmI8LQSnrBFdPx0McWwHJqcOQrJOCCgwHxbhDPIL7XcC1L3pps48hvcnv6r7VYw9C9vQYR1sjQY0Mw5qSA/jmZCt+vv0Ass5OtP/3Jxxe4qWKwJjaYNbiOvzrzI/4X9sj3Gs5hg+WzYQb7wVAvRyIwrLDuPrzA3R0dqDt7i+4cXQP0v6PV5EM5TM8GnU3utD7rxt3KmbDxhjdzJwwr+AAzrTeg6yjE+13f0bLN//ErkBG3viLGKRtOIgfrvyKB+1d6Gy7g+uH3sVmbwel3tTruTjcrpJG9l6G8iWlZkszZ6Su+ABnr/8Pskf/xY9HD+CtAGe1iIIg+xijX7+nHQfnN0KRLOHkngS3HY8Q/06m3B6j8zHj5A34OYxTVUYRA5elBxHx6a+IO92F+JN3EFnzLrxcHFRpRuUi9DQw67z8E/9WhvaX7zBnuKR/gPDP/4f4U/9FVOMBTHN3VuUjRF9TF2TOr8H+mdOVEVjq+RCsXl6DUi8VcVLznY58GfM0lC5Zg+TR442TQS0/a8RElaMpMwthz/PJCq9OmCjIXnQobJXPTkB05D40pc2FN6+OsaTGwWYlGqQrMUsjP+qVeGzNq0SxPa2yr0iCOQlVaJwTD3e1fPjla/tuiWmeW7A/KhQOL4ajKPstZP2ZH+2yRkxkOZoWZmGGhhy9batbZlVa3WmoP8ViS14VipjJKr1MJiAyoqJHL3kbpCB7eVJE9XrRa9NP+z3jCJhumcUmhv0uqCwRgwinmQgZOZ6nu3bZ2ehWxq4LuHf3EprC7QynV2JNR35CfpesgeTqSdBebHRVkc8wd1CrqyH55Bswx89Bcv57MMe+heT9Okgi3FXpuPS6rhzZK0/hPTMZdNl5MJ+u4hE6K1BZ/wSzOxniUWmQfP81JHYaHVLHYjDH3wNtPZGXl5F690UvbfbRpS+5b7RvCNkzEjS0eCPOydpwtkyKpSFxSJwaheTQBUix5l5ykxBXdA4Pb59A3YIkzHKJxKLcj3Dj0T0cSp2iIEbjMGv7dXT+fAi74mMR6xSCeN8USNMSEaBsfIXkMxEeE70QFteAH2U38V6cH6aLp2G62AuBY42JTlgjcfslyB5exke5GUj1jkFqXDnOdnTg+FJXucymU1B8qAMdR3djsV80kqYvQekH1yFru4B9XpPlwBtGwdt6GqZTUdh1tAPayZ4YSSWXIbt/HgeWpmFeQDo2111EW/sVVHuLFQAWYh8jGx8j/axsjDWeo4YzCLZLxaqU3WiQluOdkBBM6SEGVrBLPo64L9/DlFEumFLUgtiatbBT+tMcYtMpmFrTgfjG3XB1jYaz1xJ4l15H/MkL8HVS2dDmzWmwmxAFn8YOaCd7YjhLLyP++HkEJaXBxT0dXpsvIu70Ffi5cDY0bB/q5WhsllajyGYy3B1WYt+SdUh+TYyE+Go0JETBSUN3XTYRm0xCTGQFGhZtxvb0MlTnVGBf+lrk2LnwCJkAeZ4PQ1FuLXa4O+h5+Woje28iIrwCTfNT4K02ZKWLYFjAgVmBeuk6zFWLYLIkqAgNeYWIN0jKePqYOmNhWgXWStg6Z42EuEqU+bqpOkFKvez16MXlp0tm7nf2qieNyBbzkqpRHRGksr2ZD/KWVKPEjSt/cJE9Smkf3X4XRPZGTEPmnDI05FdgV1wmkic6wF4XaR8egaqrbEe5CzdLZvZx6J7vE0PfrUDlHgLz7dugntOSdlQ46Pe/geTgYUik4b2HXg3VRa1kbwKoHd+D+WwNKDNFmWbeoD/9HpIICmIRA3r/BTAFASriwEbkyr4H881nkHxxAswP34P5/H3Q8T4Q67KlPtkE62XAPvrKIL+p/KfHFoTs6TGOtpebnOzdwfvBb2o1MDVmOb66fw+fzbblNewUlr37P8i+WgmfnpfRRGTW/xed5yuRMlqjV6WQR1g+8gosZBiXfsEazq/QcGE/f7JWIyHU2Gwcut+B86sDVI3ec+n49FFvsqdG4EYEoPRUBx5+nA1PfkNg6oR1X2one9QbeTj8oANn83lzg8x8UHKsA22f5mJqTz6G7aPNN5r3euzSqYo08r91t5YjYbiWRlcrHixgN8oXc/0LUbq8BnWZRcj3nIGAl3lRO/a5lxIR8EUX4r67g6g9m+E00gqSsV6w5dJxZI8frRseAO+/dCBuTzZsNGzoWaWD7L2eh9ATHQhP81ZhcJgPpjV3IG5vLhh+Plr1ketNj5mHUuke5L35Jny9S9CUX4qlFuMxI7QcjWnJmKZGnPTYapg38pbWYm/MHMSMc4P36x6I8lqLyvw9KLTmR5j05GFijh558suRP0F7nZD7V53sUWbW8LJOx/acGpT5uqvw26O3LlJkCU+3TWjMyUYEn4yzc+cmZ6NWuhnzR/EjcwLkzi5E/AuqIdL6BWnwU9hPmF5cGbpk5n5nr/rSyHVryMpCqOIFT1tkYI90C9Jf43RSkD3evMCeuY15BYgRXCfM0UPACjTmRSrybFbO2ePk1i2zEPsIL8sSDqMDMS9wFXaxdXXhOuS5BcPnBU53Th5LeHoVoKxoBRLHaP7GpenHq1kAJAdbwBSFq+osVzdfDAT9wQUwHxWCoqRgLl6AJDu4dzouvbarJtl7jgEVtBGSH1rAFASp8pKsg+T7BlCvsli1BJX0VzAHi1VkcPhM0CdbIalYAcojABQdDHrZ+5C0nAIdTKvy0SaD5j1j9NJnH818yf/G+UFhL0L2jASOIbJnE1CH293d6JLJIGtXfTq6HqPr8m7EKRpgW+tl+NuFh+i+fwPH6kqxJtgLTryXq9B82BegYbI3Dkmlt9DNsZ2um6idpiIqPWV13ECVh+qeWAjZMxmHuG3X0PlTLZL58zn0kD2bwHrc7riGSjdeWWw+W1vR+VMdUhT5GLKPJrHT+v+LDphuF4iZ9r0/EZQjHASSImpUIkqkdWhcWID5E+1hp+05EQPnvHOIee8jTP/gHiI3ZcDWzBYee9sQvsBXXjm1kT2TcXDMvYb4Q7Vw5r9oTZ2gi+xRHvWIPnsNfnbqNnTMaUX8oTr1fPTgW0X2rCAWTcSU/5sE2sTKaLJHPR+O9dJqbLS3VnVwRPZIS6lBbWSIKsKkRxbWf/TrySiVapI9S/hO3Yz9aamKRQdyste8ohbNBbXyRRq5ZdgaHIapXPRCWY4ugmEJT3d9ZG8T0gSTPUv4TNuGuvhIZSSUejUBJXklWDRWTiK066WLSOiSmZ9efxpq1GyU5O1EthWLD0v4++5AY2oSpilxqyB70rVIfcMFPuzcR/bzOqM7Eqa0qUoOebRtJwoYV1UeY1wRN2Mnb4EGl163zNrto+5348qSl8lG4YMcluDtnDo0Zy1CiAax19pmaNGzX9I5boTk6neQuGkJEpjSECdvAN0T3Z8IccoG0I5GEiuO7F1vBdPaKl+kcfE4JMWpoJTzfq1AZX8JpmahKkr3Zh6YS4dAM4oO1ivzIblyFZIERkUo2CHZv7dAsnuu6p4QOxmjlz77CCmLpDHoG0L2jASJQbLXQ2auoznGVzGkyg6rKj4T7NTnsA23RUR4IcobjuGnh524/VUJ5oySz1WSkyJh+Uim7EKr3tW4FnCZHIY53jFI6vmEIZC34ssmuAl3O1pQzl/NK4jsWSFuSws6f67DPD7ZEzlirY7IHqvXbzrJXq2S7PU0sHrsI6wBtgQ9zAoSs94fepjw3jw1whWJQatRllOLuoy1yHOfDt+X1KNPlMMeRLILMmzGQ/znTAR99hCRG/dh+sGfEOCmGOLXSvas4JjTgviv6+DCJ3siR71kL0Yn2dMgjXrwrRrG5Q/5TzZ+GHd4KNbl1eItd26YkH3ZjkdsNLuQIg6uSpLBvfi1X1nSWJRbwxtuZNNpru6Uk72G2bPhzy4oGEmrRanVcaGLYLDDuIU6hnHXGTeMK3JE+jyWeNagQVqt+LAktBY7PBx7yC/1QjjW59Zgu6uQuWG6ZObbzEAakT3mJ1djj58HaNMpWJRerZRFbp/BNoxr2O9ysmdo5S9nI0vYj/LHXP8VKF1Wg/rFxVjh7g0XgThUxxCX5++5jgO18hswR7aC4tdxPXXTaBk4stcoBWXtCfE4e4g1yxrmCfpjlgy2gLlyVfFhiWErJIunysnCSymQXG6FZCF/vuAkUOVXwDQvA8ULSBgto059n4B9dJb9e/z6dD1LyJ6RIDBE9qg/5/YMU14qDlEndgbKsbVei6P3O3A6x7Nnro8x+Uhst+Oi7Bc0BWjpNRool62w9MQinJK141iWYn4e+4wQsmfqic3/kqH9iwL1uVIiCfI/kkH2uVQxLKuqFMKGcVXpuQZF0z7cfX3X/hvGlctDjbBDqGM61qWVo0m6Gzsi5yNxnA1sTCxhO/c7xJ/4G1wV83Foqhhh33Zj1pc1cObm6Ggje6ae8KqXIb6qADb8hlQkgftuGeIqpb2HZftpGFfMLdCICOYt0JiOVcuMXKBhOgWZ6bWoi5upjG6JTV2xKL0W+2f4awyt9vat0ociGrPjK9G0IBPBI7gFGtrJXqPaAg1deeomRdRIxQINOy0LNJJmCV6gIY/ibcPSiY7wHGWv+DghJnQnGpMS5PkoFn40ZWRiulIv42VW2knvMC6bryU8XDegISMdQW/MQ2muZqRycJE9sQC/CyJ7phT8JUkoSNyJ+vxK7EnIQqrYGY78esVrD+3Gx2B5QjwCB3rXgOEhoI+0gFk53WD0ReVjXfjQcZ8je2oLNDTS9kTxvgTt6wnxBHfFxwv01u/A/DVXPk/QzBf0561g9i9QRf/M/EB/0QpmW+zAyP8k7MPze59t/JTnQciekQ40RPbEJpORsOk8HnX8guM71yI7NB7JgSnIXVyI+eO4aNJEzMmpw57MdKR4hCDKORILsw6gVXYfB5O56IiQfBSV+eVU/P12F+58+Q5yguOQMiML62P81Va36gW4qSNy/3Ib3XdPoylzHlKnp2PNhoP4qav3nL3uW0dQtXghFgSnYX3FOdzvvIW/hitW7CptaYWo4kvofPg9mtKSMT9iCYqi/BTyWCOp5Apk9y/gg+XpSAvOwJb6SxoLNITYR6MhU5bNu99Pw7i9bTceUyzDkRmxCXtio+BiYg7KeR8iz/yIoGB2RawlJDbrEPp1F2adbUWAp0TeSCrI3qyvjsBv9kJMmZqGqUXnEHvuFgJ9ecMmPbpYwXHJJcSf/B4B0clw8VuCqQF+isbWGs7SK4g/fgFBc9PhMjUDXlsuGb1Ao2cLDruV2J9fhuKpoZgxPhQZ8WU9W68k8CK/vfXn2bhHVkt4uBShNr8MRe7+8BvjgRi/jajJ244sc+M6IJIxc7A9pxb7k7OQQnkjyNIHKdF70KScA6Y+Z0+XbIa3+5iMcJaQLVuPJYw3/M19kMBuvZK/E/mThM4ztICL4zo0LMlCqMYQoS0tRV3eWuU+g8zYOdiWU4vq1GwssA/GjDd9EWWXhOVu3j377Kn00E1Q2TSG9ZL7hnolFltzd2Fr4tuoS4zViK5yw7iaW6+ob/OikknT3/L/BREwgTIb8rugsob7IS99G4r8YxH26kTVlAJtbYNZAErPdOIxunBjW5jwDom2vAzdc9sO5uoR0E7qowGG7GvU7wbJniWoOX8Fc+IdUPxRGFb2GfvBXPoLqJ5pB1agUg5A0nICkoWxoCTBoFZ+DObyQUgceauIDelszO9Pwj7GyDNE0xKyZ6RjDZM9dtWlDeIWVuPw2Z9xv70LXW33cOvUJ1jPLXEX2SC58EOcvvIb2jq60N3xEHeunMAna5Lgww+9G8pHKbsV/CL34l+XfsOjji7I7lzH8U0JRg1bUK+EYM2+7/Dvu7KebVWuHT7bQ/aOZbmorcbtunYGJy7fhazjEe5e+hp1ib4aLyvFy2ZUNN7+8ArutnVCdvffOLV1tkoeM2ekrfoQP9x8gI72+/jp+N/xdpCLipwKtY9Sf+0vI6Mayz7mRYkUESiRNRzimhH+z18R/WkLZr73BfzCouC24UfEf1IJZzZ6wJG9f55B2Cd3EX/2EWI//hr+Yb7KlZtqMr8SDe+yK4g92Ym4b/+NsJzZqk2a2a1XMj5ExJcPEH/6PqLe/Tu8PXVtkKrPPuymystQsqgSDdJKVMxdjmRz/rCuvmd5v4nECHbLRcmiCjRI2Y2QVyFrMqNdL722toD9mHAsjd2KipxqNOXvR/WibdgUFKqItgkhewI38jWzQ5RvId7JqkSjtBL70gqxmLJT4VCvnKzukxEXU4WG+Jlw1EjLRg63Sat6VjrLT0CxgO3rYVgSvRnl2Qq9MjdhtZefYjU3Z0t9ZE+gXqwsIrpnG5nmFVUothNrEB8F2dNcoLGiHs1aFq2oYZKnpyACZnAjaJXe+vwutCzBp82YuiD/wK/oftyNu5VzjNumimcDXbZR3R8PqvgYmIMbVIsgjHqes4+BqyGyJ6JB7bsIppoXsePksMqG5OpF0FFcp9QGVEYFJN/8AObqJTCfN0ES6DQwUT2TJ2QfTtdn+ErI3jPsfFWD1LshocetwvH2B/g01loZlWK3XlFbjUtsZ1wDqG0Yl9jQOBsSexF79QsGLOHqWYpz92+iOUj4dkX62kytvz0fCfq7FjBSf+I3bX4j9nliuCBkTxsAn7l7ExCVsA6FUQlI9IhA0oxslH/+H3T+fABZrykiV4p99gjZ602MtTby2jBEyN4Ta9gE+0Sbn8i9oe0nkQ2W1vyItgc38MWyUN4xe7+jbuvCjPdOMFd5q111pXtW7xP7PLG6Rsjes1rJ+HqbumD53lP49+02dHZ1QXb3Fi58XIkVDpRq+IeQvd9fKQnZ+/025ON2IL+bumLxglr1s3XVhj1rUeaj2jh5SJHLIa+7JTxtZ2LGaOPmkxrv44mgtp0G89nagR3CHch6MKB5E/sYj6m+d0gI2RtQMPfdMU8SBKQs4ieCAU0MvAnnUc68/eN4+9H17EvnDM+XBposaMr0pP5/lnV/UjYm5ZA258ligJA9QvaenmgL8RXxFcEAwQDBAMEAwYDRGCBkj4DGaNCQHtmT7ZERexN7EwwQDBAMEAz8HgwQskfIHiF7BAMEAwQDBAMEAwQDQxgDhOz1wblOPrtx8c5tnMwP/n2bcb7kirjQJESN5k4LGCI9l0GmV7/5qw9Y+T09saH4rGTKbkQcvY2wtGDV4h9iV/KSJRgY+hiYkA/JlTOQ+E3qrevEOFBzEkAN9GkmgxFnxuiuz4YGdCNkz4CBer9wLeCZ/DkePO7Gneq5ymOmeqczTNx6jvPSe6at4Tz6Uu5APzO49Oo/fw203QZt/i8Gw3PjCUQebUPs1xcRMj9KtbmzUfXHAszMzxH7QzdiNs7tw4bLxtYHC9i+6o+UgHxsXVCG6uzVyhMtjLU182oo8hfsx17/qTrlFpLGULnMSD8siCjGnmX70ZTPbk69DvlOboqjFychKmQHKnOq0byiDs3Sfdg3fw1ynT1524cI3Hh5mC1mehdgx+JKNOZVonxeARZZ2/ax80phVmwFGvL2Y+sUG60knnnFF2lhRShbWoXG3HKUp67CcjvXng3ZGXEeGtRWOtcrV0E35+Qisud0EkN6jUdURAWaMtLhr3E8GjVqDnZI92EVxZ4AoWtD6TpUBnsL3lBb6CbP7lM2oFFTt/yNSH2VO01Jjml9fhdWlrF140mntwK1+J9gTuzSTuhmVIO53ATKqJN7FDqIKNCbD0Ny/gqY69fBXDkPyWfvgU6ZLj8Cjt9GWcWAfvtDMKcvg2m5COaLv4JOCgCleW7y+BTQBy9BsjqkNzHl8hOShkur7ypYdwM21FeGiTkI2TNgIK2Ns0iMAKdA+PzOXsjgIkX9V/kHnV795C+tWOgLfp6qZ6zgkHURcV9+Ak97LziE/wVRpy/DV9LHo59EYthJAmH7fP/hTbtfxmGqbS7Klu1AceBsxE+ehoCx9nDSONZM+7Mq2egXXBDjlY+dObVoyq/VSvaEpDFUDvs7/WokipbUoiZ1GVKpafC38EakYyqW2jsrCKbi9JDEOQhkVwS/MQ3RHgXYk1eFEncujZAj1SYhbHopGpcVY6mNNwIsfDGbPSpOWoq8icafnkK9EoetSwuR6rYa1fOS4KXx4qRHzsS6JbWoTctFuo0fQsYHIt41A/luU3vIJTVCgqmvOWHaaCcEeBShUboe6Rby/71G0cozxvUfFWcBJ9uVqJcWI/kV/kiJBRzZ+3mrkfgSe1/XUXGO8Hz5Ta1EVZvvhBIw/TLLcWbI70LL0ibnoLk3bBroT1rAbI5WkSeWpK2pBz0/DpRbEZiDW0CJ40AV10ASSKnSGWovudNDmleAkviAsg8HvagGzOWLkCycpsrnzYWgT7SC+WQ36NBwiJ1ngpqzHnQCL82rPqCWV0PyQyuYllbtZE9IGoMy90F3bTY0VA7vd0L2eMYwVDGo13NxuB3KP60bDIsYpK3/HKfP/4g7/2tHp+wB/nP6H9gd5qrqNQ+PRt2NLmU+qi/duFMxW3V0j6kNZi2uw7/O/Ij/tT3CvZZj+GDZTLjxGlNqZBjWlBzANydb8fPtB5B1dqL9vz/h8BIvZQTCYJph/njndAd+3R2vKvu5dHz6iHc2LqvXhoP44cqveNDe1XOk2vVD72Kzt4OyHLFQvYTY3MwJ8woO4EzrPcg6OtF+92e0fPNP7ApUnMMrQB5B/mJlMXNG6ooPcPb6/yB79F/8ePQA3gpwVuvlUy8HorDsMK7+/AAdnR1ou/sLbhzdg7T/UxEDQ/h5On4fB+c3QpEs4fSfBLcdjxD/Tqbcz6PzMePkDfg5jFM1oiIGLksPIuLTXxF3ugvxJ+8gsuZdeLk4qNKMykXoaWDWefkn/q0M7S9W9hi49A8Q/vn/EH/qv4hqPIBp7ux5w8bZmTFPQ+mSNUgePd7oZ1VlWcJ76kbsTVqO1EnTsXRBjRayJySNENmtERNVjqbMLIQ9zycr/Ge1HRU3AdGR+9CUNhfevHaBJTUONivRIF2JWRr5Ua/EY2teJYrtaZUPRJKe49Ua58QrjqXjl6vvuyWmeW7B/qhQOLwYjqLst5D1Z37UyhoxkeVoWpiFGRpyqOzM5a9bZlVa3WmoP8ViS14Vihj+2cYTEBlRAVYvebupIHt5UkQZSfxVMpjDOAKmW2axiWG/CypLxCDCaSZCRo5X+VRXnRHZImPXBdy7ewlN4XaG0+vKx5j7kjWQXD0J2ot3vu4wd1CrqyH55Bswx89Bcv57MMe+heT9Okgi3IXXW47slafwnpkMuuw8mE9XgWL9LGJA7T4H5sg7oNQ6Axz22KsVqKUfQ/KX3aD95oA+2KKF7AlJw89Tx/e+6K7Nhkb4gJA9I4wlHkbB23oaplNR2HVUx9Fhis2HO7+rwPLp8UgOyULpR7fQ9eBbbJjERUMmwmOiF8LiGvCj7Cbei/PDdPE0TBd7IXAs17OehLiic3h4+wTqFiRhlkskFuV+hBuP7uFQ6hQlwZKf1duGs2VSLA2JQ+LUKCSHLkCKteolZzCNELKn0Kvj6G4s9otG0vQlKP3gOmRtF7DPa7KikgnRSwf41fxgjcTtlyB7eBkf5WYg1TsGqXHlONvBI59C5BHiLxMxkkouQ3b/PA4sTcO8gHRsrruItvYrqPbmjlEah1nbr6Pz50PYFR+LWKcQxPumQJqWiIDf8cLgvzz+6O/UcAbBdqlYlbIbDdJyvBMSojiz1Qp2yccR9+V7mDLKBVOKWhBbsxZ2fL25zaIbd8PVNRrOXkvgXXod8ScvwNdJgY1hFGzenAa7CVHwaeyAdrInhrP0MuKPn0dQUhpc3NPhtfki4k5fgZ8L5wsh+JmEmMgKNCzajO3pZajOqcC+9LXIsXOBrRrOhORlIX8Z9mw0rI3ssXkISaO/LOr5MBTl1mKHu4Oel682svcmIsIr0DQ/Bd5qw5e6CIYFHJgVqJeuw9z/45NKlgQVoSGvEPEGSRlPF1NnLEyrwFoJ225ZIyGuEmW+qs2mVXrZ69GLy0+XzNzv7FVPGpEt5iVVozoiSOVnMx/kLalGiRtX/uAieyr76Pa7ILI3Yhoy55ShIb8Cu+IykTzRAfZq5J9nw+ERqLrKBhu6cLNkpioIYXTd4OWp91krULmHwHz7NqjntDwzKhz0+99AcvAwJNLw3kOvevNmiZwN6LqrYNTI3gRQO74H89ka+YbWI1MhudAKSaYHjxBqkYU769zMH/SX2sgeW56i3uhLY0hm7nfBuhuwIZefnishe3qMo/MFbOqEdV/qJ3v8qB9tsQLftstwJJ1rcOQg0zfcSY1Zjq/u38Nns215jSSFZe/+D7KvVsJH0bDLidwdvB+se4NXg2mMIHt8vcQjAlB6qgMPP86GJ69h0acXZ1P6BWs4v0LDhf38yVqNPFBjs3HofgfOrw5QNUSakUZtJ3rokEesx1/UG3k4/KADZ/N583XMfFByrANtn+Ziao9eE5FZ/190nq9EymiOsGtpKPqCpT4802PfTlU8mP+tu7UcCcOFymYBu1G+mOtfiNLlNajLLEK+5wwEvMyL2rHyvZSIgC+6EPfdHUTt2QynkVaQjPWCLZeOI3v8aN3wAHj/pQNxe7Jhw8MG6wvPKh1k7/U8hJ7oQHiat6pBHuaDac0diNubC4afjz67DfNG3tJa7I2Zg5hxbvB+3QNRXmtRmb8Hhdb8qI9QO5lDrJfsKfIRkkaH3PSYeSjNL0f+BH34Uid7lJk1vKzTsT2nBmW+7qq60lOGLlJkCU+3TWjMyUYEn7CbmIOZnI1a6WbMH8WPzOm3UY/c2YWIf0E1RFq/IA1+XPskSC+uDF0yc7+zV31p5Lo1ZGUh1Ez+DG2RgT3SLUh/jcyK+RIAABM/SURBVNNJQfY059HlFSBGcL1RRPYKVHML3+Xl15yZgUBBxNscQvzeQ/YElWUJh9GBmBe4CrvY+rxwHfLcguHzAqc7Z0dLeHoVoKxoBRLHaP7GpenHq1kAJAdbwBSFq+o1Vw9eDAT9wQUwHxWCoqRgLl6AJDu4dzouvbarJtl7jgEVtBGSH1rAFATJ85KshaTlHGgfjbZNW37sPSFETkgaXfmz943RXZ8N9ZXB+42QPZ4xOCJi8KqHPIi1kpBEvH+7A98XeCsjcmwZ+kiRTUAdbnd3o0smg6xd9enoeoyuy7sRxzVm4o04J/uDyJ7JOMRtu4bOn2qRPELVOOjTS27bcUgqvYVujqV03UTtNFUl7NG94waqPFT3xELIng559JE9m8B63O64hko3XllsPltb0flTHVIUetlaL8PfLjxE9/0bOFZXijXBXnBSa9BV+hvET18wx3/mRQdMtwvETPvenwjKEQ4CSRE1KhEl0jo0LizA/In2sNP2nIiBc945xLz3EaZ/cA+RmzJga2YLj71tCF/gK29ItZE9k3FwzL2G+EO1cOa/RPWQPcqjHtFnr8HPTt0XjjmtiD9Up54P3x4a36nnw7FeWo2N9taqjpLIHmkpNaiNDFFFfTSe0+s3IUROSBodZdKvJ6NUqkn2LOE7dTP2p6UqFh3IyV7zilo0F9TKF2nklmFrcBimKtoDlQ66SJElPN31kb1NSBNM9izhM20b6uIj4aTQi3o1ASV5JVg0Vk4itOulq67okpmfXn8aatRslOTtRLYViyFL+PvuQGNqEqYpsa0ge9K1SH2DdyrK64zuSJgWn8mjbTtRwLjyTllxRdyMnWg0huwJ8LtxZcltxUbqgxyW4O2cOjRnLUKIBrFX4YRv2wH67rgRkqvfQeKmJSBhSkOcvAF0zwjARIhTNoB2pPtG9q63gmltlS/SuHgckuJUUNzcYHo1mKtnNcieFahl/wDzaVHv4+yEEDkhabRgR2l7Y3TXZ0N9ZfB+I2SPZwylEwzdEzlirRGRPfGIBLz7nw78UOijQfZ2oVXHalw5CbmO5hhfxRAvO8yr+EywU01a7hey54sdJztwZ1+i7jl72kisiRXitrSg8+c6zFMje7r1ktvYAi6TwzDHOwZJPZ8wBPJWYdkEN+FuRwvKp/CiHILInnZ5xHr8xdr5N51kr1ZJ9nrkHm6LiPBClDccw08PO3H7qxLMGcUfChugxrIXHi1BD7OCxKz3hx4mvKdOjXBFYtBqlOXUoi5jLfLcp8P3JZ7NTcxBOexBJLsgw2Y8xH/ORNBnDxG5cR+mH/wJAW6KqQJayZ4VHHNaEP91HVz4ZE/kqDOyx5K9GJ1kT4M09rIJz/bDQ7EurxZvufMj6eMRG12NxsQ4uCpf/Lxn9OXH/iaEyAlJo6MclqAW5dbwhhtZ2Szh57ODRx7kZK9h9mz4j3aE50haLSKu3n7pIkXsMG6hjmHcdcYN44ockT6PJZ41aJBWKz4sCa3FDg/HHqJNvRCO9bk12O4qZG6YLpn5fjKQRmSP+cnV2OPnAdp0ChalVytl4dqeKU7r0DhI5uwJ8bugYVwlrixhP8ofc/1XoHRZDeoXF2OFuzdc+oJ5ZZ58+xv7fRyold+AObIVFL8d6Je8FbJwkb1GKShrT4jH2UOsWdbINNAXWyDJ4M8FtAKVfxjMkS1/DNkTbIP+sSEhe4INzgO5SIL8j2SQfS5VDPPxftNGinSRPdvtuCj7BU0BvXs81J9ze4YXLxWHKImdemMuL9PgEC27ys8QIRTZYeU/2tHx1Srl8LCgSJqpJzb/S4b2LwrU5gtJ9OilTQfNe/TEIpySteNYlquKHAshezrkEevxl7BhXJ5/FXixtV6Lo/c7cDrHUyVjX7DUh2f6bxhXrhc1wg6hjulYl1aOJulu7Iicj8RxNrAxsYTt3O8Qf+JvcFXMtaGpYoR9241ZX9bAmZt/o43smXrCq16G+KoC2PAjoCIJ3HfLEFcp7T0s21/DuKZTkJlei7q4mcqIE0vWFqXXYv8Mf43hzt6+1cRjz/9CiJyQNLr8LaIxO74STQsyETyC60BoJ3uN0aECopO6SRE1UrFAw07LAo2kWYIXaMijeNuwdKIjPEfZKz5OiAndicakBHk+ioUfTRmZmK7US5fNdcus8omhNJbwcN2Ahox0BL0xD6W5mpHKwTVnTyzA74LInikFf0kSChJ3oj6/EnsSspAqdoYjv+7xsGc3PgbLE+IR+Dt3lFD5RYdPh4eAPtICZuV046J1PFkNlsGRPbU5exrymNqDqrkA5uB2UD2rstnfnxKy1082JGTPGFAp01ohqvgSOh9+j6a0ZMyPWIKiKD/56k0jyJ745VT8/XYX7nz5DnKC45AyIwvrY/wVq0AnI2HTeTzq+AXHd65Fdmg8kgNTkLu4EPPHqaI3BomcELLHRhAyD+NB5084tGYR0ryjkRK5G6dlvRdEdN86gqrFC7EgOA3rK87hfuct/DVcsUKWs49evTQqIfcM/2rqiNy/3Eb33dNoypyH1OnpWLPhIH7q6qM8Jnr8ZWKNpJIrkN2/gA+WpyMtOANb6i9pLNCYiDk5ddiTmY4UjxBEOUdiYdYBtMru42AyP3okQDe+nn393k/DuL0b0fGYYhmOzIhN2BMbBRc2sue8D5FnfkRQMLsi1hISm3UI/boLs862IsBTojaMO+urI/CbvRBTpqZhatE5xJ67hUBfRqORt4LjkkuIP/k9AqKT4eK3BFMD/BRprOEsvYL44xcQNDcdLlMz4LXlUh8WaFjCw6UItfllKHL3h98YD8T4bURN3nZkmffuWPW2A8+PZtZwZ7cFeT0E0oW12BceDh82qsbfpkNIGgG+loyZg+05tdifnIUUyhtBlj5Iid6DJuWwoPqcPV1yG97uYzLCWUK2bD2WMN7wN/dBArv1Sv5O5E8SOqfRAi6O69CwJAuhGkOEtrQUdXlrlXsaMmPnYFtOLapTs7HAPhgz3vRFlF0Slrt59+yzp9JDP5EzrJfcb9QrsdiauwtbE99GXWKsRiSXG8ZdjXlj5du7sFu+sB/+Ni8qmXhY4PlQEAFj297nbeCluaXMazZw4NnMkN8FlTXcD3np21DkH4uwVyeqpi/wZFbqZBaA0jOdeIwu3NgW1rfOj7Z8td1z2w7m6hHQTuojBkpZtD1j7D0hZI/NU1Ig31Llg3dAh0aAcokEvfeUemTvOQbiyV6g6LmQHG6FZEcaKOupoMZMVLVjQtIYq4O+9P1kQ0L29BlZz2/UqGi8/eEV3G3rhOzuv3Fq62x5qNwYsmdiBb/IvfjXpd/wqKMLsjvXcXxTgirkbmqDuIXVOHz2Z9xv70JX2z3cOvUJ1tupKk7/kD359iNp6z7FhVsP0dnVBdn933DzzGFUhCg2SVXo1XXtDE5cvgtZxyPcvfQ16hJ9NRpstnE0oJceu3KNAPVKCNbs+w7/vivr2ebl2uGzPWTvWJaLPJJmlDzm0OkvVhYzZ6St+hA/3HyAjvb7+On43/F2kItq6xWRDZILP8TpK7+hraML3R0PcefKCXyyJgk+msMFAnTjdBzMV4pbcSayhkNcM8L/+SuiP23BzPe+gF9YFNw2/Ij4TyrhzEYGFJG9Wf88g7BP7iL+7CPEfvw1/MN8tUc9X4mGd9kVxJ7sRNy3/0ZYzmzVJs3s1isZHyLiyweIP30fUe/+Hd6eLqqGVqh9RWIEu+WiZFEFGqTs5sSrkDWZ0S6PnjzpsanYla85EV99A14haYT52gL2Y8KxNHYrKnKq0ZS/H9WLtmFTUKgi2iaE7BnafFhBXszsEOVbiHeyKtEorcS+tEIspuxUmNdjE7kukxEXU4WG+Jlw1EjLRg63SatQZMMRRwvYvh6GJdGbUZ6t0CtzE1Z7+SlWfHOESh/ZE6gXK4uI7tlGpnlFFYrtxBrER8cCjRX1aNayaEWX3wQRMBOhMuv3u9CyKA0/6JJdbOqC/AO/ovtxN+5WzlFN3RH6vOB040EVHwNzcEPvYVLBeXDY0HMVSvZMLCCWzAdd9TkkP1wF03IZkm++gKQoWb49CyuTTREkLTfA3OB/roHZEKFqg4Sk6Tf9+s+GhOz1m1P0gHEolKGNxD5Bvehxq3C8/QE+jbWWV7o/WB6dDekTtMmgkUHbMO6zaAeis+qFSGwxiG1hCVfPUpy7fxPNQcZsaWTkO+75SNDftYCR+g9iWxip05PGdT/akJC9J+28p7W8J0quJiAqYR0KoxKQ6BGBpBnZKP/8P+j8+QCyXlPMZ3qi8gzyBuGPxhQhe+Rl9kdjkJQvDIMiGyyt+RFtD27gi2WhvGP2BqCN894J5uoh0IxqJGrQdFCfFrz0ow0J2XtanP5Hy/kkyZWpC5bvPYV/326TDynfvYULH1dihQOlGpJ5kvL80bYf7OUTsifsRTvY/cjJ17PQpFZ5Pi1/Dzn591qU+ag2Th5SL/Ahr7slPG1nYsZoI+euctgQfJ0IattpMJ+tHdghXMHyDACZHfCy+9eGhOwNuMOeRpARmYfUC4xgfGiRsQH355twHuXM2z+Otx8deybvGGd4vjTQZOGPaoOeZd3/KJuTcp/E+4aQvQFvOAmQnwSQSRkEZwQDBAMEAwQDBAPaMUDIHiF7JOpBMEAwQDBAMEAwQDAwhDFAyN4Qdi7p4Wjv4RC7ELsQDBAMEAwQDDxLGBjcZE9kj9WfyfD4cRfaf7uGY2WLEcw7lutZchTRlTRMBAMEAwQDBAMEAwQDfcHA4CZ7JhawG2kPz7HOCAmvwmXZPfwtYhIJNZNoJMEAwQDBAMEAwQDBAMGAQAwMcrLHY/AjZqH553YczXQyehf8vrBg8gzP9gLBRGxGbEYwQDBAMEAwQDAw+DDwFJG9ODTease3i5y1kz2RLTJ2XcC9u5fQFG6n2o+NEBXS8yEYIBggGCAYIBggGHiGMfD0kL3hsai/2Y7vFivORtV02vAIVF3tAtCFmyUzB/ZwZ82yyf+kESEYIBggGCAYIBggGBikGHh6yJ6pK4oOtuH2e1nwNtMWIrWEp1cByopWIHGMJQHcIAUcCe9rwy65R3BBMEAwQDBAMDBwGHh6yJ6JOWztt+DM/W50PbyFpqChuoP7wDmbVCRiW4IBggGCAYIBgoFnDwNPD9kT0VhY/R+0nSxHpq0r3F549pxFKijxOcEAwQDBAMEAwQDBgLEYeHrI3vCZ2N/SjlPZHtoXaJiYw258DJYnxCPwRQIEY4FA0hPMEAwQDBAMEAwQDAxNDDw9ZG+EgdW4ZgEoPdOJx+jCjW1hZIEGmbNH5m0SDBAMEAwQDBAMEAyYmGPokD1TF+Qf+BXdj7txt3IObAjACcAJBggGCAYIBggGCAYIBp4msjcb7/3SjqMZDjr20LOEq2cpzt2/ieYgMQE3ATfBAMEAwQDBAMEAwQDBwOCP7KmOSwuNqkOr7D9o8h/f23EiGyyt+RFtD27gi2WhcBINzTF3MpeC+JVggGCAYIBggGCAYMBYDAzuYVyRPVZ/JsPjx11ov92CI1uS4T1Mm5Mt4Wk7EzNGk+1YjAUASa8NT+QewQXBAMEAwQDBwNDBwOAmeyT83DuKSWxCbEIwQDBAMEAwQDBAMGAEBgjZM8JYpJczdHo5xJfElwQDBAMEAwQDzwoGCNkjZI/0jggGCAYIBggGCAYIBoYwBgjZG8LOfVZ6LERP0jsnGCAYIBggGCAY0I0BdbLHXxDx2zUcK1uM4BG6HyaGJbYhGCAYIBggGCAYIBggGBjcGFAneyaqrU5CwqtwWXYPf4uYREK7JPpHMEAwQDBAMEAwQDBAMPCUYkCD7PGY6YhZaP65HUcznXSeRUuYPM9eTykAiA+JDwkGCAYIBggGCAaGNgb0kD0DZ9GKbJGx6wLu3b2EpnA7HadaDG3jkcpB/EswQDBAMEAwQDBAMDDYMaCb7A2PRf3Ndny32EV7ZG94BKqudgHows2SmWBIZIuEtwkGCAYIBggGCAYIBggGBh0GdJM9U1cUHWzD7fey4G2mjbVbwtOrAGVFK5A4xnLQKTbYWTaRTxumyD2CC4IBggGCAYIBgoH+xoBusmdiDlv7LThzvxtdD2+hKYgcRdbfxif5kQpNMEAwQDBAMEAwQDAw0BjQTfZENBZW/wdtJ8uRaesKtxeIMwbaGSR/gjGCAYIBggGCAYIBgoH+xoBusjd8Jva3tONUtof2OXsm5rAbH4PlCfEIfJE4pr8dQ/IjmCIYIBggGCAYIBggGOgPDOgmeyMMrMY1C0DpmU48RhdubAsjCzTIhFQyb5NggGCAYIBggGCAYGAQYqDvZM/UBfkHfkX3427crZwDm0GoXH+wYZIH6VURDBAMEAwQDBAMEAw8zRjQQ/Zm471f2nE0w0HHHnqWcPUsxbn7N9EcJCZMnpBdggGCAYIBggGCAYIBgoFBiAENsqc6Li00qg6tsv+gyX98b8eJbLC05ke0PbiBL5aFwklEGP/TzPiJ7AS/BAMEAwQDBAMEA0MXA+pkT2SP1Z/J8PhxF9pvt+DIlmR4D9OmvCU8bWdixmiyHQupHNrwQe4RXBAMEAwQDBAMEAwMFgz8Px02hJ6EqP4nAAAAAElFTkSuQmCC;" parent="WIyWlLk6GJQsqaUBKTNV-1" vertex="1">
          <mxGeometry x="-13" y="400" width="273.23" height="108" as="geometry" />
        </mxCell>
        <mxCell id="gd7y4TCB3l7EOIuw51wQ-1" value="" style="shape=image;verticalLabelPosition=bottom;labelBackgroundColor=default;verticalAlign=top;aspect=fixed;imageAspect=0;image=data:image/png,iVBORw0KGgoAAAANSUhEUgAAAvQAAAFiCAYAAACZC0zVAAAgAElEQVR4Ae29PcsjR7r/r1D4WDAg89cZtD4jG8wYjOGwmQPvBKtg8ENg2GSZUGAWPDCw6+PEyQoMzjyDs3EgMA4mOePIifCAcXR+wYRWer8Ap34B15/qrqu6nru6+kHd0je46VtSPV71repPXV1VPdtsNoQ/2AAagAagAWgAGoAGoAFoABqYpgZmaLhpNhzazd9ud+7cIfw1twH05NcT7AK7QAPQADQADUxBAwB6PKG4qCc0gPnmMC9sNoXBCmXETRUagAagAWgAGvBrAEAPoL8omAPQA+gx2PsHe9gFdoEGoAFo4HI1AKC3gH61n9PsNKP5YUlr6zd0hPF3BAD9NIF+vVvS4lj2PdH/yr85Lbd9aW5Ny6PIp8880st+aeNO+/qMq33E2L9+8AUtnj2j2S+/aH/PaHkvvZ0v/h5y7wuaC/s8+2LQ++fqi7Jd5o9z871Hy2eiXdGe59folvbzE51m5t9xuQ06H3cLM2wZ90C7S2C49Y4O86Oyx2EVHm8GBvoVLQ9zmh/7huXcfFa0GAQmwg1y/s40RNly26e+bO2B/k16evdtunn7LfrwItbjp9XnnLpby0l0BfLXBvSXNu50UZ9xAf1aAqMJ81MEwAe0fPyM5n0B91mA/gEt1CQrF8jHA/Tre7KNVJ3EBOkZLb54oE2SuLz65DLwv6etRR7m5PQZzR/r6QfutbJsZT94TKsUYG4cB0Cv7sfrPR2tic14gH67pLkA5r6BvkU+7T1LgY6QIvxrCdOifZTQA7ZqDfRvvEU377xDdClAn1ifOrv293sFf4vdOuiB6T7/cQHjpY077eszpvapgHHx4N6AGu3hXtI3cPedfmDcvwwP/T1aPbafAJmQPv+C9ZcP9OHJqcjLD+nl0ymzLKGwPFbnxCnjSqCf72kbaG/Ow3/lCcH0PfTqycN8T7t1/XgwrIe+R5AzGnaofLLEVt8oRl0uMY8e2wdAby25GTvQ7xbl8prDamBQGhMwYkxwx7wRtc+Dx+USm8cPBtZoD7roG7j7Tr+3+yEDcq6Hv31brR5XwFx4y/WlXPfu0eqLx7RQQO/mx6BeQb8bZsNa/uUZGZPTe/doyfnbOuc2LZZSPabVA7msKgD/RV/OiaPaFkBfjoc8MTnSPgHmRRwAvRKRR/z4rZ8bGIB+uKM1AfQBDY8IGDHOeNpoRO3DEGSDzhTbjUHLswzDnVRl3BP7Tr83m58Z6Fljv/xCiwcZdhd7PHgfQQT6edLgz4NtYHvpBexrEwBu4xjQb3LicL0B9CbQpz9pyAf6rVwHrdaci6U0c3Iem7MHTg/n+9+7DGdNvs1y8+OClvbj+Rb5rA68Zle7pnoMtytnM5/YULvqejNf03xk++jrkr12EwMkA3ZR5zWtxD4H1UZzmh9W2to97nTyOogOrDwjg7rhoX9Drh8XS2j47+236cWbb5hA/ebd6ncO57t6luH8665I+216+sYduiPzU3m948krCthv0NO3tfR8a/jfeJNevP22Ud6bu2/Rv0T+HD6jPq1v5k30prcf99vU/qbHTf7f1nS5GTa68XbrxvH3HwbPGS12AZ1yHa0xbtBxJ7k+gTok2Dq/Pq6txWblaPsklMfRtLGWt/SGzp89pmXdMhqGrc6BXi7lEeneExtuZZlkPgxoYqOmC2D3vJt0vfXh8utrsn3/xyDfWXP9C4kNqCvdiyzahGGvSKv0KhebZIv8ntHcWAeerzXRtgynxr6GpDYql7ZU5RJ256UuAQ99aF17nXYSdarqklR+v91YL2EPPQN7oI7apMDVm5Ynt3EU6LXwui6S4gDohwV6BkAFfRoIn6wbG9/MAmEVcFo3O1Gh8Ga5Mr/5Xltz2yKf3BtRtHwdAkrjfHYLDcjNthH2NuwmOhu352FBi+LkDzfOzFcfjhdoWwNwWrSPc2OODJIKahmcfWD+zjv04s12AMz5MNC/eOtuufbek5+RF5fLMzm4cycO9B++ZYJ8NXF4h+jum+cD+kZ6q9bMq74f0I9Xc5G29+qkRqPeU25q4tj9R/VPXx8R4CEdBkZ/0L437BBIQ6+bys9nN1/8hvXR82ryP9ezUX1qyuZtn6YaEOEfPC5PX/GB7C+/kAlB1Zp5AxZ9cVsA2GYj83n2WMF8md8zWn4hl/moPE2vKcNbqHxGfVoCfTQvu/4Me06dquUkMztOTnvmAj2XT9lVK1fxnQd2a+JE4Tepbqw3T95J8Ut45nYy2t6Iz0AffgpQn4Y2aUuCcwn2yoamjv3jC4C+tAsvuenZQ88D90IHagHg0ktn37hUo/Hg7YF3FUYT4Hq/KI6PXG01cBf5KDhc+HdZN8zHyJvT9t0YtbJtOFxxxKXpwS6eKuw7WhPcNB+uu1OuNfFGNXHDNdpIiyN+0z3yMVsPpQOjffQ28PxvgvY79OIt0xv/ofSiG5DNnm1xjQK3NgmQcUqgl08A3r5LT5X3/w36FwO4DtvR9CNAr3ndb+6+aZzA8+Gbb9GLtzSgz6hPExsbYTXt6LrZbEJ6GxLoK+95UTb9qVnxxEtMXO1jKznOnMT4ph9dK/pC+eTKjsN18o1Hsd80Lxb3887HnZz6aOXy9DGj/UO/J9WHyybHnKT2ySibggnhVdZP8hAeZPbM6pDDgGXDnudzKzjV8ylhjoGqAPWirAxhJuytv3gsPeS8SbK0y1rBewCc2BYxb7zepio923byGM8vrH0FnL4EZt3etWXT8236P5cz2h5sS1kX/elC8QRCtK9pZ6F19p7b69f5NJrWQK9sZraZoQWegETqx+HDQF8tyyk2tBr1N5+mxNJQT2GuCOg/+tsN0b+p5u+Gnv45Y3wKan0QoK8GYWd5TbBgspJ8808E+vCNg8vgu4FqHuecfJreiKxJTbjMOQ3N9fR41QO2Zu+d7UXkcvHvhveT28Xnvd9wGWyI4e/F5MCccHFewSvnl9M+gXpzXiXQMxgLT7wJ9Az8wWsUuMNAb0N2kb4vLd93CsC53HIJj/P9O3RjTVCC9eC40fyq+rD9ml5ZT430prdhUn/L6TsbUpNuLySzfi1dy/LU1cf+XU1u7WU3qfVLCsdlTh8P2AZ2ebmd69qPwzW+ptQnGobrarWPrp3E/+tAh38Peo6TYDFHoxXQM0CpsihYYgh1QdPfJhzehEMVluExCeg5LfsJRqSunL7z1EPE4fRS6xLJx277lDaKhgmVjb8XEz5z8qRsapel6WdlM7PNKi1oE8mWQF88FZJLu0JPd8T3rEdvHQPl9YZlWzSKMz4P/TmAfrs6lGfPL3aePUb+vpG3hp4HYvHIV6xn35se6mDDZoCcbw199Uj3XECf6HVjMWdfm+aTcBP0tYHvO1XmSJoD6iCoKVXOUuAKcDWPNgnP+VumV1uFY/DlayIAc3z20Ac9/pwuX6Pph4D+TXpRLOW5S//idFKv0fzaAn1EG9wuUW3VQbd/0ErVQhCyi7L5y86AW40xnuVnvokv9wVrklqWIQFKOb538sF2aDoe1C9b5HqGgD/V1k64hPrktI+TD+sseGUgi0Akw0YIcqMgyG2Tc2Wgr0COIa4CqnD5/S+6Yvir0jRsVldXw45u+Yy0jLCy/tH0w3WpTdeXl/5dQhspT7t302mkbJy28JKLPRcd7gMo6s02U5M4j5a4DK2BXqTt2UMgz7nnJ1bRpw4p5dXbRvzfKM74gL61Pm17BD/v6KCfOz9PX24jyqiA/v333yffX7Aink2a3k2xesHrbu562NAaU2Pd6JmAvmE9gja06uuEa5wPQ0rALkV+Egp08Ijmw2kGoGQAHTh2idiNQbu4ejaQkm9TrA7HiQDM+QwC9A3LxGUrbZB2rn4TG1dhWRsN9aa3XwL4Vfl5bnR6Wtb/OcDIcRh0Q1cXgNkWej/x9DWrjKpuKXaI9lO/bfLr409PlTdUD/4+oT5cNmP5H8cPPhlsWi4GtQDgFvlJcJ0Q0DOchr2sgfoyWIXqquyvQVhKWI4XTZ/bIjK54nSaXhOAl23mh9Wasnk2BRcve+rEa88Tp4hdEurnTgab9hVeXhQph2gXbuPYBMRuv0ZxAPTqLbkC6BOPrBRjswH0yYO11VjCiy7eAMs3P7Fe1ZtWkxsShy3We9tLOvjmGQAJjqtDq1Vmb/lEmIQb0WbT3FMWzC9arqb5sF10qLA6tc82vu9UuRLSlGF70YEqh1WPwPcGzGqgLtaZizfA8kZSsUTGG7YhPA8C9Hfgoc/pPznAyB56P2TGNchxFezLsSQprZ7GHS5TUhkCfSrH9injaE77NC9LDaiJOjNshMA1Aaaal0toiUGugm8Xyjzl5/IWRxzay0A4fJWmUTaOG6qroQG3fEZaRljZN6Lpc9lqgNGXbt13CW3UCui1/MWTEXGMI0+mxD6BWrto8d2wbJfIUpeE+rnaiY9XbjkS25vb+IqAfvglN1vaLY/5S26Ed95t4IaCYDA8tQdtvhH53yorjooUj8Lb5+PUOenGypBrbS6NdtqGtizSap4P3yQVVFhlYrsav3O7eSdAXIbIJMHKQ52a00f72HlZn72QroG92vT6TmD5ylBA78n/Q7VMKLyGPnlpD9c5sT5OP7DsGvo9S2962kn9LafvVMtNDK3LvLkfOJtiW5XH9MiXtgmMUboNxP9J+XJfbDDuJKWbZ9+QJorvE/LlNmjUPrbdEj4zyFXLWMz61oJQAkxFbREsowtQblkY9ioI5jAzL5Q/kCfmdAH0nLe+Ydi0nVNvhj1v2Ti9qi5O/KCtavJNaCO2m08H/JtvU2ywjFzXJmAbqF+V/2P3KFARp2X9gnVQ5RHLcMrlWj77GPFz6t0ozvg89MMDvdC7tMMsfdlNhoe+PHd9IdbN66cSFKfPLOUpEKGbGHucxaaumnX3fEMwTqEQ59LzSRMRoFce9IR8lKDlgMH5hp4yyPB8MxJAIDaFmqdhLEnYx+gEdj6Jnxvnw+Uv1vnqNi7Pei6folhwngX0A+kg0U5s6xLoy7PaxckvH+rns9+5Q8JTfxNdj87ecLEBtX7dfWMPvfK26xtctRNxirLZQH+HqiMry7PtP2Rgl3UKnnJj5BeuD9uv8TVHb3qbcvya/ta4XCIP1rUYQ3jjtnNevtUX9LEj430SJcSLNOVYl1qvRDs0Hg9a1ifL7sL2KfXJap8asNO1xf8zDBWb/axTbpSnNQKZHL+1J9Yuex7QK7gzTmQR59LrR3MGgF49FRDeYN0WdtnKzxVoli8WMu5zD76gReiUmxECvXoSI+zGS2WcdxPYOhATpGdFPdf6qTCCd1LemMoarL2yFsqTdsQGXNPW9W8r5raqBXK9LPekbnijrLfdLG00gnMZt1Gc8QF99jio27rx/0MBvbGO3d00Fnu8yx49Xp6jro53uIJ/FUblO6d5zEMfW3/fKB+um2+CUnnL3PLNyDhFpnFD6h2oeT7VTZ/Lr1/FBERPXwMfxzYiHOcfBh9v/e2jMS0bpOvAKquVjt3RFNB7zoPn5TbiGvN0M6Tr4Yv/PWfHc9hYevZTgwrOtRdeyUnGi+CLpXjDrB1Hfg4tIbpzh7iMsfrYdmzyubHe9DZMAT89fMP/gzo7rOT58LauSxitXqym9x3+3zceSJ3K+syPYgmiJ21V/tj4FsuH+yOHsa6+CYThBLHCF2NqpD6qvHX9MK8+We2TXKaqzAw7vEzCvPpe3FTFVQA9FqDXoNysRwmD8wLOQkDP66R586x29cIce9W1cHyEorjaNmFwi6ZlQ7Nm6+S21QE4UDaP55y90I7dHj+QHmq7bPX5+NfkZ9RJHZ0Zqo/H3pq9WONxoI/Ux9tmoh41GpB6MO2QE4dtBqAv77+DAL0AQM9bYk/ijaIpb0gV51MvJJBrNxcfTDobLuVbS7f8spbYjSg1n7wbEQNP8cSguHlzXVLtwOJNuzbNx3c6ULB92FPma4Mg0A+oA23QYruHrgqefW+Jfedtct6qqnm6Vdw7wmN+l24KuNYAuiOgFy+QEmfUl08KRPqiXKX3vIRv10PPZRPLcm6MN8Wm1Km+PiF7pn7fSG96e/YM9MV5+Nabj/mY1RImA9DtHeO4j8fHnSW/nM3bn7i/DzzuZNeHy1t3za2P/ZbY6m3j0fbRNZT4v+9UGO/bTu30xuahF+VzNmk+K8/Yv8fAHgb64pQTcY49e2UZ0INAJ7zRIny1blwsTfHabuRA757wUj55EONcCfs20Je2Fmvm7TfLeutva6fxZ/aY67b+pbC9eBqie+3tsTkL6J9xO9p7MfT+ngPnOXE4TwB92bZDAX1jkXJD4Wp3QnzuVhMMvrhWR1Km2AI67FaHsCfsCQ1AA9BAjgYA9KVuAPSdrFtHJ8zphOOIkwKvCOPCPjQ/Dv2iHdAO0AA0cN0aANCX7c9Af6R94tGVGZti0dmuu7ONu/0B6y6sp9gEmh63rtE+aB9oABq4Dg0A6Lmdd4tTeXTlfJ90Hj2AHsuHLuqpRgq8IowL/TyAjO+asjab17bLq29jKPp5Qj+HrfP0H9loyOvT7au9mfQq9Xlpdru0+pxrAsWeaQmz8s2px+U2OIYp8NXfstrguMe8fj+AfdZ7Ohp1OtFhFc4XQH+VA2lYEKMVdmI7AdZdWE+xyXjbHZA5XNvA1nm2BsjBbuKeCh3k6cDmEQC9Ycf1jg5z+ZKpGYA+OKszjJYIjIhjd75xfU6BV4RxoR+6HpeO0R5oD2gAGoAGoIEmGrgKD/3j1S3CH2wADXSrgf/9rxXhDzYYol81uakhLCAIGoAGrlEDFw/04mbz/16b05P/vIU/2AAa6FAD//tf/x/hDzboe2z9v2U5fl/jDRp1BphCA9BAqgauAujFDSfVIAiHzgMNpGng7+++S/iDDfruL8IpgzE8rU/23RZIH+0ADYxXAwB639r5BpsQIO7xipvbZrWf0+w0K95kHHzTXvRtueE6el9dfyWnrCiY//g2/Xqa0ek0o1+/vltA/qOvXyk+n06v0HcfA3qVraYyCWrQptzP+roC6MPjj2vzNZVvKg68Adl3v8N3cPjVaWB1KI9PnJ3oOD8kHaHoarOJjhE2x34AelvIDY8JyjE64uR01hUtD3OaH5fR11+7ttVP7ojc5AD0jW9qFaRu6EcJ9D9+JuH9s+UVAv2Gvvv+Ffr159v0KBHcH328oR9/5smPmBS9Qr9+v6mP/3GZl5hEnU5L+iolv0Zx0tvU7XM5/TscB0Afto1r+z6APnfsbVLucYb9aHWL6D/+o/h7cdtTxtvL8vflbTV+fr6MhBe84YlTtGPoe5tR9M85cfT4qf9rQH8qjlFMf9mRq1GPHVPLgXBKZz67AugtgajzTBMP8vcZFd/10GEzgVu0RZ8eeqOtd4viScDs2jz078bgLxE2U4B07GHYq50I9NVTjPLpRgnn/L/fbo8+u00//sxh+OoPyxOunDh/b9CmRh+wxtMufgPQNxlPewD6FmNvF+1/zjR0oCcN2lWZPEB9kUCv+vWWFCMtdlG4VDZScZvoGGFz7AegN8TG559i9pkjpl7j9H1T6SJ9AD0pDz3Dbar3eOywnlI+rnMK0GtPMH78rFymVAD4x3fpu+8lqH+/MfcocPrCK//zkr76jJc6RYA+J05RV88kTaVl5tdrv99sihPKsIY+FXAA9F3qkYH+xVJ44m/R0z9Z7XB1QC/qv6OD8NLP97Q1+MmyDX4bfMIDoDdEx0B/oJ3xPYTa5SCZlVYXwB1r0y7Sv1qgv0vfFV5jbb08w18K3KbA8hTCNKjzVxLa1QTIqB/b0wTnv78rYP8VUhMAzi86acqJI5ZNcRnq2zSrP8f6ovUbPPRN7j8A+i71qID+9m16IZbe2F56AP3g0Npl+15aWgB64+YxYqDfrmhxLDd3ig2evMlztQ0M9tty3SOHLcIfF7Tcra0OKNeYi2Ui2yUtjpz2qgi3lhtKZ6c5LXZaXgzAxfKSNa3E+nZZrrJsq8Ba9zWtdyIfqy6+sjEga+nq9VH/e9bVN96syvUp0lrTar9IrI9mEy5vypKbrcdmPhsY+tTyGsH3vKSj2VV6foX3+eNq+YhYNy7SqZahCHDlzbQMlzPtO/7NWrPf0QSiXKair23n5S18lbCtPO38feBqlIvro8GyAfSVHSobWPUV4ZOA3oqXE8cqm93efd8UAfShfu+OIWKcLsdF336hYcbezaZBPiMYx2L6rYB+Q+VSmiV9rpcZQG/xREir+D6ms65+A9DrnXMzTqCvoLqEbQWyAnR98LgzYdQIL0572etQL4H+uFAwr24Ie7kmXAH1glZsLwbggx1PK6OnbNG62GVjQFb5a2nr33UK9M3qY3RELq+n3kY4tp1eB+1/s33GOxDaYJf2WQL9z0trLfgr9N3XvJGWobjyUCvQt5ehSNiMe7wtqK0BVJWX3Ohrrm23ytYK6MMTFC4DnxrktW0OnOfEqbGXoW0eHzq8Aug9Y0DNGCLAfmk5e4Yaexvl06FO+tChDvSbP63o5j/+g25Wf6ogFkBf2WLkbdmHPsaWJoDeEOEIgZ4hsTh20fR6F57ufelJV8LSBvr5QQ8vvM7svZlp3nb3FBhjQC7S8DzG1fIREwA9L1Gu0lvvu6ksiuMjV1t9UrGhtaqnNmnQ24bz88C7qrseXv+f046BNqcvwTq1PkbeKflsKlsu9mvjKYawQchuRj563QL/f/S3G6J/U83fDT39swcWAmnaZfBCZg386Zst+UhLhtcCnIsTXnwebF7TXUF+lX/st2Ywr5dPLW0p6nSXeNJwCkwqlMfc8Mb786/qvKSv9GM9P75LX329dI4BreqqpZcD5zlxatrU1kXXnwH0dh/lMUSOuzq4F09yhePjfGPvWjzdPCyp8RifOO4IfQ0xvhX5yFNuyhNu/kRPb4kTbDQv/VUC/Qg5qYF2uh6fxpQegF4TwpaPZhrN7m1t4Da86vYAX31mGA95efn3yrNfAT3HUWFODNdcDu0moQHwwlnGsyFOg9OsFz3nwXlWdSricn4DAH12fVKAXoYJ2aW53Sw7ST0PccPzQmYN/OnAzN5nA24lPDtr8t99VwE1x1P5Sy+5831tWTQ45rAMvD4oj/0m4tf9znkUV3FcJXv7w9donTi/6Bp6q445cYxyW+m9+27vHjoAvdXHo+MMj6PaWK3d4/zjMMfpYew18q7Jxwhr1dn6bYjxTdjK8NCLMkiAV0dYXiXQb9RJN8flDhtjLW36+1hcz13FAdDzju3ibFWxc3tMG2IZtgMDrSMkHjAjg7kDxm4eLlR60nXSsQQbuen41tBXy4ICda3Lz7GFVp5IWVRHqks/JY2EMGzbqr7+ZUQh4FfljdV3oN8UUNcAnxnO9aYz0Ffw6vPQh4A5ELZRmXRI5fKJ5TDa6TPvduuhL20i0nxFeeOLJxQ/v0I/fr2hr+SLubCGHqfc2H2e9wcZe5pUn/eM1eo38STU3b9UjUXdjb1Z+WjltOt8rs8O0G/k5thbK/pIlPdKgb446WZ+Ui+bOs3GxE3avX+EmupTywB6H9CvRyKIOsh0xMqDeWBgLsJLgFee7mGBnm9G1U3EBtpA2RvbQmvDBNAWG4KL5S7KLlp8YbeUNBLC1Ne/tAeAXnit7U2jHnhnj7PPo54J9TzB8K+dt8ukTQY6LEu5vCeSl6gb5wcPfe9PCfq8CTdNm8eQpkDP8foee7Pzce5n1hh8ht9doGevvTzCEkAvoR5A37Qf9xEeQK8GiS3tlsdSnKNZcuPCdlwEDPQj9dAzNJ/EGn5zDb04GaF8ZfllAz176P034+5uYEM8kjY97xrYRkGaPeDVWngG6FoPvXYKDofluFFPdrQ8drmrSYP7Btfb5np3O10G7NaTC9dGXltzfgB6AL26j/E4at0Dhhp72+Sj6lA/Dg4xvol7rQ/oN+ylF0dYXinQ88uljsvtVfW9OH/V67bv+AB6YxAZ22YPHpz1Taxx0bB3JOThZaCsfncnDW4YLod2k+CBO+DR5nLo4MrpzrxxxLGcwjs9TqD31cfpnAke+iRPv6HJeHs7ZZBxh7jheSHThlznswurDOUM6d4z0FU6Mn4BzQzf1eQgr0wa1Mv1+FkTBAbsVkBfLe2p7KGVT9kBHvqQ9i/9ex5HqzG8GiP4N3tTrPq+57G3VT4Nxr0hxjehIz/Qa0dYeoCe4zhn1sv68ZtkjdNyxG+etGq1nBOngZ39+Y+Nkyr9+8t7Pb8D6A1xDyXUz+nFP8sTSG52T8u1eEY5KgGqAbI4B94+FWVJC/uUG4bK4ghI65SbA59yo4H5pi3QL8g4C3+7pqXKx4JzVTY9f3FmMZ/uEgF6VU5x7KZer8pWwc7M+aaccnMU9dGeHsjz4svH1FZ97DZLyUevR3ESREL57XxG8jkPntsCfbU59kd5Gkwt+OoQXPM/Ty5O39+mRx/fpUf6CTQ1cc0Nvxt6VBteA3WR12dL+pU3yqZMCngCMToP/Y72cn3tsYOnndezKTbxvsDOFHGSDT/pdN47oo+x2pJB4/SbHsZeHgOz8hnfWMhwrjbB8tjLR1jeukVkv3BK/ia+v1nd1u7vf6LP5ak5xkk5nGYOnOfE4fyyr03fFNvteBC8z2fXZ3y6y60jgN4QwTBAb3sXXvw1Jij2jttrzeVnD6RWkwBfHOsFUQowK1jl+JUHiMug3STUTcWXh/hOC6tszJMHX5w5zWMe+s2G2EvurAF1vE6xfDjvqr5F5+m8PoF8hC2MCQyH069W2ZT9YjoZ/rdzAX21dty3zl6D5CZAzWEVJAdOnpGbVkOwro62tM+wdwCdJzaefJywXCd+IuGJo+VnPl3IicP5pV2dm896T0c+ZGB2osOqnTavBeib3BeCY+FhJcdJe/yNjYlDjb31+ThaOvPYFwT6DXvpxTGW7htkP19K0Be/OX+3yJkgiHoynDvhOQ25bl+3SU4cPX7W/w2BvuPxYGwaGVN5APSGoIcB+s0m0ROjla3wYhtvV53Ls+qdLrUAACAASURBVH79N0vfKQPl2cB2eB7oK4hsB/SiXBEPuvPGWxl+y8BelcPtKPINrvJttgrsuwB67e2G+htvxcSkqI9+1rNqF7adDuP2/4H6SI+amRfHDcRR+dpteJ7PZwP6dzVIDcJvGoz66iBOnik3xL5Cv/7M/1sQHTqLXpyGI54csKedQdsppwX0P79Cv34v1ujrJ+vYddDqzel6rmcH+s2GtrwfaXaitutsrwXom90X7LfECkdN+WSxhH0b6De0GWTsbZvPecYy915TliMG9AaAi/X01vj80e0l3RTn1jOQ/wfd3FrS538K1DEHznPiWOW0y13/uSHQdzwe1JcvYN/W9R5/ugB6o5GHAvrxC6O207BH24HpC6iboQnUJ6QFHwwP810Ftia82gDc/HO15Ma/ZOaReptth+v2+enARK9efWheOXjoMYZ4NYJx1pkETMNOzYF+0+F4MA0bnafPA+iNQYWB/kj7sRxdaZTvPCLxdiAA/UQH4+40NAy8e6Bcblw9OV5vT9hGkJwwUVBLcgD03P7O+LDe0UGdUd3+OLvr8dB31zedNhnrfQTlmuB9pCHQdzweQNvhcQJAbw0ofBzTab6nHaA+PNgA6MO2sTR1qQMQA92Q12LjqFxm0rV3vjpdZ0ZisvCVtSH20cfa2107n0y0nYycL77St+aFOxVr6LtxjADowzdwZfsrGXNQ33NrYaveEnuq2/De03gADYQ1AKC3B0JHhO03dV2kAAH0APpG3u8WwKm84tU69vjJNtb6dM86c+elUbwmnr3/0ThLB/aHnNSMLS81vvHYOT/SocNXwgPowzdwZXv7PobPVz8+d6qN1UF7K2z5htjapXQ9jQed1uvC+gmA3tegxSMi+ZKpDk5puEgBAuiv/oYxGFjqQC9OmfkstnFUTBxaAL2YpHy8oe++f4V+taBebJD98Wv/2vrBbDHUJKpBPn2PbwB6AH3fGkP6NRrTgP44P2BJso8bR/AdgH4EjYDBpGYwQRuNcvJwzRCLuldPXPoevwD0GB/71hjSh8YuQQNXAfT/t5yTuCngDzaABqABaGBaGhDj95P/vDXKSe0lQADqAJiFBi5DAxcP9EKo4maAP9gAGoAGoIFpagDAcRnAgXZEO0ID/WngKoAeAupPQLAtbAsNQAPQADQADUAD0MB5NQCg963PHnpT7H8v6eX/zOj3B6v4Y+W/LOj3/5nTN/99XtGg08L+nWqgra5T+4+vr/u+szaA4fha6L1Tvfs0h+/i9z7YB/aBBmo1AKC3RcJHLRXnKCcez2Sn0fDzwwezNFAvwGVBDxumn3IzKssgyhH4syYb9z+eq7DP/+K54ReQZk5SQnm8/Mecnn+8ovtd1+u/V/TNg3k5WZL1evmPBX3zl/IV6bZdQuVTNrFsYMdP/uyxTTzumr75R6BduL3+sfTbz2OD3732TsijLq/c9mup6+T+k1o+Dei7PE893saePpRaXoSrvdHB9tAXNAANXLoGAPTWzXD4F0ut6LkApQCQCXB+/rEEUAN81vTwwZy8MG3VKUXETWFWB3rvkwUPtNbm0eXTB/baMoRa15dsU81WteWbGNAbbWTVv5ikGPUZFui703W8/6RoPxymwUtUNB2F08MNFbaBBqABaAAa6EcDAHrjRrylffHK8m7ecJgiWoYuP5iX0F7A1z8W9PAvYmkOX0uvvoJ9ox7NxcIw6y+Hm54q94PAMqAI0Jt5rOn+X5b0XHmgu3gCISHvf2b08oHu+V/Tw8iThaY2SGlfbxiPbbzhAm3KtvdNSlQ62oTmpf3047+FHRaFbVR4T15J+XjixdIsf+tO11xGU1OuXuvLFIrT8DXnWfYI5Y3v89sNtoPtoAFo4Lo0AKA3bsAM9AfaGd/3JQoGzzqILQGoWGdfeFq7X6LSFGYrkJJ1MLy9G9p4oDWeB9vCXKaTMyBxPt4nB5sNcdntpyIcrz84lDry2KZJPbn8MaDnMCEbpOTHacTySUknHKatrlkzdf2nTf8F0Ifbr41dERd2hQagAWigSw0A6A1wHxjoJdjVA5P0qKplE2Kpzdq/ZtqoT3pnaQqzDHsCfsu4FlR5oLU2D44jnkJk1mOzYciLbR7mMGY+teXLLpPVDlxPexKUmD7bPqYbDmNPWpoMHpxGLJ8m6blhW+o6uf9Y9k+0c1leAL3bbm3sibiwJzQADUADfWgAQG/c3IcEel6zHANPzYM51iU3YkOsXN5hgJ8HWmuBWS0TidmkZiDgNAJ7ErgT+cri+47Dd3r12KZJ+kmgzXYQk8B/LOlhxslISfkY/aembVTYLnSd0n9SyxMLB6Bvok2EjWkJv0Ef0AA00J8GAPQKMoSRBwR6Bq4aL22x8ZU3cBZx2KtcQlFXy0MYZtWJLuppQHm6igHr2rKVMn+GKy5bzpIbYX/2nLcA+kRY5vrq9uPvQjbQw7YalBLLGMojGbT/snBO+Hn43/4Tfnx5Jedj9KG0waq1rhP7j69ezb4bcEzIsGOzuqS1DdKEnaABaAAamJ4GAPTaTXTLx9Utdr0fg1bCY0NwLUBQg2at7G07Xx3MxoG+AngFvR5o5TxUGKf8wwE9w6peFi7fxQC9sK88ttKokzi2MnB0p64jtpHd9nqYTv7P0HVW/3H0ljZg88lXx+WOtplpdGIn5N37uIx2SusTsBPsBA2MTwMA+o18pM7nzs+H2BArwbVmWYjTYQrwaTgJSIQAhlkdcJ38tbQY9qrwVp1GDvS++vq+i9kg+zePbZqkxbZvBtriNKEFvVSnCZUnAMXyzcsnY5BrrGtLa5ouY/XJ/21Hh+L0q/K9FKfZEGNEhh17twPKlK8h2A62gwaggX41AKD3Af26X6MzKFUw3G9+KZ2oKcz66lB+JyccHmitzYOXUbTZFMtpRCdLvETInBzVlq8rYPLYJqWNOAzbvhnQVxoTYM8e+5gG2+bD5e36yuWKlb3bPAH03dqz0iLShS2gAWgAGuhGAwB6BWlb2i2PVLwZstclNwyT/Sydye0YTWHWD1XScyr2BTA0ansE6vLgNNuczFKtw4/ZV5bTmjjUlS/Xtk48j22cMEqXbkdnO+UCvciL6xpLo4t8mtQrLezw/adacrPFko+ILtPaz9Uz4sEm0AA0AA201wCA3rhBDbABTsJcDKTOIWwGvFSvJ8OeHb5MR7z8SnqBU4GePev/M2v99luuS8jG/Lt9Rjt/b9ep8/bw2KZJHmz7UP1S0uK6xtLoIp+UsjQKM3j/GWBMMMag9oN6I3sib0zSoAFoABq4CA0A6A0h933zZu+iudRjDDdgBrxUmGXYc8JLMH/5j3m5rKMO6PmtpXyqTnSpTCLsMDD73hT7QJbrf9w2aGqD7Hbj8mm2aZIW2z4G4+UpMiu6b59qU9g7bAO9HCn56OH7//8c/afpsZU7+bbpEx17fdKX2BeM8Q1x+tcobAwbQwPQwHk0AKA3bng9Az17oTNBrs9OwjDLa6udq1Vmhj0H6LXlHEUaWry6PF4+WHb2siwun1OPYuIgTnlxOxyXz/dbp7ZnoOdJjHO1JxsMsuURot46WRMhros3rMwvNiEQ9WUb1oXr1DZGf7Ta6Cz9pyHQr/d05A32sxMdVlYdYvXDbxfhJRusP0Av0As0AA1oGgDQa8bo+xz6ErJsWBvHDb8WADUw12HPC786sGrxvHn8Y04C5Jucj556w7z/lyU95ycFEuTLvPw25/J562ToxB8/tVxqf4ED8gzstkaaA/1mU76F1ay/eMkU27u+DmMD+vP0n4ZAv9nQlvfizE50XGLdfXK/6LKPIS2ADjQADVyZBgD0RoP36aEf+qi9emDDjRY2mo4GztV/mgP9RvPSw0OPPjadPoa2QltBA1PWAIDeC/RH2nd8dCV7O3v3/hr1QeeccudE2Sv9nq//NAT6tX7EJc6rh4YrDcMWsAU0AA30qQEAvQXAfETdab6nXcdQ32dDIm0MFNBA1xrYkhoP6ja4al754ujbWfdOAbRv1+2L9KApaAAauBwNAOgtoNcfl5c3ZmxsQ4e/nA6Ptkxoy9WhfB9Fk82tDPTzIx2WO9ra4wo+Yz0vNAANQAPQQI8aAND7jFs8NpcvmcJJFeiAPo3gu8vVhQb0x/mh8+V3mFQlTKrQvy63f6Ft0bbQQC8aANBDWL0IC9ACaIEGoAFoABqABqABaGAYDQDoAfQAemgAGoAGoAFoABqABqCBCWsAQD/hxsOsd5hZL+wMO0MD0AA0AA1AA9DAmDUAoAfQY0YODUAD0AA0AA1AA9AANDBhDeQBvbVpDMc7YtY65lkrygZ9QgPQADQADUAD0MAla6A10OPMZXSQS+4gqBv0DQ1AA9AANAANQANj10Ae0KtHEg1evKLiQBRjFwXKB41CA9AANAANQAPQADQwHQ20BHpR0YavRgfYY40aNAANQAPQADQADUAD0AA00JkGAPQQU2diwkx+OjN5tBXaChqABqABaAAauBwNnAHot7RflG9hPS63gElMKKABaAAagAagAWgAGoAGoIEWGhge6Nd7Os5OVG6mPdCuReExs7ycmSXaEm0JDUAD0AA0AA1AA9BAngY6APot7ecC0FPhHB56iDVPrLAb7AYNQAPQADQADUAD0ICrgQ6AfkO7RelxPy53tIXHHY+MoAFoABqABqABaAAagAaggcE00AnQFyfdFF56LKXBrNGdNcImsAk0AA1AA9AANAANQAP9aQBAj9njYLNHdOT+OjJsC9tCA9AANAANQAPXq4FOgL5acoNTa9CZrrczoe3R9tAANAANQAPQADRwDg10APRNN8Wioc/R0MgTuoMGoAFoABqABqABaOAyNdAB0Dd9U+yWdvIc+tN8j020WPKDJT/QADQADUAD0AA0AA1AAy00cAaglxMAeRY9Xi51mTNFeADQrtAANAANQAPQADQADQyjgTMA/YY2q4N8sdSJTosdZmQtZmToKMN0FNgZdoYGoAFoABqABqCBsWrgPEC/qbz08NCjc4y1c6Bc0CY0AA1AA9AANAANTEEDwwP9Wrwpls+rP9J+DaFMQSgoI3QKDUAD0AA0AA1AA9DAODXQEujFBlcJ57VLZyqv/KlYP3+kwwrHXKJjjLNjoF3QLtAANAANQAPQADQwFQ0YQP/++++T/heshL4GXm5uPazqGp2B/kjHxZ528Mxj7wD2DkAD0AA0AA1AA9AANAANtNaAAvogvPuMrAH9cX7AshmfjfBda3E20iTsDXtDA9AANAANQAPQwJVqIA/or9RYAMy6pzD4HRqBBqABaAAagAagAWhgaA0A6DE5wWweGoAGoAFoABqABqABaGDCGgDQT7jxhp79IT94HKABaAAagAagAWgAGhifBgD0AHrMyKEBaAAagAagAWgAGoAGJqwBAP2EGw8z5PHNkNEmaBNoABqABqABaAAaGFoDAHoAPWbk0AA0AA1AA9AANAANQAMT1gCAfsKNN/TsD/nB4wANQAPQADQADUAD0MD4NACgB9BjRg4NQAPQADQADUAD0AA0MGENAOgn3HiYIY9vhow2QZtAA9AANAANQAPQwNAaANAD6DEjhwagAWgAGoAGoAFoABqYsAYA9BNuvKFnf8gPHgdoABqABqABaAAagAbGpwEAPYAeM3JoABqABqABaAAagAaggQlrAEA/4cbDDHl8M2S0CdoEGoAGoAFoABqABobWAIAeQI8ZOTQADUAD0AA0AA1AA9DAhDUAoJ9w4w09+0N+8DhAA9AANAANQAPQADQwPg0A6AH0mJFDA9AANAANQAPQADQADUxYAwD6CTceZsjjmyGjTdAm0AA0AA1AA9AANDC0BgD0AHrMyKEBaAAagAagAWgAGoAGJqwBAP2EG2/o2R/yg8cBGoAGoAFoABqABqCB8WkAQA+gx4wcGoAGoAFoABqABqABaGDCGgDQT7jxMEMe3wwZbYI2gQagAWgAGoAGoIGhNQCgB9BjRg4NQAPQADQADUAD0AA0MGENAOgn3HhDz/6QHzwO0AA0AA1AA9AANAANjE8DAHoAPWbk0AA0AA1AA9AANAANQAMT1gCAfsKNhxny+GbIaBO0CTQADUAD0AA0AA0MrQEAPYAeM3JoABqABqABaAAagAaggQlrAEA/0sa7c+cO4a+5DYaeESM/eGGgAWgAGoAGoAFo4NwaANAD6C9q4nDuDoX8MahDA9AANAANQAPQwNAaANAD6AH0I9XA0IMB8sMNCBqABqABaAAamKYGAPQWzK32c5qdZjQ/LGlt/TakyLHcpvlyG2GzrtpoLDroqj5mOmtaHmc0O81pue124Lpsu6XZavXFM5r98gvNH39x1jHEbPO0siNOX3a6R8tnv9Dsl2e0vNdtHtBbt/as7QPrHR3mRzrNTsXfYTVw/mfkklrboGydMUiOrQcG+hUtD3OaH/uG5dx8VrQ4CdDpB3aaNFB7oH+Tnt59m27efos+vIj1+Gn1aWLjcNiGOtiuaHEsJ4KsnflhNWKY6wvoG9rtIgf/B7T4RYBbIrzde0CLZ+UEgOPMHz8YjXbW9x7Q8vEzmqs6/UKzZ89o8YVeRoZVrnfk+syd5Ig8smwgy1ba7TGtUvSUEycl3dowbKOugb6h3mrLCTgN3xc2tFnv6ShBHkAPrUS1coa+NizQb5c0F7DcN9C3yGcsHsbWQP/GW3TzzjtElwL0ifXpqoMl62C3KDWtJoI8IRxA59kDRl9Av6Fku2WXffw3kWSP6YPHJigb0OyCb1faTkvnHq0e6xMNF9LnX9yT3iiGVTdMCdva9xbQr+XTDCdcYQs/pK8ffEGLwtutpfuLPyzXNScOx+3myjbqGug3lKy3C+5z3bRR/diyW5Re+dN8T7t1ffihyoV80BZCAwD6kQ5yAHpryc3AQJ82QLJHek6L3Vo9altrkL/YjXGg6Q/o0+w2RpsMXSb2rD6jxQMG4w2tNchfPBi6TFV+q8cVLBdPDPRlIvfu0eqLx7RQQF/F4/ZnUK+g3w2zefBYPcnQbbC5d4+WnP/jB6pfFWnf+6KaBD17TKsH/DkC9DlxOr8v9Af0bHNcPRrrtB23tJ8LoD/SHjBv9stO7dx3O15u+gD6kQoRQD8FoN/QZrcgH7SvDtJTf1iNcOAD0I8Cfh48Jh+0K5i2YXaosUqB9i/e8qXYLgXouZ4+G2w2DMA2qAvY1yZBCtbtcPpNOyeOHr+L/7k+3XvoU9oDYbpoQwb6A+2G6ovIZ4T3zy601E8a+UC/levU9aUGR9NTWQwiu4Vck64tRdDj8P/eZThrWu+W1vrkGc2PC1pqHtG2+Sj44rKIayqIOeunyw21q5abDQ2gf0OuHxdLaPjv7bfpxZtvmCfUvHm3+p3D+a6eZTj/uivSfpuevnGH7sj8VF7vePKKeszfoKdva+n51vC/8Sa9ePtto7w3d9+if4n8OXxGfdrcuFrpwBp413JzdVRHPWnHtMGaVmLfiq7tE6/3dzfFljaQ38s+Xu4LKPeV6E8iOJ9mduPJxMw7ETL6sm9M2Lr18Y4Hsj1y6sP1anJlODWWjmQCOcPwLBbfWXdebsJd6Z50S5Op9VF1ieVfkzbXIeyhrwdcTsMP/PKGmAT01s0zJ05NfU3blsuVjH0Hv/DyJRfoS3vL7401/uIpiTZ50cqg2khfphVsL7Z1ZILGkzhrSVRRL/FExtpHMX/2mJbakyW9/jn10eOP938A/XjbxurjWl+5pjLnAT2vUTcgoQJ2w2PZAugVFAXyme+rZQ7CU1qBR1UW5zsPJDQDkko40fKlTggCwlNQy+DsA/N33qEXb7YDYM6Hgf7FW3fLtfee/Iy8uFyeycGdO3Gg//AtE+SricM7RHffvAqg71M7agCr6ae+U24YgBf78N4Ao39vNtS0/6i6B/oIp2fns6mpjzEeyH6VUx9lv0Df9P3eDLCqMcSXFoNsCOjV7zrM8f9BqIvnWZWjWgrU5jQWLmM90Ichsz6NDW1y4DwnTqoWVNrVkiVjkuc55YYBePFFeE+FPalpqje2ZUhTnJ6dT2Vff3187ZtTn0p/qTo9RzgA/TTa6RzaGEeeWUCvbrg6UG82tJYePedGzIMh35A9UO0TylpAxWFJq60G7iIfBe8L/8kGDfMx8ua0A7ChwnK44ohL80ST4qnCvt1SCxO036EXb5ne+A+lF92AbPZsi2sUuLVJgIxTAr18AvD2XXqqvP9v0L8YwHXYjqYfAXrN635z903jBJ4P33yLXrylAX1GfVT7sOZyr9y+dTrwpl+trfceC8lp96Sd0gaVJ7w4cUd/YlQ8GSg97nb5uG8XE2HjSdhabXiNPnXgukXtxvbx9d/Qb1yfOS32a+MUmGrPQuiJg5zg59TH2741gzd7O7PgugaoOe3iWEz9pBmx/v6L4vSZVn1AAam5hEUBIU8cxDVSPw7vAz4uH4eZiQ2t+pMFuUafPdyxNCrgNMvLeXivgTp6wzZq/8oT7u47ECf5lB53e6LEMF2Av+H5FnsVpGc/Ymu1FyEWZsO68tkp9BvXR5xqdM/sc2qvR+iJg5wA5NQnweYf/e2G6N9U83dDT/9c01cT8qp0AaCvbNGlXZFWV3bNAHq+sYpH5iZo1xaqDWgbHY/L4AOCDSlPXuLEwSh3EpBw/jPyeQWN9Ixypwu3BHoGY+GJN4GegT94jQJ3GOhtyC7S96Xl+04BOJdbLuFxvn+HbqwJSrAeHDeaX1WfLmxfpJGkA397Kij2Qm3/2qkvP5chDMDeYzdT+m+i3dhGzuQ/FF9+H+pv7PW3f+d8suuT038ZuqOAFdBOaDNoUQ4GrF8oCrk5ZeY4Adit4Fvz1Ebqx+Hj5WTI1dLUJwzy/2gagfJGx4GcOGyf2DXa7tx2YQD2HlfKZfUtheGyRPOtdMYTB8cLH4ovvw/ZP9TGnE92fbhekes5gH67OpRnzy92WNcdaZto30O8XrWTAfTlRkC1lEV4vfamhzrYoClAYDW4bw29yvt0LqAPeRGrwTNoA6t+oXAKcDWPNgnP+VumV1uFY/DlayIAc3z20Ac9/pwuX6Pph4D+TXpRLOW5S//idFKv0fzGA/QMluGjWfvXjtAUg6wDzIX+6oHeHy9B3yEgt3XP4axJd1lud6Kh7BpYfsdjQgjos+tjlzvlcwiQauIyIM2C8BbypCa0S03eahxigIwdA5lQP65LCAZVfht3fTafc8/eaQdA9bqklFcPL/7PiWOn4fnMIOsvbz3Q++MltG1CexT25nCWvspyuxMNbkNzyZA7+bLbOG6HhPp4bFvpZej4Ozro587PsSH2fG0xdNtPLz8F9O+//z75/oKN59nQN/NtitU7Z0OgZyjhm7V7PRPQN6xH0Ia6baz/GbSLq2cDKfk2xepwnAjAnM8gQN+wTFy20gZp5+rn2Nobh4HT62X3d/QKOgO6FG08gHZEfbjv+EF2BEC/8ZVBTnYsyNfr444B5n6ZqQJ9BU++JRFSbwyiFpB59WuNJ+lheNLgAp5Kg8GwtYfe3484nxBo8u/FlW0Sm4DYtsiJY6fh+RwH2REAvTo5SG9b2d4eTXF9APTy7HkB9gLocWRlr15mo397+hl+D4+bBtDnGkp40cUbYPlmKx5ve9NqAjMc9uRb2sMwEAAnjusBA2+5dNEkgVz/XlYDZjVQF+vMxRtgeSOpWCLjDdsQngcB+juX66FPgvlCZ/1rR2h8/EC/IbaZgnDZ93yTEA7r+y3Wp+N2CA+MsTRrf0sAXj2NJJgvtMOwHYF+fSzL+p/BM7KsJ6F+XCfbe6vXO/5/Yl1z4DwnToItGYD9nna2qw7Tpf7i8RI0mtAebGunXWRcX5k5rO83Ts93bV2fBFsPv+RmS7vlEUtuEtrGpwl8l9CPO7BtJ0CvGotBuoOlMHwD9y9dWNHiKDxz5wJ6nlBEjt5r2TheSNfAXm16fSewfGUooPfk/6FaJhReQ5+8tIfrnFgfpcWW9lenJoUmp1r6SqshPWphN8oz3Z92hA24TAqWtTLwb+FTblqULWlCzIOb6ZEv4TvQpxuly+nXTWyqcJ3pRtg5A7CKjaFaG/nLw1AYPhnGH69ZPRnknM2qXL6E+nEaeUAvluGUSztq4+fAeU4crnvkGqsz/yaOoQxtim0KzqqtE9pDheXNsdIjX9o5MEFslG6lMW677PpEbMz1GB7oRf2wKZbtj2ul9zHZIgPoBUyLkyZWtNZPzihOn1nK864DN+UNeyfFZtKadfd8Az/p62nFufT6cXod5GMPHpxvDcjpUCQ2B6+1dLo75aY8q12c/PKhfj77nTskPPU30fXo7A0XG1Dr19039tArb7u+wVU7Eacomw30d6g6srI82/5DBnZZp+ApN0Z+4fp01rkSdSDOeC+fTIW06Hb8vrVT2EBNrufVOxs858qHTrlp6glXdk+0G4cvIV70cTk2BPudNnYUJ1+5duU09euYPfTibO9yOUMAqLQxheukg6F4u6ox7nRxyk2RJ3vHBVSX56Cb+cg3vHa95ObevfJNucVpML9QeC+B1vY5cJ4Tx9MW3CbqqtJ9Vp3R7jlX/rxAv5GTJTGxkO0cbMdKB/PHX5gnEUXsMQTQK5tHytF9GAB99zbV+vKgbXmZ+eYBfc3GtBgM8A2Wl+eoq7M8prqBqzAq3znNYx56bcmBE7dRPrw+1wdrlZfeyUOUMwgmaUIqPfQVlPMSG/sa83QzpNtxyHN2PIeNpWc/NajgXHvhlZxkvAi+WIo3zNpx5OfQEqI7d4jLGKtP/oAT01tABwqa+Xf/1fWS96sdtkGwrx1WckmOPlkudclxYn2Y0y+vGXbTB245AZgfxcTILY+RlzGZ99na7afN65PWP41ysdfTc0JLtf7YgnYFf+4mwyqOb9lL5aXXw6n/g3DWsF7Fi6viZWt7bOUmZjfPmu7S5jX1l21geodz4jS0l9Q0w6xqD9bE4wcaSJtpcxyzzGaY1nrT+5z0vM+fiQml+8TAtAHlZwAAIABJREFUyEsdTxnSgqVrce+VT1fS6xOr65h+A9Ab2tA1hf/9y8wHtksG0IuNfZ63xJ7m8sz4ug4ozrNeSCDXbsoOaJf5iKcBFTCLPMonA+WN2r2BV4JLzacdkBRPDJwyirPz6+wQ/13Bs+8tse+8Tc5bVTVPt4p7R3jM79JNAdcaQHcE9OIFUuKM+vJJgUhflKv0npfw7XrouWxiWc6N8abYlDrV16dq/7h93XAZOsgG+rJsfWmnqpv9VtXqTc5l/3EBujkAZ9jNGOS0yY1vDDDChsYeHkfc8aB5fZrqRoSvPJkOyDHQ2Zs2s4FeakeAVgFkDFrPqIkXtdJIrL7sMecnCWVeIt/FF+YZ+HZ6/CQhvmTGstszrsO9yM0xB85z4sTsEvvNPrWnetNrCbouQDcHYMtuSmOsBXF1QbtqI80ewYmTVkf5lIHfC2Bq3M2neX20vOz+PqrPAPpKQ1Nps+sqZx7Qj6qTXWaDMfjiWh1JmWILDDiX2R/QrmhXaAAaOK8GAPTntT/0X2d/AP1IJycp8IowLuzXCR6/Y1CEBqABaAAaaK4BBvoj7XF0ZeQpGrTVXFvd2AxAD6D3H3vpXcLjAvTYJhXn6kjIt5sBCXaEHaEBaGCsGtgt5Jn08z3Oox8pO41VO0OUC0A/UlGODZSnUp4hOs1weaSsT+f14/LacjP2cHUDtPRr65R11vqa618otsm137KOSQuw2/W0dYbu1ns66m+OnZ3osMpIZ6TcgbafdlsC6EfasaYC0GMr52UNSAD6y2rPIW8WANM87cBueXYbUttnzmu9o8NcvmQKQI+lNyNiSAD9iBpDH0jHBspTKY9uQ/x/5hvfSPsWdAFdQAPQADQADVyaBgD0gA7MsKEBaAAagAagAWgAGoAGJqwBAP2EG+/SZpeoDzwm0AA0AA1AA9AANAANNNcAgB5Ajxk5NAANQAPQADQADUAD0MCENQCg77zx+M2X7ls42844V/vyrbnzw5LWnZe7+WywbX1GHx+bnzC4o59BA9AANAANQAMT0ACAvvNG6gvo9RNPup8sjB6uO2+nmgkMjifDAD605pAfNAcNQAPQADSQqQEAfabhwgDcF9BvCB76GgjvsC3xApHhbB3uSygDbAMNQAPQADQADaRoAEDfIQSWBu8P6FMaFGG66Ph4xTd01IWOkAZ0BA1AA9AANDCMBgD0AHo83nI0wEB/oJ3z2zAdEwMg7AwNQAPQADQADUADqRoA0LcCtjWtDnOan2Y0U3/lxtXZyV3nvjqIcPL77YqWBw5bfr/YrR24LuPo6c9odlg54coG56cDM1rsAp1gtyjLevRsrN269ZkfF7T0lEvkl1OfVGGeNxyA/rz2D2i3VV9FmmhTaAAagAaggcvVAIA+FxK2SwvkLehmcNfSZwBe7BfBuDaINwP6Da3lSTgh6Of07Hw2NfWZ70OTjTk1qc80BhMA/TTa6XIHZtgfbQsNQAPQADTQRAMAeg240w1XecLnhxWtt5rotitaHDVPvJY+w3ThzTc832u14TUE4kXZ2Lse9NCLcvBpOAtaaXmXdQv9xvURcL42jsRc73jyEXriICcyOfVxyqfZUf720d9uiP5NNX839PTPbtz09rTjAujzbWfbEp9hS2gAGoAGoAFooG8NAOgToNJphChYV3C81EFfLVGZUTEJsPNlD7lvKQyHjeZbdRaeODhe+FB8+b3PCy/qzl5/+3fOJ7s+XK/I9RxAv10d6DQ70WmxCyxtqmztaCNSF4SF3aABaAAagAagAWigDw0A6DMAjEHWAeYirXqg98dLEHgIyO06cDhrclCW2/W0M7BX+wDs5UPl5xDQZ9fHLvdZP+/oICCe/+bYENvHgIM0E/r5WfsBygeNQgPQADQwRQ0A6DNunqMH+o1vUiGX21iQL0TL9QHQW0C/xqA2xUENZYZuoQFoABqABq5NAwD6iwR6zzIZ6bX3edPZQ+/7LdYheCLQNF4sTfu34ZfcbGm3PGLJTUa/sNsOn3FDhQagAWgAGoAGhtEAgD4DXBiA7SUoQrT8mzqeUku/NQDzUproplgWjumRL/P2bZTd0KZRupx+5dm/LKAX9cOmWAzAlc5hC9gCGoAGoAFoYOwaANBrwL3ZfE4v/lmeqHKze0ofGb9pYuYNrOJoSj6j3XOufGhTbDYANwTvEuLFmnkJ98GJAJ9+IzbsLmllbeYNibj1BCVk37N/D6APtTm+18aBs+sUZYEeoQFoABqABkoNAOi1m7K9vOPFX8MdhWHWWXd+WJkvXNLS5zjpQF+BtpOPepFVwOsu8pUTgPlRvMDK3QxrdAJ1PKV/Q+zs5ObTvD5hexpl0Wx2nu8B9Oex+1T0gXJCH9AANAANQAPj0gCA3oDHRA99Ecd+q+qc+E2vJei6AN0cgFsCvdocO6OZZzOs0xnlUwbzzbcM+AB6x16GdsbVsVFWtAc0AA1AA9AANHA9GgDQA8pw1rqjAXjocRO4npsA2hptDQ1AA9DA9DUAoHdgbvqNio7Ztg0Z6I+0x9GVmPBhjIAGoAFoABqABkauAQD9yBsIcN4WzvPi7xbyTPr5nnaAegzkGCegAWgAGoAGoIERawBAP+LGAcznwXgndlvv6chvjZXXw+qM5YFOcSOBBqABaAAagAaggYAGAPQBw3QChUh72h1vvaPDXL5kanYiAD0mNBgXoAFoABqABqCBMWoAQA/onjZ0o/3QftAANAANQAPQADRw5RoA0F+5AMY4y7zUMv393XcJf8PY4FI1hHrBMwgNQAPQADTg0wCAHkCPWf1AGgDMDwPzws6+wQ7f4SYIDUAD0AA0cKkaANAPBHOXKiDUK31wBNAD6NFf0vsLbAVbQQPQADSQrgEAPYAe3syBNKCA/uPb9OtpRqfTjH79+m6xDOfR168Un0+nV+i7j4cDX1WmKSwHamA33ATSbwKwFWwFDUAD0MD0NQCgHwjm0Fmm31natmEFzxv6UQL9j59JeP9s2RPQb+i771+hX3++TY8Sof3Rxxv68WeeYIiJxyv06/eb+vgfl3mJicrptKSvUvJrFCfdbm3bCvHRX6EBaAAagAampAEAPYAeHvqBNJAG9IkgnALLIgx7tROBvnpSUD5BKOGc//eX7dFnt+nHnzkMX/1h2QY5cf7+bgzozfymNAijrIAGaAAagAaggbYaANAPBHNtGwrxp9/ZGWa9YMrgnerZ7gPotacEP35WLgUqyvzxXfruewnq32/Mk3pUuWd0+nlJX33Gy4lMwK7qrk0yhCc/NU5RXw/Qq/zN/NBfpt9f0IZoQ2gAGoAG0jUAoAfQw0M/kAYqqL1L3xUebW29PINpoie9SqtmvX2DdL+S0K6WARmTBi6zCc5/f1fA/iukJgCcX3RikhNH1JPLUG833ATSbwKwFWwFDUAD0MD0NQCgHwjmRt1ZPljRkz8W9MNPt2mzeZ0++elW+fmPV+mHP27Rk59u03teO71O7z1a0Ze/3aIfirAi/Kv05LfX6NNHr1sThdv0JefxgYizKMMWeW7ovW85jVv05SNPx/rALlcoH09cb9mHD5cM4QZIV8BeLlPR17bz8ha+SthWnnb+PnA1Jg8eWLbKwctx/MAvy5kE9FWdCpvkxLHKZtt21P1tJHqEjYYfA2Bz2BwagAb60gCAHjdX2iigf02Btg7oxf8SvHUhVhBegrwd58m3OtRLoP/NzuMWffrta8aE4Ic/XqNP9Hbh8mmTBj0vM5/xDhY2dDb5zDBtrmm3Qb0LoJ9RCNi5DHwyj7f8OXCeEwdAb02Yx6t7fczA/2gnaAAagAb60QCAXgfHa/3fAmbdI//eI4ZtC7I3wqv+Gj35aUWffKCD+4b8cSTQS6//px/oXvlXi6cD721ep08Lz/0tEr+Xnb767stvXzeeFIh8iicLf+jhOV6z60d/uyH6N9X83dDTPzdLVx+4vABcA6ZlHH3tuLa2/d27xMtkTvbadk6XYdnwxlsechmWgb04oUY/OvPju/TV10vnqE1vfTi/6JIbK/+cOFy/wFW3O/7P1yxsB9tBA9AANDANDQDorxXi9XprQO96uyugriC7TtwcR58EVEDPeVQefg7H8TRAlxMKjmMPLJxG6Hc7fOjzqIGegdcH5bHfBOzW/W4AsTiu0vb6u5/hoa/TP34P9TN8D21AA9AANNCPBgD0Othe6/8M9L+tDA942ek8kK3ZybeGvloOw6AuxMtAX33nwribF4ep0kxZ3tNPZ2k7CHk92gZQW55r9dswHvqyfMLr/4ryxhdLfH5+hX78ekNfyZdfhZbkFPF5AgEPPZbEaONE276D+OMc09AuaBdoYDwaANDjplOtoW8I9J/8VG5sDcN2Be+5QF+fh9yIa6zXH08H0we7fKB/l6rlMK7HPPp2WQZsn3dfTRhCEwnz+3J5j3bCjC8+5wegB9BjbIUGoAFoABoYTAMAeogtD+jZq//Hq/Slc6INe9rbAz176L0n33TYdqNecqMd1+i+wfU2faWvd7chmwG7NdDzUwL72EoT+tUSHwD9YIO4PmnE/+OczKNd0C7QADTQtwYA9B1CYd+N1Vv6DOcNPPQM2j9449yWp+W0B/oNb8r1nLLTpT1GDfTyGMroUhcb5PlzJ0Bfbb6Nrp8XeXJ+AHoAPcZWaAAagAaggcE0AKC/aLF9Ti/+WZ7ccrN7Sh+F6poB9Aq0jRNmxLn0fPKMWArTAdCrtfevyhN1pjvLz11yo5bbfH+bHn18lx7FPPIM8urKnvUZ/fr1hh6p7y3Puu97kddnS/qVN8qmePlHC/Q72s9PdJqd6LjYDTbAdjnpRFrT7ftoO7QdNAAN9K0BAH0Ici/ge9vr/OKvgQ6VA/QaaLtr6G/Rk+L4yS6AfkNi8lAeT+nfEGtOHAJ1HEF75gJ95fX2rZ+f0UluWg3Bujra8mTFdwC9gn/nvHsnLE8I+IVUVtpWXubThZw4nF/a1Rk413s6zkqgF1B/WI1XJ07ZR6BdlAl6gQagAWhg3BoA0F/0zbJHD72w2wdiaQ2/4VXAtnyr7AcbKjezdgT0Mq9PjTfY6nCv5zPeDpcN9O++W5w8U0L2K/Trz4G3xYbOohfn1Ytz5NnTzrDtQLoF9D+/Qr9+L9bo62ff20CdA+c5cex84599N57t8lh46Asv/XILL/1Fj33jHQd82sR3aC9oABpoqwEAPW5qAJuBNJAL9NWSG/+SmUdfL6mE/ZoNq75lNRf6nXdg1Lz08NDj5unVyEBjAfKG/qABaKBrDQDoMYAD6AfSQB7QV95sc9mK5qHOWbd+oSDPNnYGyvWODnIN/Wl2oN1Abe6UA/livIEGoAFoABroQQMA+h6Mips4Zt4+DTBsNrtWQH/62T2i8tHH2ttdnSU0GvRfOMDbNlX217zyYqnNaXak/Rr6VPbB+AewgAagAWjgIjQAoIeQL0LIUwAUGzqTP8tjK52NqrwWvrgu4+fRXzvQz490WO5oi/6O/g4NQAPQADRwgRoA0F9go04Bbq+xjMkA74Pvjzf03fev0K8GxM+KDbI/Nj2O0pf+hX13jfpCnfHkBRqABqCB69UAgH6iQP94dYvwNy0b/O9/rQh/w9gAfWNafQPthfa6Rg0Avq8XvvtoewD9BIFeDHz/77U5PfnPW/iDDaABaAAagAaggYlp4P+W5T28D7BDmtc5UQDQTxToBcyj015np0W7o92hAWgAGpi2BoRjDvfxabfh2PoggB5Aj4nBBDUwtoEE5cGNCRqABqCBdA0A6NNtBV2l2QpAP0GYG+tAcP/hN/T85Uv6/ffftb+X9M39NDFeRae9/w29FPZ5+Q3dn6D2nDbKrM/D57pG5P/PH2Jy2VAT7z1aWW9rLt/Y/OkH6HNKqx+s6MkfC/rhtxW919C+Ko2MeJ98W75F+8lPufm+Tp/+tijewI32vDw9j/U+3kbziHtenQLoMwbqc4t2jAPB/W9skGdgmxrQP6Rvnr+kl30BdyYA52tunPUB0Lcf+N+TwPjDHwLi9b9bNC0AvE2f/nSLnvQF3GcB+tv0pZhEFO2S2x7jAfr3PpBtpOr0Kv3w2y368tvb2iSJy6trMfC/p61FHl/+Vk6C2G5PftLTD/QZWbYyzmv0Sco9PSdOSroNwozxPp5/nwm0TQN7IO/2NgTQT1Bw4xsIHtJz6ZV//vD+tL2sfQN33+nbeu47vy7Sf/i8fKIDD32DvlMB45ePXm8Qr/1No/Mbb9/A3Xf6dp+Tny/DQ/86ffKTDtkuoD/5lvWXD/ThyanIzw/p5dMpnjRxufxhWbM5cThu19fx3cdHODYE+lbXbXEp6QHoJyiY0Q0ElwRkXQBqTFN9p2/n3Xd+XaR/Sfqx7d/X50evld7fn25PG+aFffoG7r7T76uNNwzIuR7+9oD2yU8VMBfecn0p1wev0yffvkZfKqB382NQr6DfDbNhLf9xi4zJ6Qev06ecv61zblPxBOS31+iTR3JZVQD+C2DLidNb226KY6exKdajhx5tfingHqoHgH6C4gHQ9zgIdAGoMU31nb6dd9/5dZE+gL45lDME2aBjt/8UPjNoeZZhhG5cjb7vO/3ebHxmoGeN/fEqffkob8xNAXqeNPjzYBvYnncB+9oEgNs4BvRigtQ4Tl69U/Q5uvt4bzruz4Ypdr6mMAD6CYq4t4HgfrneWt/U+vLlc/qmbhlNb0Aml/KIpRj3xYbbcl3+S7k0o1q3/5KeP7QHjfvk26TrrQ+X39jMy3sAtGtsXf39h86G4JfPv6GH9oZgA4Dv08NvnpebZIu8X9LLbx623yzbqj4N7Cb6TrQ+v5Noq9rNv1zelCU39+/TQ7HHQWsrb5tOpV8ba3nLZQNPfnuNPq1bRsOw1TnQy6U8It0PxIbb0kMrvLPixsiA9kPhTbX73Ovk26TrrQ+X31j7z8smtGsM8p0116+S2ID6ie5FFjpg2CvSKr3KxSZZub79ibEO3K5Ts88Mp8aehqQ2Kpe2VOUSNuClLgEPfWhde512EvuGqktS+f12Yr2EPfQM7IE6aprzA7/Ml9s4CvRWGXPiJNouBSJ7u493WMaUeiCMpasz2h9Af0bj53aEXgaChzpYahArwenlN/ra+GrNvA7/3v9TIC3YBjKfl88VzJd5vKRvvpHrrhXYPaeHWjoV7Lt1EWkY9WGgVGn544ROponmZddfAbBdJy1PO45WryTNtKhPtC623US5uqgPl7eu3pxXoJ2MNm1qs3OEf/RaefpKAGpNCKrWzBuw6IvbAsA2G5nPb68pmOcNip9+K5f5qDxNrynDW6h8Rn1aAn00L7v+DG5OnbSJgx0nUw8KgpWNXqUf6tLm8ulxjP89sFsTJwq/SXVjvXnyTopfQg63k9H2RnwG+vBTgPo0tEkbgL750z6jPcYDp0n3OpTdaG8A/QQF0TnQa6BkelSFB7k6vabygg8M9AXAlaflGMBZeH/v0zeF5948Tee+8HwXHnJ9IrKh+wyPv5sTADV4sC1i3nhdMyo91xtdPCH4xjqKkdOXUKrbu7Zser6p/3N+ifVpbDdO31sfeUTn72bbKFtzHdiGUaCv2vn5N/cNr7+wW+mxr8mH84tcP/rbDdG/qebvhp7+ueWNTwMy8yQP4UFmz6wOOQxYGoQa0Kd9XweQkforoC/SLmGOgaoA9eLUEYYwE/be+/Y16SHnTZIS6hS8mxMApQO2Rcwbr5dZpSc88uYpKMUTgm+tfQWcvrSXHuc9lVagbHq+Tf/ntKPtwbaUddGfLhRPIMQTEtPOwm48cbDXr/NpNK2BXtnMtIuhBdZfpH4cPgz0+lOf18ynK3KNPj+1iKWhnsIA6A3AU32sqXYRfpJ2BNBPULhdAz1DcsjDyb//HgKuJCDLAaBq4sBlU2VRQF6BXtp59xy+C6DntCyPf0xTGgBznapBl9NrD6YqTc4vEehVPKcOXDbLbpz+77+T74Qjbi+3rpoeUvQjw4TSScrHqZNWBvnbUEBfBzr8e9C7mwSLbv3C7cthq4kDA5Qqi4IlhlAXNP3pc3gTDlVYhsckoOe0XiUun0on1L6c/h++OJxeal3YTgnXlDaKhgmVjb8XEz5z8lRri5CN7O+Vzcw2q7SQNoHk8PG2EsdVVptvk57wJJY3ao9AHaNx7HxbfO76Pj5UuZFPQt9voYs29gXQn8nwbRqt24GAQS0CkQxtIShMAbIsOzPQVxDpglu4/L419NWyoCpNoy3q6mrUwy2fkZYRVg4C0fTDdalN15eX+C6an39gamS3uvRTtJEQhtu9aj9tiZK2BCcE/Nn2C9m11fcMZBGIZNgIQW4UBP3tmmYDBvoK5FwoC5fft4a+ArQqTaMsdXU1bO2Wz0jLCCvtEE0/XJfadH156d8ltJHytHs3nUbKxmkLL7nYc9HhPoCi3mwzNYnzaIrL0NJDX9rZs4dAnnPPT6yiTx1Syqu3jfg/J46dRovP3d7HPe3TomyttY+8z+LhB9BPUHjdDgQMkQHALewjwXVCQO99cZEGfr8rD781ENYBqq6XJmE5XjQOt0VkcsXppF6j+Vl132yosd3q0k+A9U1CmPpylYA/LaAPAG7RthJcJwT0DKcVwGte3GJ5RqC+DFahuupabxKW40XjRKCZ4+deE4CXbeaH1ZqyeTYFFy976sRrzxOnyKQzoX7uZNAdc+rgsbRRpByifbiNYxMQux1z4thptPjc7X28uV3r7I7fp2dTAH2LDnkuwXc7ECRAZBfQlmVn1wPOntoK3Dzl5/J6l4Fw+MAEhuOGJi9GPdzy1Woimj6X7UxAz2VrYjeOE7JXAqynAD23e7WPo5/BdpglNzWgJjTGsBGC3ASYqtWioWW2J4NcBd8ulHnKz+Utjji0l4Fw+CpNo2wcN1RXo5xu+Yy0jLCyTtH0uWw1wOhLt+67hDZqBfRa/uLJiDiSkSdTfCpRrW20NMywbBffMiVp14T6udphnaVeE9ub2xhAfxbPsKmd1LZFuK7tBqAPDmjjFVu3QF95ZStINuvOMBX6PQXI8oTrArNbFheCOYz/VBpxvKTw5nYB9Jy3WD9u2ixY3ygAc3rnAfosu0XrU2krap+OoD9o8wZ9fBigrzY1htYW14JQAkzl2cMFKLcsDHsVBHOYH7xQzmukuwB6zlvfMFzT9xj2vGXj9Kq65NnNU4aENmK7+XTAv/k2xQbLyHVtAraB/lHlb21W5fAt6xesA6e/Ectw5LGpkZdXFenk1Dsnjiqbp70b/tb1fbzenu3LjDzGbUMAfcNOOAZBpw8En9OLf5YndtzsntJHoboyUBXHEurnhpdnfqujIu0z1Tk9jh/aNMvhGl/zgF5NMIzTVcT56nwaSgToN5yn2Oiq28LfkRUE/y7OwrdPX/mGnodOufF6tHsA+ib14XZsYjcF9M/p4X3tRCF5XnypncDkifXA+Ub1o7WL73x/TmsqV4ahYqOmflJLuZa49LRGIJPjR9Yv541VeUCvv+3zU3VSiziXXj+aMwD0fFSmYwt/n6tAs3yx0Htam0dPuRkh0KsnMeIkG14q47ybwNaBmCDdoi/Funll69JWov7lqTAhW/tt6tcKa0EsnfLZuv5txdxWvgmLP0/xdErqhjfKetvNqkcOnDeOs6P9/ESn2YmOi11rT3j6fdyqq6b3oA0RpnX7TNG2APoJCj91ILC9jS/+Gh4YKjD1bTb0vbhJSysJyLTwyTZniKuAkMtZPS3wQTDH89flZcxDH1tHHoVwX16/k3MykALgb4yjF8vBw1eXHLuZcYLrz536ZNiN62PsT9Bt4XvaEMuH41ZtrgZWY0LG4fSrJ06y1kybqTx7jM+ww8skzKsAqEiZxgb0GpSb9Shh8EkBZ2HIZE+sE9cLc+xVt9foy8/2JIfBLZqWDc0R2wc1oQNwoGwez3mw7j/dlh5qu2z1+US1Eyy/p87q6MxQfeLn7LPG40AfqY+3zUQ5azQgj9Q07ZATR7PJek/HWQn0AuoPK+23JjaVYVPv40OMRcijXVuOxX4A+oyOeO7GSx8IEj300ga+0028bzu1bTY6oBenu9hvbn1ZvrX0Pi8DicGffIOrfDOtOlnFAeBqECi8/y+rM/t//13kV/em2Cp+qal+gH6zaVCfxnar3iyrv721rP9Duu99qpMJ9EJ38m3GZl4M9bE2tW09js++U2G8bzu1+9zogF54VkvPcQXlt8pz4j/gJUZhoBeA9ok4x569snzGeRDoNqX3/7dq3bjwInttN3KgL+r+0y3tJWOlN1yMCSXs20Bf2lqsmecz2kubB+pva6fxZ/aY67Z+lZ7wU4JIellA/xvXw96LoffZHDjPiaPnuaHt8lh46Asv/XLbygucfh83y3Bu/kD+420PAH1kMBqrcDEQjLdDjVUzKBc0Aw1AA9BASw1oXnp46FvacoLsNfb+A6CfoKgA9BhIxj6woHzQKDQADVyUBtY7Osg19KfZgXYt2QH3cfSPrvsHgL5lp+y6QVLSw0CAgSBFJwgDnUAD0AA00FIDmldeLLU5zY60X7dMc7Mh3Mfb2xDaNm0IoAfQt1oHmNahUtZM8zpoeY2eeGKKOK0MU4wDu11u2/atx8hGQ16fbl/tzaQTHBvb6+XS7HZp9em733jSZ6CfH+mw3NG2o34BoPfYuiPbth8Hplk2AP0EBTS9gQBgmjfAwG55dpvmYNxtXQFyefa8NLtdWn0up29P7z5+ObbPGxvGX38A/USB/v+W8+KRnRgU8AcbQAPQADQADUAD09GAuIc/+c9bAzwhHz+IXipgD10vAP0EgV6IRAwE+IMNoAFoABqABqCBaWpgaOBDfpc9uQHQTxTo0TEvu2OifdG+0AA0AA1AA9AANJCqAQA9gB6P/KABaAAagAagAWgAGoAGJqwBAL1ovNWhevvb/EC7Do6kSp1RIRxm39AANAANQAPQADQADUADbTQAoLeAvstzZts0DOKiY0MD0AA0AA1AA9AANAABp4QIAAAfmklEQVQNpGgAQG88XtnSbiFeHHGi02KHR0+GbdChUjoUwkAn0AA0AA1AA9AANDC0BgD0DrTu6CCAfr7v7AUSQzcq8sNAAg1AA9AANAANQAPQwPVoAEAPoMeTCEcD1zMAYLBHW0MD0AA0AA1AA9PXAIDegTl46NGxp9+x0YZoQ2gAGoAGoAFo4Ho0AKAH0MND72jgegYADPZoa2gAGoAGoAFoYPoaANA7MLel/VxsjD3Qzvlt+g2OTos2hAagAWgAGoAGoAFo4LI0AKD3QDufdHNc7rAx1mMfDAKXNQigPdGe0AA0AA1AA9DAtDUAoPcC644OhZdeHmEJbz2W5Xh1Mu3Oj8Eb7QcNQAPQADQADVyGBgD0XlAD0KODX0YHRzuiHaEBaAAagAaggcvXAIDeA/TVkpstPNMe+2BguPyBAW2MNoYGoAFoABqABqajAQC9A6zYFIsOPJ0OjLZCW0ED0AA0AA1AA9AAgN4B+qbn0O/kqTgnOi528Og79kQnw0ALDUAD0AA0AA1AA9BAnxoA0DsA2hDo13s6znjz7IkOKwi2T8EibegLGoAGoAFoABqABqABUwMA+rZAv9nQdnmkk4T64xLr7tHJzE4Ge8Ae0AA0AA1AA9AANNCnBgD0HQD9RvPSw0OPDttnh0Xa0Bc0AA1AA9AANAAN2BoA0LcF+rV+xCXeLmsLDJ8x6EAD0AA0AA1AA9AANNCvBgD0BtBviY+sPNVtcNW88uVymyPt1/02FjoD7AsNQAPQADQADUAD0AA0YGsAQC+AfnVQa+B5LXzt0hkG+vmRDssdbY2JAYRmCw2foQloABqABqABaAAagAb60QCA3gL64/wATzsmJzh+FBqABqABaAAagAaggcloAEAPsU5GrJjV9zOrh11hV2gAGoAGoAFoYNoaANAD6AH00AA0AA1AA9AANAANQAMT1gCAfsKNh9n0tGfTaD+0HzQADUAD0AA0AA10oQEAPYAeM3JoABqABqABaAAagAaggQlrAEA/4cbzzui2S5qfZjQ7Lml9aXVDfa53sIWur7ft0e/R9tAANAAN1GoAQH9pIgH4GKJfb1e0PMzLSY6Y6BSTnTkt9ittwrOm5VH+xmFCV89ESeSxOM7LtIt4c5of9PQDjxNl2YoynRa0StFiTpyUdMceBro2dO2dzI+9DVE+tCE0AA1AA71pAEB/aeIC+MjOsqbVQYdsF9jn+7UKmwv0630sDz+kr3dLWjgTCH9YBrecOBz3Iq7QdW83gYvQx6WN46gP9A4NQAMNNQCgb2iw0d/8AD7FILA6VABfeMu3mpd8u6bVfkELBfTab1IPDOoV9LthNruF9MrPabHjycGGNts1LTn/w8oclLh9iicFC1rt5BKpmIc+Jw50bdr90uyB+qB9oQFoABqABjQNAOg1Y4we1lPKyvDnWRpyEfVLsYEC7Rktdh4QT0gjBeh50uDPg5fx2J53AfvaBIDbKwb0m5w4efUerUbYTtes6wTdjrb9UHaABzQADUADvWoAQJ8jMIaLwvtaLu0oNqLKddeh9dMlAM5pKbzFxlpo4U3WIM8ukxN2RvPjgpa6V5jjcNkK8Ck90SllK0BAeK6t9ebBfDi/EV4ZtGe2d7xBWeuBnoFdtqcnbU7DD/wSuLm9okBvwXlOHE/5HPjjdKHrXgddx+4pbYMwaBNoABqABqCBiAYA9BHjBG+8CnwWnrXQcqmHByYZ6Bf7hblJU9uA6cDfLhxWbKZ0loRw2Y7NyrbheFpZys2aZX2cfHLsNkicFS2KOoRBO9iuWvkYxsP1ZqAPPwWoT0NM7BKW3GjlKsqeE8dOw/eZ0z000w50bU24fLbFd7gRQwPQADQADfSoAQB9jnEZfDweebF5sfSIu0CpPMcinuFhF550ublSnwho+Zhefy38yQJKLU4B/NppK+GyMZyK01/W2ukvG1qrCYVbnxQw1sN89Lcbon9Tzd8NPf1zC0BS9TeXujBc65OUmAefw4eBfkMcZia86541+vxkJJbGKIEeusZNJ2dcRBzoBhqABqCBs2kAQJ8jPgWNAqa1zZAyLQY9G+QY6E04t5ZeaGuEQ+kwJPPvBpjmlE2uObfLa+cT+p3D1V0vDeg3G3FcZbX51pgsSCguJlWRzbdjBXrousWkMmdMQZyz3QTrxi38jr4ADUADU9AAgD7nRsrQrMG30di8KVP3tm82xEDvLKvxlqHymhdr7n1hfOXwfafH9ZRNTQw0CPXBaVugN2ykl6nL/7n+sTXpHhvYZWOb1NfZ3XcwO5bn3PNTl2h7p5TXtk9OHDsN32dOF7oGXPr0ge+gC2gAGoAGRqsBAH2OOAcFH3PpiAmecr24DmAZZeOJhg/i9e/q4XYMs/iENfSdAn24zqVda5YqcXvFJiC2RnPi2Gn4PnO6up70cAG7sX6iExeVDk9UoWuzL4d1hHCwDTQADUAD0ECdBgD0CjQaiGVQ8IkAoa8cvu/0OnqgjL3RaUDWwE56vpsNDbLkRhzxKJfBBCcgHhvYHYVtEkzDqpsdv1iOUzzxiIHrSDfFDgL0l6Nrt+3z+wjSgu2gAWgAGoAGcjQAoK8FM4+waqA55LEMfR9qOA4fgkovdOaULQFwQ2Vs8v0wQB/ZrMptnVBfr205fu1VLMNJPB2I22sCHnqukz3xC30f0gaHvxRdh+qJ7z1jZ23fQRzoBhqABqCBHA0A6I0bzOf04p/lKSw3u6f0kfGbJjCGsKN7uol4aVC5TMX1zDLI2EAUbDgGz+J4ypV2+ky5brvMx/J0GmXTNuzKM+b9ZeNlKjOaH5bmiS0hG4z6+6o+fL7/WiuvOLmnsIO1x0Fvhyyg367LU4F4o2zI062VZZSbYqFruUZyR/v5iU6zEx0Xu9Gum9R1i/+1cVrvZ/gf+oUGoIEL1wCAXmtg24P84q+BmwNDc3ATqQXZMo/GQL/Rvc2+01TEy6isMmaWbaOOp/TlI75zJyijhodtwgk0rYFenzhYdgvCfLUkqJxcWfGkpsx2zYlj6ULTebDdMrVzsbpe7+k4K4FeQP1hlWHTFLsjDEADGoAGoAFooKUGAPSGARt66B2gn5P3SEqZRw74CPgS58cvjuz5LwEw7EkXXuIyPJ+Dzp78omz6eelG3au315rxGDgnBvRF3dhjbtlOnkKje+1tyE3z0FtAfxTtL55waE9GbBtra/ynA/TXq+vt8lh46Asv/XKLG46jZ0xy7LEDn6EJaAAaOIcGAPQ5Nyj2ZAa9sBDzOcSMPFvqDrp2gV3z0sND31JfOWMt4riahE1gE2gAGvBoAEDvMUotGAJ80JlydDP2ONC1qev1jg5yDf1pdqDd2NsP5TPbD/aAPaABaOCKNACgz2lsgA8GiRzdjD0OdF3qWvPKi6U2p9mR9mt4p2sdHWPXN8qHcRsagAYuWAMA+pzGBfhgUMjRzSBxrHX9zj4P3hOhXXlzMHRtAv38SIfljraDtBsmDJgwQAPQADQADeRrAECfc7MG+ADoc3QzSBwAPW4I+TcE2A62gwagAWhgmhoA0A8CWdMUBzo12g0agAagAWgAGoAGoIHxawBAD6CHtx0agAagAWgAGoAGoAFoYMIaANBPuPEwYx7/jBlthDaCBqABaAAagAaggb41AKAH0GNGDg1AA9AANAANQAPQADQwYQ0A6CfceH3P9pA+PArQADQADUAD0AA0AA2MXwMAegA9ZuSWBtbbFS0Pc5rrRz4e57TYr2itwq5pedSOftTD2v973igs8lgc5zRTYec0P+jpBwYPWbYy3oJWqjyB8OL3nDgp6SIM+g40AA1AA9AANDAKDQDoIcRRCHEcs/81rQ46ZLvAPt+vpb3ygX69j+Xhh/T1bkkLZwLhD8u2zInDcXGNTJAwZmDMgAagAWgAGhiZBgD0I2sQgNT5QGp1qAC+8JZvtbJs17TaL2ihgF77TWqIQb2CfjfMZreQXvk5LXY8ORBe9DUtOX9+0RNrk997ILz5xwWtdkv59CAC9DlxOD9ccaOCBqABaAAagAYmpQEAPQQ7KcH2NuFRoD2jxc4D4gk6SQF6njT482Cvvw3qAva1CYCCdTucXu6cOHp8/N+b1hK0hLyhP2gAGoAGoIEmGgDQZ95cSzCb01J4cY01ysLLq8GXnb7w9Frrs+fHBS11b20RR77xU3hrt9VyC+E5Fg3M8Fjm5RG9U6YZ+fNhiIyALMOuZy248Cyn1cdTRts2Z/zMoD2zveMNysRtEvbQs62lbjxpcxp+4Jc2TAJ6y945cTzl8w0u6AvcLpfRF3xtjO+s/pTYN2A32A0agAaG0gCAPnNgZohZ7Bfm5km1ydEDyAqqqqUd1abIGZkgKIH+uLDWTs9puedlG5yO5andhcsk8jPz0SYHAZhl2HUgs1F9xtyppa1PYdBO6ZAM47Z9q7gM9B5tSB3WpyEmkAlLbmxd58Sx0wh8Rl/Q24T7pHkNa2LM/QJlq/oubAFbQAPQwLg1AKAPQEqdcBlyCyA3POxirbXc9GgAMsOcOC1lrZ2WsqG1AnAdKBkyBRiU3zPsFXkWJ6JUaRZPCkRdFLjNrFNTtHKdbKDkvKyJQWGb0G9V3mn1yesIH/3thujfVPN3Q0//nJd+0c7KZmb9DXvzRM1oUzNPDh+DNw4zOy1o5VmjzyfrxNKo2tgsb1SzgTpG4yT2DfSFYfpCF22FNMw+C3vAHtAANHApGgDQJ0KL3eAMMd6jBhme9CUqctlKCNQY9KrfGaQrjzqHKWCwKHcFEgz0HKZKx+ys/Lu9tITr43jhebmNDbKN62OWw7Zn6POlAf1mI46rNL23+lMa/j/UfoWdWF9iUpCq35w4iWmzdtAXtE3Omu24z0XbVAsf6gv4Pm8Mgd1gN2gAGrgGDQDoM2+kDDEOAAfS45s6A1voWt30GegraOM0qjA20NufPZ2YwU6fbIgyM7hb35f11J8clGlyWUL14O+rsnrKErDV4B2PbRIDZLaPPbHR6sA2qa+zu9Z6Js+556c7UV2llFcrV2HPnDh2GoHP6AuxY0iryVu9LkbcRwJtP3hfRTlwiAE0AA1AA14NAOgzhdEUYjg8g27oWt302wB9NQlwb7gyXQvcNxvfZCAUdkPN6zNmWGFbuxMXZb9OgT5si9KukXIIvebAeU6cxL7BWohOQrS0OHyoD/D36AthnShdanbFd7AXNAANQAPXqwEAfeYNkaEkFWLYe5savliaUazbruCc06hAx4Zw+7NH2Ax2DtBXm2NV+hJifWXmsvh+63JAGWTJjZrMVMubnDoMAvQ8saja3CmH0Cu3YeyJgq3rnDh2GoHP6Aulh77vvuDVQqBNENYz9sFWXq8etAKtQAOXoQEAfeYg3xRi1JKWyJINs1O5cMcQrYBbgWjl0eVyVWFMobpp6L+bHvkyrQBcJgCuWR89n/T/hwH6ajLjbFZlfSTUN27bujqLZTjl8oxQ2yl75sB5Thyue82Vy50MtAm2VHUt8kZfMO1RpyX8DntBA9AANHBtGgDQG7DyOb34Z3miys3uKX1k/GZ2jsYQIzZDypNS5oelecKJNx8OXwG1C4wejzzDUnE85Uo7Tadct10uZ6gmALbgy3qJ32X+wQkIl0+cppNSH9N+dr7n/1zVh98jsNbaRZxEVNguaI9qUlAL5Fq64hz/4pQj3ijreXLi2CYHznPi6OWM/I++UGknry/saD8/0Wl2ouNiBy9qRGtOX0BY6AUagAaggUIDAHpNCLY3+MVfwxDaHGLKjad8LCGvEzavFbznLbkpy8vgb6bNm/PES6/C9eInCfOjWEYQBv/ixqqO2+S07aten0ieWhuc9YYtJjEM1nxMpX1tDfQV/DntE4R5nrjZ9jU/m+2aEyevjdAXmvZty87rPR1nJdALqD+srN/H0j9QDoATNAANQAOj1QCA3hBnnx56eZOWb3D1g70OwAx+1XcM6pUHmKHNBe/1Trxd1jx9I817yGnOaBYETA04kuujxTFsPrbv2WNu2U6eQqN77e3Jh9s+vrpxu0oYP87lEw7/kYdlHlqb2BMM7fOkgF5oIFk7bLPL7Qvb5bHw0Bde+uV2tDcMW/P47Ovj+A66gAaggeE1AKAfNVwOLwh0QtgcGjiDBjQvPTz0Z7A/7gOYREID0MDENQCgn3gDAr5w84cGJq6B9Y4Ocg39aXagHcYkgAU0AA1AA9BAQw0A6BsaDPA0cXhCe2OQHIsGNK+8WGpzmh1pv0b/whgLDUAD0AA00FwDAPqx3NxRDoDm2TTAa9TNTbbOpl1tvf4ssjkYA3HiQMxAPz/SYbmj7dnaP7G8KB/GKGgAGoAGRqsBAD3EOVpxAgyHAi0APbQ2lNaQD7QGDUAD0EAfGgDQA+gB9NAANAANQAPQADQADUADE9YAgH7CjdfHDA9pwnMADUAD0AA0AA1AA9DAtDQAoAfQY0YODUAD0AA0AA1AA9AANDBhDQDoJ9x4mD1Pa/aM9kJ7QQPQADQADUAD0EAfGgDQdwD0q335VlHxJtbYm0TDDchvAnXf+BqOc+YOsV1S8bbblLfJajZeHTwnqeDEFHhFNI2kaP6Tb2/RD3+8Sk9+WtF7DeOW6b9On/62oB/+uEWffnDmvpRVfpQ5RScIA51AA9DAtWgAQN/6ZqqfEJIL5H0A/YqWhznNGwJ3svAB9K0h/L0PbtOnP92iJ38IsHy1/PvtFn357W0NUhk85e8cznf9zYVbkceXv5XwW+Zxi578pKcfGOxl2co4r9EnKf0kJ05Kuk6Y2/SlslkukLNdc+MH7OaUFeGSxxTYrvWYAlujv0ED16sBAH0HN5FReugzgTt5MOgi/d2CirPOr85D/zp98pMO2S6sP/n2dXlzZ/B0w6hJAMO9BfTvSS+2E64I74f09x6t6MvCc63n5w/LWsmJw3Fzr/DQX+9NK1cziAfNQAPQwCVrAEDfAdC3F0gPHvougDtmmy7Sv1Kg/+SnyiNfeMv1JR8fvE6ffPsafamA3h2AGdQr6HfDbB69Jr3+t+jLRzw52NDmg9fpU87/p9umR/CDVfW04LfX6JNH/DkC9DlxYroa7DeeKMFD33788uhvsHZE3mg/aAAagAaEBgD0o7jxAOivZkBSoP0qffkobxBKAXqeNPjzYJi1QV3AvjYBULBuh9PLnRNHj3+u/9kGAPqr6XujGOvPpXfkC51DA5euAQB95iCfv7lzTSuxtv2kbw4tN9XOTrlr8GVHZY+3kbaej/zfu65+TevdkhZHLksZdn5c0HK3Nj25wmaGh35Nq/3CqNP8sKrfIMzlTVlys3XtFixbZpsO0dkZtH+wveMNylwP9PWwymn4gV/qKQnorZtETpzEuivb8RIjcU2yY7nEydir8AcveQoAfWh/g/60I7HcQ+gKeVg6RNu4YzZsAptAAxetAQB9psCzgJ4hOAjc5wP6tTypp1jT7inffG9BPdfluKDF0TNpEGnUgXoq0HNennKJ8jply2zT/qGIN3MGIDKx3Azj4SU3DPThpwD1aYjlOQlLbuwy58Sx0wh8zgJ6VR59T4D+v6ctauJEJ0GBsvevLQAtbAwNQAPQwDVrAEDfxQ04CUx5Wc2MCu/1Vut425WE4pZAr9eFIdjrjdfylnHWwsN+WNJqa4L7mut2WtDKl76EbN0jLzz95ROImvpw2lHwZ7vNabFfG15/UbakfPRyB/7/6G83RP+mmr8bevpn13bJA4gCRXMJC8O1sXk14nnm8GGg3xCH+eGP1+gTzxp99lbH0hgb0Bt25qVLETttNtXExt2rIE7/8R9byRMHex8Dn0oEoG/RBwL9z2hbhLloLyLaGv0HGuhHAwD6Lm4eKWAaDVNB61IH/TZlawj04Q7GZQsD/cKzJIc9/lHvedQmUvAyTCidpHwS7HhpQL/ZMLDq3mj3/4sG+ij0M+zbHnr+Xjzd0DYTJ2go3If6GbyRH+wKDUAD0AA0wBoA0Hdxo04AU16is9j5xMfQXOPRblLWDKD3raGvluAEgD70BCDBJpuEMAzsVTn8y3tCwM9CH8U14KE3yhaF0FI77H2PwnihFc/acXnOPR/7GPU2p5TX1mROHDuNlM8JdlKedu/mYwZ3G+g3VJ0Q9Cr98Ntr9KnxXgBf/8V3hoZT2g9h4IWHBqABaKBTDQDouxBUApiOHei5fGFwPg/Q15dLbt611/h30a6dp5Gwhj4BVNOBPgyaJex6YFavcw6c58TR80z9P8FO2UAvyuC8kEvAvXYCUGo5Ea7TGxYmDuE+DdvANtDAdWsAQN/FDXfqQM/e/NOM3OUz/PTgPEDPHnr/k43uOu8gS270Nd2hc+YTQLU90PPEwlzL79wMcuA8J05OH0ywUyug18okXpwljvPkPQ5iPb5jKy08fuuuX8KWsCU0AA1AA2kaANB3cSNOAHoGU9/SEP6t9bGVel0Y0kNLYrSwKn9vWN6w2wzo2bMeBfEEu6Usy+misw8D9JHNqtweCaDaDujFMpzyxVa1S3Zy4DwnDte9ybWlndiGP/xR85RCL9NQddPzxP+YPEED0AA0AA0kaABAbxjpc3rxz/Kkk5vdU/rI+C0yQ0oBUwZscdY8byLdrmh50M9973AN/WZFCz6BZl9zJjyX3zgHX5xLz6fIiGUtIaBfmCfjyPPiy6U7Vhzbnpxv9JQbrR7FKTyRdrDTH+Vn9o6LDarlEo73tHK+1xJUg5ObD14nkfaT4mQXsXxkRXq+3ng5AJsTR6u/txy+3xPsVJ3Sc4s+5Q2u8nx59ra7QC82E9+iL8W6ef10oM2GhKe+PB0o9mRjR/v5iU6zEx0XO9yEfG2H76ALaAAagAY61wCAXhOV7aV98dcQPFaQmbzmfLMh9lo7cQ4r+VuXQB/Jz/HEx+ozp3lxzrwF52qC4t+k6n/aEMuH07HyEe1jTCw4nH71xNHaNRkSh4pTrM8uveQVWFon0ESWdbB3Oe5h1ycOVtpBmOeNolZ4/UVOf9hn2+fECfWr2PeR+qjyuaDNTyMcO/90Wz6psD309flENxKv93SclUAvoP6witUJv42ubw41BiCfzmEGWsJ4cu0aANAbA2uqhz4TTDf2207nas16CfvdAv1G5CfOl7df/OQAvXjzq1haYz4t4PPyy7LZ0Fy9WdZ+6y3HcztXrt3K8omnGWZeDPV22aYwsLHHvFqbLaDzCXuHDV2a9ckC+t9u0ZOfVvTJB7GjGHPgPCeOWR9XJ77f60G7OHPfsZt90k+1sbWEfRvoyw2xYs08n9VfTgbYfr6ymd9tl8fCQ1946ZdbgIvTJqa90tofcWAnaAAagAZiGgDQ42YD4IAGoIEuNaB56eGhxw04dgPGb9AHNAANdKUBAH2XN3KkBTCEBq5bA+sdHeQa+tPsQDvo4br1gPZH+0MD0MBAGgDQD2TormZgSAezeWhghBrQvPJiqc1pdqT9eoTlxHgHuIAGoAFo4CI1AKAfpbBT1prz+nF5jZ4UA7AABI9BAynr4K0NuZHNwaNqUwb6+ZEOyx1tRzmujEEDKMOodAudXiTYQWPXOc4A6Ec5oAHoMSBd4oB0wUA/ynHkEjWEOmFshAagAWjApwEAPW7E8FBAA9AANAANQAPQADQADUxYAwD6CTeeb4aG7zBzhwagAWgAGoAGoAFo4Lo0AKAH0GNGDg1AA9AANAANQAPQADQwYQ0A6CfceJh9X9fsG+2N9oYGoAFoABqABqABnwbygH51qN6EOD/QDsezYVaLiRE0AA1AA9AANAANQAPQwFk00BroceYyZoq+mSK+gy6gAWgAGoAGoAFoABoYRgN5QK9mX1vaLcRLVE50WuzOMiOBUIYRCuwMO0MD0AA0AA1AA9AANDBODbQEelGpHR0E0M/3eJmKmuiMs7HRCdEu0AA0AA1AA9AANAANXJ4GAPSAcDxZgQagAWgAGoAGoAFoABqYsAbOAPRb2i+OxTKd43IL8UxYPJjhX94MH22KNoUGoAFoABqABqangeGBfr2no1iiU/wdaAegxaQGGoAGoAFoABqABqABaAAayNZAB0C/pf1cAHoqnMNDj5nv9Ga+aDO0GTQADUAD0AA0AA2MVQMdAP1GnXRzXO6wMRazy+zZ5Vg7CcqFARwagAagAWgAGoAGxqyBToC+OOmm8NJjKc2YGxtlw2AEDUAD0AA0AA1AA9DA5WkAQA+POjzq0AA0AA1AA9AANAANQAMT1kAnQM8vl8KpNZc348MsHm0KDUAD0AA0AA1AA9DAuDXQAdA33RQ7boNAsGgfaAAagAagAWgAGoAGoIEpaaADoG/6ptgt7eQ59Hi7LDrLlDoLygq9QgPQADQADUAD0MAYNXAGoJcTAHkWPZbpoGOMsWOgTNAlNAANQAPQADQADUxFA2cA+g1tVgf5YqkTnRY7bMKY8CaMqQgd5cSgDA1AA9AANAANQAOXqoHzAP2m8tLDQ4/OdamdC/WCtqEBaAAagAagAWhgCA0MD/Rr8aZYPq/+SPs1GnqIhkYe0Bk0AA1AA9AANAANQAOXqYGWQC82uEo4r106U3nlT8X6+SMdVlsst8FyG2gAGoAGoAFoABqABqABaKCFBgygf//990n/C87i9DXwcnPrYVU342GgP9JxsacdPPMQbgvhBrWJNKEraAAagAagAWgAGrgyDSigbwRIGtAf5wcsm7ky0TTSCmyDQRUagAagAWgAGoAGoIFeNZAH9GiUXhsFwFz3tAe/QyPQADQADUAD0AA0AA2wBgD0mJxgcgINQAPQADQADUAD0AA0MGENAOgn3Hg8K8MVM3RoABqABqABaAAagAauVwMAegA9ZuTQADQADUAD0AA0AA1AAxPWwP8PX+Zu9BYRiicAAAAASUVORK5CYII=;" parent="WIyWlLk6GJQsqaUBKTNV-1" vertex="1">
          <mxGeometry x="547" y="396.29" width="246.48" height="115.42" as="geometry" />
        </mxCell>
        <mxCell id="gd7y4TCB3l7EOIuw51wQ-3" value="" style="endArrow=classic;html=1;rounded=0;entryX=0.53;entryY=0.94;entryDx=0;entryDy=0;entryPerimeter=0;" parent="WIyWlLk6GJQsqaUBKTNV-1" target="x74ONLKLbEEUaDy3nGKP-30" edge="1">
          <mxGeometry width="50" height="50" relative="1" as="geometry">
            <mxPoint x="666" y="395" as="sourcePoint" />
            <mxPoint x="663" y="367" as="targetPoint" />
          </mxGeometry>
        </mxCell>
        <mxCell id="gd7y4TCB3l7EOIuw51wQ-5" value="" style="endArrow=classic;html=1;rounded=0;entryX=0.497;entryY=0;entryDx=0;entryDy=0;entryPerimeter=0;exitX=0.538;exitY=0.012;exitDx=0;exitDy=0;exitPerimeter=0;" parent="WIyWlLk6GJQsqaUBKTNV-1" source="gd7y4TCB3l7EOIuw51wQ-0" target="x74ONLKLbEEUaDy3nGKP-27" edge="1">
          <mxGeometry width="50" height="50" relative="1" as="geometry">
            <mxPoint x="135" y="378" as="sourcePoint" />
            <mxPoint x="185" y="328" as="targetPoint" />
          </mxGeometry>
        </mxCell>
        <mxCell id="YJDXlsVcFnU0-v3A4MZ9-1" value="" style="endArrow=classic;html=1;rounded=0;fillColor=#e51400;strokeColor=#B20000;strokeWidth=2;entryX=-0.001;entryY=0.177;entryDx=0;entryDy=0;entryPerimeter=0;" parent="WIyWlLk6GJQsqaUBKTNV-1" target="x74ONLKLbEEUaDy3nGKP-46" edge="1">
          <mxGeometry width="50" height="50" relative="1" as="geometry">
            <mxPoint x="113" y="434.17" as="sourcePoint" />
            <mxPoint x="262" y="431.00399999999996" as="targetPoint" />
          </mxGeometry>
        </mxCell>
        <mxCell id="YJDXlsVcFnU0-v3A4MZ9-2" value="" style="endArrow=classic;html=1;rounded=0;fillColor=#e51400;strokeColor=#B20000;strokeWidth=2;" parent="WIyWlLk6GJQsqaUBKTNV-1" edge="1">
          <mxGeometry width="50" height="50" relative="1" as="geometry">
            <mxPoint x="565.75" y="409.996829422955" as="sourcePoint" />
            <mxPoint x="526" y="442" as="targetPoint" />
          </mxGeometry>
        </mxCell>
      </root>
    </mxGraphModel>
  </diagram>
</mxfile>
